<?xml version="1.0" encoding="utf-8"?>
<!-- Generator: Adobe Illustrator 27.9.1, SVG Export Plug-In . SVG Version: 6.00 Build 0)  -->
<svg version="1.1" id="레이어_1" xmlns="http://www.w3.org/2000/svg" xmlns:xlink="http://www.w3.org/1999/xlink" x="0px"
	 y="0px" width="741.113px" height="770.224px" viewBox="0 0 741.113 770.224" enable-background="new 0 0 741.113 770.224"
	 xml:space="preserve">
<path id="west" fill="#47EADA" stroke="#FFFFFF"  d="M232.979,284.932c0,0-3.801-3.11-6.047-2.246c0,0-7.947,1.382-4.319,8.293
	c0,0-8.466,2.419-2.592,10.366l9.502,9.675c0,0,1.533,8.487,0.864,9.157c-1.08,1.08-3.11-6.911-8.811-5.183
	c0,0-6.395,3.11-3.63,10.366l6.048,9.157c0,0,0,0.173-0.346,4.838l-0.691,12.785l0.173,6.22l-1.037,3.283l5.356,7.602l-3.974,6.565
	l4.319,5.874c0,0-21.423,30.408-41.292,36.282c0,0-13.131,1.9-14.513-1.209v-10.539l-8.293-13.131l-15.377-2.073
	c0,0-8.984,5.529-3.11,15.204l3.974,6.565l-1.728,7.256l0.692,3.266c0.192,0.905-0.197,1.833-0.975,2.333l-11.465,7.358
	c0,0-3.073-2.678-4.881-2.635c-2.055,0.049-6.673,3.563-6.673,3.563l-3.175-14.837l-4.967-13.044c0,0-1.728-11.057-12.958-11.057
	c0,0-25.743-3.628-35.418,10.193c0,0-2.419,2.937,3.974,8.12c0,0-1.209,6.565,7.256,6.392l4.492,0.518c0,0,5.183,3.801,15.031,2.419
	l3.11,7.947c0,0,7.256,10.712,5.701,15.722c0,0-5.874-6.565-9.675-6.911l-4.665,2.073c0,0-6.392-2.246-6.738,2.073
	c0,0,1.209,11.057,10.021,15.549l5.356,5.529l0.864,5.529c0,0,1.382,6.911,10.366,4.146l9.675,8.984c0,0,4.146,8.984,5.529,14.513
	c1.382,5.529,1.382,19.35,1.382,19.35l-1.382,10.366l-3.455,17.277l-6.911,8.638l0.346,9.675l-6.565,1.382l-8.638-5.874
	c0,0-6.565,3.455-2.073,7.602l11.748,8.984l7.602,12.094l4.838,1.728c0,0,3.455,2.764,4.492,6.22l1.728,6.22
	c0,0,5.183,4.838,6.565-4.146l0.346-8.984c0,0,2.764-6.22,0.691-8.984c0,0-2.419-5.529,2.073-4.838l18.659,13.822
	c0,0,3.11,3.801,0,4.838l-9.295-1.382c0,0-2.454,6.911,4.457,8.638l12.439,2.337l9.33,5.61c0,0,15.549,5.529,19.696,0l1.728-5.529
	l14.858-0.691c0,0,4.146,0.346,8.639-7.602c0,0,10.021-9.675,13.822-10.366c0,0,10.939-2.331,10.021,0
	c-1.123,2.851-14.858,13.476-14.858,13.476s-3.801,6.988-1.037,13.169l-5.529,5.145c0,0,3.801,6.565,11.057,2.764
	c0,0,3.11,3.801,10.366-1.728c0,0,8.293-5.183,22.115-3.11c0,0,7.256-2.764,14.167-14.167l10.712-15.549
	c0,0,7.602-5.874-4.838-15.549l-6.22-3.11c0,0-2.764-6.565,1.382-8.984h11.975c0,0,3.229-3.11,5.993-7.256
	c0,0,6.911-8.984,11.057-8.638c0,0,0.691,3.801,4.838,3.455l4.838-3.801c0,0,3.801-1.037,3.801,4.146c0,0,0.346,8.293,5.183,6.22
	c0,0,3.801-2.073,0-12.439l1.689-3.11l7.295-6.22c0,0,9.536,2.753,10.712,0.346c1.398-2.863-5.183-6.22-8.293-9.675
	c0,0-11.057-17.623-12.785-22.46c0,0-1.728-3.801,0-8.984l7.602-8.638l13.476-12.094l-4.492-7.256c0,0-3.801-2.764-10.021,0.691
	l-7.947,5.529c0,0-0.532,3.132-1.382,3.11c-1.203-0.031-1.728-4.492-1.728-4.492l-1.037-5.183c0,0-1.728-1.465-10.021-2.46
	l-0.346-7.56c0,0,5.183-0.346,6.565-3.455c0,0,2.419-4.492-6.911-5.183l-3.455-0.346l-11.748-7.256l-1.728-5.874
	c0,0-2.419-3.11-6.22-2.419l-1.037,3.801l-3.455,3.11l-3.801,0.346l-2.764-5.874l-1.728-2.419c0,0-2.367-6.911,1.037-6.911
	c1.816,0,3.11,1.382,7.256-0.346l3.455-4.492c0,0,2.073-6.911,5.183-8.293c0,0,4.492-3.455,0.691-6.911l-5.529-3.11
	c0,0-1.728-5.183,1.382-7.947l4.146-6.22l1.382-5.874l0.691-7.602l5.529-4.146l-1.037-3.11l-6.565-1.382
	c0,0-5.183-1.037-4.492-5.529c0,0,5.862-4.446,5.529-6.565c-0.638-4.054-8.293-5.183-12.439-10.712c0,0-12.785-17.623-18.659-19.696
	c0,0-9.675-9.675-12.094-14.167L232.979,284.932z"/>
<path id="east" fill="#47EADA" stroke="#FFFFFF"  d="M573.682,444.226c0,0,2.419-2.958-2.073-3.725c0,0-13.822,5.77-16.931,17.36l-2.073,3.988
	c0,0,2.073,6.911,0,8.638l-11.403,7.947c0,0-40.083,17.623-42.156,21.769c0,0-2.764,3.455-2.073,5.874
	c0,0-10.021,8.408-11.748,15.434c0,0-7.602-2.649-7.947,1.497v5.529l-8.639,6.911v4.838l-3.455,4.492c0,0,0.346,5.529,3.801,5.183
	c0,0,3.455,1.037,0.346,2.073l-4.146,2.073l-4.146-5.874c0,0-2.419-2.073-3.11,1.037v10.021c0,0,0,9.675,4.492,8.984
	c0,0-4.146,10.366-8.293,12.785c0,0-8.638,4.838-7.947,8.984l2.419,10.021c0,0,3.801-0.346,4.146,4.492c0,0-0.77,22.46-6.605,33.172
	v10.021c0,0,0.039,4.492-3.07,4.838c0,0-3.455,1.037,0,2.764c0,0,5.529-0.346,3.801,6.22c0,0,0.346,1.382-3.801,2.419
	c0,0-6.22,2.073-7.602,4.838c0,0-2.861,3.455-4.022,2.419c0,0-3.925-2.764-3.58-5.874c0,0-1.728-3.455-5.183-2.073
	c0,0-3.455,0.346-3.11,5.529l5.529,7.256c0,0,1.382,4.146-0.691,4.146h-3.455c0,0,0.346-7.256-5.529-8.293l-6.565-0.346
	c0,0-7.947,1.382-5.183-5.529l10.366-22.806c0,0-4.838-5.243-8.984-3.831l-23.842,48.406c0,0-1.037,6.22,2.073,5.874
	c0,0,3.878,1.382,3.494,3.801c0,0-0.038,5.874,5.49,3.801c0,0,4.146-3.26,4.146,0.443c0,0-1.037,9.232,1.382,9.578
	c0,0,6.22,1.728,10.366,4.492l10.021,11.748c0,0,11.748,8.293,14.858,7.947c0,0,3.013-2.764-1.603-6.911l-12.909-12.785
	l-6.911-10.021l-3.11-6.911c0,0,1.037-2.419,3.11,1.382l5.183,7.602l5.874,7.602l5.529,2.073c0,0,4.146,2.764,5.529,6.22
	l0.346,3.455l8.984,11.403c0,0,4.492,1.037,6.22,0l-2.073-7.256l4.492-4.146c0,0-10.366-21.769-16.931-25.224
	c0,0-4.146-7.602,0-11.748l5.529,3.11l2.764-1.382l15.895,14.513c0,0,4.838,3.801,3.11-5.874c0,0,1.037-4.146,0-5.183
	s-5.529-6.565-5.529-6.565l-0.691-4.838l2.419,0.346l8.638,13.476l22.115,15.895c0,0,2.419-0.691,3.455,1.728l2.073,4.492
	l6.911,2.073c0,0,8.638,2.073,12.785,7.947c0,0,3.455,5.183,8.638,2.073c0,0,1.728-2.764,3.801-1.037c0,0,1.382,4.377,0.691,8.063
	c0,0,9.33,14.398,14.858,13.706c0,0,4.492,1.382,8.638-2.419l3.455-3.455l2.419-2.073c0,0,2.419,0.346,5.183,2.073
	c0,0,8.557,5.874,12.399,3.11l5.224-2.073c0,0,3.801-3.11,3.11-7.947c0,0-1.382-7.602-8.293-12.439l-40.083-28.68
	c0,0-2.419-0.346,2.419-2.073c0,0,5.874-1.382,8.293-5.183c0,0,4.838-1.037,10.366,1.037l7.947,3.11c0,0,7.256,5.874,12.785,0
	c0,0,3.455-1.037,0.691-3.801l-3.455-4.492l0.346-20.732c0,0,8.115-3.801,9.068-9.675c0,0-1.713-3.801,1.693-3.801
	c0,0,2.37-0.691,4.443,1.728c0,0,1.382,3.801,5.183,1.728v-6.565c0,0,1.056-1.728,4.156-0.346c0,0,6.594,4.146,6.92-1.382
	l-2.783-4.146l-4.986-4.146v-4.492l-1.925-3.455c0,0,4.492-3.455,6.911-2.073h16.586c0,0,2.073,0.691,2.419-5.874
	c0,0,0.691-0.691,3.455,1.037c0,0,8.984,6.565,14.513,6.565c0,0,4.492,0.346,5.874,3.455c0,0,5.529,4.838,12.439,2.073
	c0,0,6.22-2.764,9.33-3.11c0,0,9.675-5.183,0-8.293l-12.439-1.728l-2.073-4.255c0,0-0.346-5.42,2.073-5.766
	c0,0,7.602,0,10.021,4.146c0,0,5.145,3.11,6.719-2.419v-10.021c0,0,0.192-3.455,2.956,1.037c0,0,1.728,5.874,4.492,7.256
	c0,0,5.183,0.346,6.22,3.11c0,0,3.11,4.146,6.911,0.691l4.838-6.22c0,0,6.22-2.073,4.838-7.256c0,0-1.382-8.984-7.602-10.366
	c0,0-6.22-0.691-6.911,4.838c0,0-2.764,3.11-4.492-0.691l-1.037-4.838c0,0-0.87-6.28-2.764-8.293
	c-2.552-2.711-11.403-0.691-14.858,1.037l-19.35-4.838c0,0-14.513-17.277-22.115-21.424l-6.911-9.33c0,0,0-6.911,2.764-8.293
	c0,0,3.801,3.801,8.638,1.728l12.094-6.911c0,0,4.492-5.874-0.346-13.476c0,0-16.729-19.067-28.334-4.838
	c-1.762,2.161-1.059,7.348-3.11,10.712c-1.015,1.664-5.529-1.037-7.602,1.728l-8.984,7.663c-1.542,1.315-2.061,3.485-1.238,5.337
	c0.762,1.714,1.592,3.991,1.929,6.35c0,0-8.984,23.151-11.748,24.879c0,0-2.764,3.801-12.439,2.419l-6.22-0.691l-5.874-12.785
	l-3.455-10.366l3.11-9.33l3.801-9.33c0,0,3.11-2.419,5.183-5.874l1.037-10.021c0,0,7.947-15.979,10.366-21.293
	c0,0,3.801-13.261,3.11-24.319l0.346-14.167c0,0-2.419-3.801-4.838-6.911C573.682,452.864,571.263,446.99,573.682,444.226z"/>
<g id="islands" >
	<path fill="#47EADA" stroke="#FFFFFF" d="M79.214,475.67c-1.085,1.166-1.382,5.183-4.838,4.146c0,0-12.094-8.984-14.858-16.931
		c0,0-4.146-15.895-17.277-17.277c0,0-13.131-1.728-14.513,2.419c0,0-0.626,0.929,0.281,5.14c0,0-2.138-0.454-3.736,1.08
		c-1.932,1.854-3.233,6.544,0,10.712c2.134,2.751,6.865,7.964,9.675,10.021c1.5,1.098,2.419,1.311,5.529,4.975l6.22,8.156
		c0,0,0.858,0.691,0.713,0.95c-0.334,0.596-2.721-0.259-2.721-0.259s-4.341-3.693-7.321-2.721c0,0-4.47,0.194-1.944,3.304
		c0,0,4.341,5.701,5.442,5.572c0,0,2.98,2.268,3.369,3.499c0,0,2.851,7.192,3.499,8.163c0.648,0.972,6.22,11.856,8.423,11.662
		c0,0,3.563-0.713,4.406-5.701c0,0-5.766-7.256-5.896-7.451s-3.434-8.682-3.434-8.682s-3.22-1.552-3.823-2.527
		c-0.239-0.386-0.173-1.428,0.065-1.814c0.194-0.315,0.927-0.685,1.296-0.713c0.577-0.043,2.268,0.454,2.268,0.454l4.73,1.231
		l4.146,1.749c0,0-1.749,1.814-0.583,4.73l5.766,9.394c0,0,4.535,6.285,6.608-0.13l0.259-5.637c0,0,1.814-1.101,3.434,0.13
		c0,0,2.592,0.777,6.155-1.749c0,0,8.552-3.887,9.848-3.823c0,0,1.296-0.065,2.073,1.749c0,0,2.397,2.98,5.831,0.842
		c0,0,7.192-3.499,6.868-6.673c0,0,0.259-3.369-6.22-8.682c0,0-3.628-3.369-8.487-2.786c0,0-1.166,0.842-3.563-2.656
		C86.902,479.535,82.545,472.089,79.214,475.67z"/>
	<path fill="#47EADA" stroke="#FFFFFF"  d="M290.339,304.109c0,0,7.429,4.492,8.639,7.775c0,0-0.691,0.691,0.864,5.529l2.073,4.146l1.555,1.037
		c0,0,4.146-2.764,5.356,0c0,0,1.209,7.084-1.555,9.502c0,0-6.993,1.728-7.557,3.11c0,0-1.082,3.11-5.228,0
		c0,0-8.293-7.775-8.984-14.167c0,0,0-6.565,2.246-9.502C287.747,311.538,288.611,305.491,290.339,304.109z"/>
	<path fill="#47EADA" stroke="#FFFFFF"   d="M338.714,325.533c0,0-2.419-3.974-5.356-2.073c0,0-1.762,1.409-2.073,2.073c-0.257,0.548-0.173,1.9,0,2.419
		c0.173,0.518,0.173,1.209-2.419,3.628l-5.356,2.592c0,0-3.11,1.728-3.11,4.665v4.838l-4.665,3.11c0,0-0.518,2.246,1.037,2.419
		h3.628l3.801-3.801l8.639-5.183l2.764-7.602C335.605,332.616,339.924,328.642,338.714,325.533z"/>
	<path fill="#47EADA" stroke="#FFFFFF"   d="M247.319,268.173c0,0-4.665-6.392-8.12-7.429h-3.628l-1.728,3.715c0,0,1.679,6.135,5.356,5.788
		C241.285,270.049,245.937,270.246,247.319,268.173z"/>
	<path fill="#47EADA" stroke="#FFFFFF"   d="M145.212,166.757c0,0-0.691-2.592-3.801-2.073c0,0-4.273,3.622-6.864,5.522c0,0,0,0-1.429,2.598v8.12
		c0,0-4.492,9.848-7.084,12.094l-3.974,5.01c0,0-3.455-1.209-3.974,1.555c0,0-1.728,8.984,0,9.33c0,0,1.9,2.764,6.738-0.346
		l2.419-4.146l-0.864-5.874c0,0,10.366-11.577,12.094-12.094c0,0,1.9-1.382,1.382-4.319c0,0-0.173-5.183,1.209-7.429
		C141.066,174.704,145.385,170.212,145.212,166.757z"/>
	<path fill="#47EADA" stroke="#FFFFFF"   d="M122.234,150.689h-2.937c0,0-4.319,2.246-3.283,3.801l3.974,3.628l-4.134,3.801c0,0-1.716,6.22,0,7.084
		l2.809,1.209l5.645,4.838c0,0,2.764,1.382,3.628-2.419c0,0,0.173-7.702,1.209-9.639l2.124-4.874L122.234,150.689z"/>
	<path fill="#47EADA" stroke="#FFFFFF"   d="M104.093,175.295c0,0-4.146,4.247-3.283,5.975l1.582,2.246l-1.701,3.814c0,0-1.846,9.662,0,11.044
		c0,0,2.537,6.047,7.72,2.073l8.12-7.775c0,0,2.073-2.937-2.764-8.293l-5.345-2.764v-2.592c0,0-1.052-5.474-2.602-5.701
		C105.172,173.227,104.093,175.295,104.093,175.295z"/>
	<path fill="#47EADA" stroke="#FFFFFF"   d="M173.201,118.554c0,0-0.691-4.319-3.628-4.492h-4.319c0,0-3.801,1.382-3.11,2.246
		c0,0-0.518,3.283,1.037,3.455c0,0,2.419,2.073,3.11,3.974c0,0,2.937,2.764,5.529,1.037L173.201,118.554z"/>
	<path fill="#47EADA" stroke="#FFFFFF"   d="M131.268,119.702c0,0,2.023-3.221,4.614-2.012l6.047,3.801l9.157,3.11v5.356l-11.921-1.728l-3.11-2.887
		l-2.592-0.914l-2.195,2.419l-2.815,1.382l-3.628-2.887c0,0-0.997-4.643,0-5.64C125.964,118.563,131.268,119.702,131.268,119.702z"
		/>
	<path fill="#47EADA" stroke="#FFFFFF"   d="M148.667,134.795l-4.146,3.801c0,0,0.346,3.801,2.937,4.319h1.9l4.838-2.937
		C154.196,139.978,155.751,135.658,148.667,134.795z"/>
	<path fill="#47EADA" stroke="#FFFFFF"   d="M124.382,132.376c-0.139-1.716,4.863-2.937,6.886,0l2.714,2.419l2.937,1.9c0,0,2.073,1.037,1.9,1.555
		c-0.173,0.518-3.455,2.246-3.455,2.246l-6.738-1.641C128.626,138.855,124.644,135.611,124.382,132.376z"/>
	<path fill="#47EADA" stroke="#FFFFFF"   d="M162.06,147.234c0,0-4.062-1.728-5.272,0l-1.382,2.073l4.492,6.738c0,0,6.136,2.419,7.733,1.555v-4.146
		L162.06,147.234z"/>
	<path fill="#47EADA" stroke="#FFFFFF"   d="M159.206,159.328c0,0-3.455-0.173-3.801,0.864v1.9l1.9,3.11h5.529l4.796-2.21v-1.937l-5.571-0.691
		L159.206,159.328z"/>
	<path fill="#47EADA" stroke="#FFFFFF"   d="M169.4,48.582c0,0-4.146-0.173-5.01,1.382v5.701c0,0,2.937,3.283,2.505,5.874l-1.641,6.392l-5.529,7.084
		c0,0-2.246,10.539,0,12.612l5.356,2.764c0,0-0.691,1.728,1.209,1.9c0,0,2.073,1.209,4.146-3.283l6.047-12.612
		c0,0,0.864-3.283,0.173-9.502c0,0-1.365-6.392,0.268-7.775c0,0,0.959-2.937,0-4.838L169.4,48.582z"/>
	<path fill="#47EADA" stroke="#FFFFFF"   d="M112.213,2.626c0,0-0.691-3.455-2.592-1.555l-3.974,5.356c0,0,0.173,8.293,4.492,8.293l5.874-0.864
		c0,0,5.333-1.037,8.368,1.9l3.899,3.11c0,0-0.346,2.246-2.246,1.9s-9.07-1.037-9.07-1.037s-5.097,0-5.269,2.073l0.518,5.01
		l6.911,4.492c0,0,2.569,3.974,5.258,4.319c0,0,4.244,1.037,5.453,1.728s0.346,2.073,0,2.419s-7.775,0-7.775,0l-5.356,0.154
		c0,0-5.356-2.745-8.984-0.499l-2.073,2.592l2.419,12.785c0,0,15.377,11.057,15.549,13.131c0,0,1.037,5.671,8.638,2.576
		l11.748-18.471c0,0,0.691-9.675,0-12.439l-3.11-2.592c0,0-0.864,0.242,0.518-1.089l4.492-4.44c0,0,3.801-5.529,0-9.33
		c0,0-1.9,0-4.665-1.555l-2.246-2.073c0,0,5.874-3.283-0.173-7.775l-6.738-2.419c0,0-3.148-5.01-5.461-5.183l-9.397-0.173
		l-2.073,1.037L112.213,2.626z"/>
	<path fill="#47EADA" stroke="#FFFFFF"   d="M116.705,378.919c0,0,6.738-1.037,5.442-7.256c0,0-0.612-13.994-2.638-18.918
		c0,0-6.691-14.682-13.17-16.671c0,0-0.777,0.171-4.146,0.517c0,0-4.665-4.06-5.183-5.874c0,0-3.628,0-3.887,3.369
		c0,0,1.037,7.429,1.037,15.117c0,0-1.814,10.021,2.851,11.835C97.009,361.037,113.424,380.268,116.705,378.919z"/>
	<path fill="#47EADA" stroke="#FFFFFF"   d="M71.871,356.372c0,0-3.554-5.442-8.126-5.442c0,0-6.905,0.777-6.645,5.442l1.037,4.406
		c0,0,4.89,2.851,9.054,0l4.682-2.073v-2.333H71.871z"/>
	<path fill="#47EADA" stroke="#FFFFFF"   d="M32.48,401.983c0,0-2.073-3.11-6.22-1.037l-7.256,5.701c0,0-0.259,2.851,1.296,4.924l6.738-1.037
		l6.738-4.632L32.48,401.983z"/>
	<path fill="#47EADA" stroke="#FFFFFF"   d="M128.885,387.73c0,0-2.592,4.924-3.11,6.22c0,0,0,6.738,1.555,8.552l4.146,3.401l4.665-2.624l1.296-6.463
		L128.885,387.73z"/>
	<path fill="#47EADA" stroke="#FFFFFF"   d="M175.792,392.913v5.701c0,0,4.665,1.814,6.479,3.369l3.369,5.183c0,0,3.887-0.518,3.628-3.11l0.012-7.24
		L175.792,392.913z"/>
	<path fill="#47EADA" stroke="#FFFFFF"   d="M20.472,488.109l-4.838-10.366c0,0-5.529-1.382-10.712,0c0,0-6.911,2.764-3.455,10.366l5.529,7.947
		l0.691,6.565c0,0-1.728,3.11,0.691,8.293l5.183,5.183c0,0-0.691,8.293,2.073,9.675l4.838,2.764l1.834,12.785l-1.834,4.146
		c0,0,4.217,4.146,5.909,0l7.394-9.675l1.555-12.439c0,0-0.346-1.507,0-5.073C35.33,518.282,28.765,496.057,20.472,488.109z"/>
	<path fill="#47EADA" stroke="#FFFFFF"   d="M114.805,585.551c0,0-4.146-0.691-4.492,3.11c0,0-0.346,7.256,0,7.602s1.382,3.801,4.492,4.146l6.565,2.073
		c0,0,3.455-0.691,0-12.094C121.37,590.389,115.496,589.352,114.805,585.551z"/>
	<path fill="#47EADA" stroke="#FFFFFF"   d="M74.031,608.703c0,0-4.146-3.455-4.838,0l-2.004,6.565c0,0-0.276,6.565,0,8.639
		c0,0-1.558,4.146-0.123,7.602c0,0,6.964,2.419,10.074-3.11v-6.565c0,0-3.11-3.801-3.11-7.602L74.031,608.703L74.031,608.703z"/>
	<path fill="#47EADA" stroke="#FFFFFF"   d="M30.147,649.131c0,0-10.297-2.073-12.232,2.764c0,0-4.213,1.728,1.072,7.256c0,0-0.59,7.947,4.248,8.638
		c0,0,7.603,2.764,6.912,6.22c0,0,12.439,4.838,14.167-3.11v-7.602C44.314,663.298,39.131,653.623,30.147,649.131z"/>
	<path fill="#47EADA" stroke="#FFFFFF"   d="M268.915,624.252c0,0-7.947,1.037-8.984,5.529c0,0-7.746,3.801-7.602,9.33c0,0,6.639,1.409,12.094-1.728
		l6.911-4.433C271.334,632.949,274.098,629.435,268.915,624.252z"/>
	<path fill="#47EADA" stroke="#FFFFFF"   d="M397.111,416.928c0,0-0.691-3.455,2.419-3.11l8.984-0.024c0,0,1.728-3.712-1.382-7.891l-8.638-2.451
		l-14.167-10.539c0,0-8.638,0.378-10.366,3.904l-3.11,3.223l2.764,7.127c0,0,3.801-0.605,3.801,2.851c0,0,0.346,2.764-3.455,3.801
		l-3.11-1.728l-3.801-4.924l-2.419-3.715c0,0-5.539,4.146-5.534,8.293l-2.759,5.183l2.759,8.639c0,0,8.644,0.346,10.717,2.419
		l1.382,2.419l1.037,3.11h6.911l3.522-5.874l5.462-2.764L397.111,416.928z"/>
	<path fill="#47EADA" stroke="#FFFFFF"   d="M427.518,438.697c-0.181,3.425-10.366,8.984-10.366,8.984s-4.496-2.877-4.838-4.492
		c-0.409-1.931,3.11-7.256,3.11-7.256s1.382-3.455,7.256-2.419C422.681,433.514,427.612,436.927,427.518,438.697z"/>
	<path fill="#47EADA" stroke="#FFFFFF"   d="M371.886,512.642c0,0-2.419-2.073-5.529,0c0,0-3.455-0.691,0,3.801l1.996,6.22l3.532,5.529l3.455,3.11
		h5.183l5.183-3.11c0,0,2.419-3.801,0-8.638l-6.911-4.838L371.886,512.642z"/>
	<path fill="#47EADA" stroke="#FFFFFF"   d="M443.067,479.816c0,0-4.492-3.11-5.529,0l-5.874,5.183c0,0-1.382,8.638,2.764,7.947l5.529-3.801
		L443.067,479.816z"/>
	<path fill="#47EADA" stroke="#FFFFFF"   d="M598.215,433.514c0,0-2.073-0.346-2.764,3.11l-4.146,5.874c0,0,1.037,5.874,4.838,6.911
		c0,0,3.77,2.591,4.838,1.857c1.379-0.948,0-6.695,0-6.695s4.492-1.231,4.146-4.071L598.215,433.514z"/>
	<path fill="#47EADA" stroke="#FFFFFF"   d="M603.744,489.837c0,0-6.368-6.22-12.439,4.838l-6.565,8.293c0,0-2.419,6.911,6.565,5.183l8.984,0.277
		c0,0,2.419-2.005,3.455-5.115c0,0,5.529,2.073,6.565-5.874C610.309,497.439,609.618,492.256,603.744,489.837z"/>
	<path fill="#47EADA" stroke="#FFFFFF"   d="M701.732,578.295c0,0-6.075,0.346-6.075,2.419l3.037,3.801l8.366,6.911c0,0,2.419-1.728,1.728-6.565
		L701.732,578.295z"/>
	<path fill="#47EADA" stroke="#FFFFFF"   d="M740.577,605.938c0,0-1.037-3.801-5.183-4.146c0,0-9.675-2.764-11.057,2.073v8.984h4.146l10.366-3.801
		L740.577,605.938z"/>
	<path fill="#47EADA" stroke="#FFFFFF"   d="M522.542,744.154c0,0-2.764-2.764-3.455,0l-1.728,2.419l2.591,2.419l-2.591,2.419
		c0,0-3.801,0.836-3.801,1.627c0,0.792,0,5.975,0,5.975s2.419-0.346,4.492,2.419c0,0,4.838,4.492,8.984,3.11l5.529,0.264v3.191
		c0,0,2.419,1.728,4.492,1.728s3.836-0.691,4.337-4.838l-1.918-5.529l-4.492-3.033h-3.455l-4.051-3.287v-6.465L522.542,744.154z"/>
	<path fill="#47EADA" stroke="#FFFFFF"   d="M491.443,729.296h-6.22l-2.073,4.492c0,0-1.728,8.255,0,9.138s7.947,4.338,11.057,2.956l2.073-5.183
		L491.443,729.296z"/>
	<path fill="#47EADA" stroke="#FFFFFF"   d="M477.276,491.219c0,0-12.785-3.11-16.24,0l-7.947,7.042c0,0-3.801,1.942-2.419,5.052l7.256,10.021
		c0,0,5.183,0.555,8.293-4.906c0,0,0-0.068,3.455,0c0,0,7.602-1.989,9.33-6.835c0,0,2.073-0.092,3.11-3.332
		C482.113,498.261,481.124,491.975,477.276,491.219z"/>
	<path fill="#47EADA" stroke="#FFFFFF"   d="M561.242,753.038c0,0-5.529,0.254-5.183,3.287c0,0,3.11,5.797,5.183,6.834c0,0,0.346,3.455,3.801,3.455
		c0,0,3.455-2.519,2.764-6.788l-1.037-6.788L561.242,753.038L561.242,753.038z"/>
	<path fill="#47EADA" stroke="#FFFFFF"   d="M704.468,612.849c0,0,3.11-5.71,6.22-5.922l3.628,2.961c0,0,3.11,2.27,0,4.343c0,0-3.982,1.894-5.404,1.814
		c-1.224-0.069-4.443-2.073-4.443-2.073"/>
</g>
</svg>
