<?xml version="1.0" encoding="utf-8"?>
<!-- Generator: Adobe Illustrator 26.5.0, SVG Export Plug-In . SVG Version: 6.00 Build 0)  -->
<svg version="1.1" id="Korea" xmlns="http://www.w3.org/2000/svg" xmlns:xlink="http://www.w3.org/1999/xlink" x="0px" y="0px"
	 viewBox="0 0 530.8 903" enable-background="new 0 0 530.8 903" xml:space="preserve">
<g id="Southkorea">
	<path id="Gangwon" fill="#62BFEA" stroke="#CAD7E0" stroke-width="0.25" d="M295.1,422.8c-0.9,6.1-13.1,12.3-14.9,13.8
		s-11-3.4-13.9-1.3c-2.9,2.2-4.7,1.3-5.3-0.5c-0.7-1.8-14.6,0.1-14.6,0.1s-0.2-0.6-2.9,1.8c-2.8,2.3-9-2.2-10.1-1.8
		c-1.1,0.4-6.4,2-8.8,0.8c-2.3-1.2-5,1-6,1.6s-3-0.6-3-0.6c-0.3,0.2-0.6,0.4-0.9,0.5c-0.3,0.2-0.6,0.4-0.8,0.5
		c0.3,0.4,0.7,1,0.9,1.5c0.4,1.1,0,5.4,3.2,3.1c0,0,0.8,0.4,0.7,0.8c0,0.5-0.2,1.1,0.3,1.5c0.5,0.3-0.1,1,0.2,1.5
		c0.3,0.6,0.2,1.2,0.8,0.9c0.6-0.3-0.7,1.7,2,3.4c0,0,0.3,1,0.7,0s2.4-0.6,2.4-2.6c0,0,1.2-1,2.2,0.1c0,0-0.6,0.6-0.5,1.6
		s-1.8,1-0.1,3.4l1.3-0.1c0,0,0.6,2,1.3,1.9s0.8,1.4,1.1-0.3c0,0,1.8-0.4,2.3-1.4s-0.3,0.5,1.6,0.3c0,0,0.5,1.8,2,0
		c0,0,0.8-0.6,0.9,5.1c0,0,0.3-0.2,0.5,0.7c0.2,0.9,0.1,2.8,1.2,3.2c1.2,0.4,1.4-0.2,1.9,0.4s2.4,0.1,2.4,0.1s0,2.8,1.1,3.1
		c1,0.2,3.1,0.4,3.2,1.2c0.1,0.8,0.5,0.8,0.7,1c0.2,0.3,0,0.9-0.1,1.2c-0.1,0.3,0.6,3.7-0.6,3.9c-1.2,0.3-2.3,0.8-2.3,0.8
		s0.1,0.7-0.2,0.9c-0.3,0.1-2.9,1.4-2.7,2.5c0,0,1.5,1.1-0.1,3.2l1.4,2.5c0,0-1.4,1.7-2.1,2.1c-0.7,0.3-0.6,2.1,0.1,1.5
		c0.7-0.6,0.7-0.7,2-0.1c0,0,0.5-1.1,1-0.7c0,0,0.1,6.9-1.6,6.9c0,0,1.4,1.6,1.8,1.3c0.5-0.3,1.2-0.2,2-1.1s0.7-0.7,1.6-0.1
		c0.9,0.6,2.1,1.9,2.4,1.8c0.3-0.1,0.6-0.2,0.8,0.2c0.2,0.5,2.1,1.4,2.3,2.6c0,0,2.7-0.6,5.5,1c0,0,0.3-1,1-0.1s0.6,1.2,1.6,1.4
		c1,0.2,1.7,0.5,1.5,1.1s-0.5,1.1-1.4,1.2c-1,0.1-0.9-0.3-1.5,0.6c0,0-0.4,0.2-1.2,1.3c-0.7,1-1.1,0.6-1.5,1s-0.6,0.4,0.6,0.9
		s2,1.8,1.7,2.2c-0.3,0.4,0.4,1.4,0.2,2.9c-0.2,1.4-1.4,3.5-1.6,3.7s0,1.1,0.2,1.3c0,0-1.4-0.2-1.1,1.3s-0.1,2.5,0.1,3.1
		s0.9,1.5,0,2.7c0,0,1.3,1.7-0.2,2.6c-1.5,0.9-0.9,2.7-0.7,3c0.2,0.3-0.1,0.7-0.4,0.8c-0.1,0.3,0.4,1.4,0.4,1.4
		c-0.4,0.4,0.1,0.4,0.1,0.4c-0.1,2.8,2.2,3.4,2.2,3.4l0.6,0.5l1.8-0.3l0.5-0.3c1.4,0.3,1.6-0.5,1.8-0.6c0.2-0.1,0.3,0.3,0.3,0.3
		l0.5-0.5c1.7-0.4,2.4,0.8,2.4,0.8l0.7-1.4l1,0.2c1.4-2.1,0-4.6,0-4.6c-0.7-1.9,4-3.2,4-3.2s-0.3-0.5,0.1,0c0.3,0.5,0.9,0.3,0.9,0.3
		c1.5,0.4,2.4,3.1,2.4,3.1c-0.9,1.2,0,2.1,0,2.1c2.2,0.4,3.6-0.9,3.6-0.9c3-0.5,2.2-2.8,2.2-2.8c1,0.1,1.9,1.4,1.9,1.4
		c1.9,0.7,1.5-1.3,1.5-1.3l2.2-1.4c2,2.5,2.9,1.7,2.9,1.7c0.3,1,1.1,1.6,1.1,1.6l3.2-1.2l1.1,0.5c-0.5,0.3-0.2,1.4-0.2,1.4
		c-1.6,0.3-1.3,1.1-1.3,1.1c-1.3,0.1-0.8,1.4-0.8,1.4c-1.3-0.4-1.9,0.3-2,1.2c0,0.9,2.3,1.9,2.3,1.9c2.4-3.1,4.1-1.4,4.1-1.4
		c-0.1-0.7,0.9-0.1,0.9-0.1c1-1,1.7,1,1.7,1l-0.4,1c2.7,0.8,1.5,1.8,1.8,2.2c0.4,0.4,0.7-0.6,0.7-0.6l2.5,0.1l1.4-1.2l1.5,2
		c0.5-0.6,2.6,1.2,2.6,1.2c0.5-0.7,1.4,0.4,1.4,0.4c0.5-0.2,1.9,0.3,1.9,0.3l1.3-0.5l0.7,1c0.2,0.1,0.4,0.2,0.6,0.3l0,0
		c0.2,0.1,0.4,0.2,0.5,0.3l0,0l0,0c0.3,0.2,0.6,0.4,0.6,0.4c1.9,0.3,1.3,1,1.7,0.7c0.4-0.3,1.4,1.1,1.6,1c1-0.9,2.8,0.8,2.8,0.8
		c1.5-0.8,0-2.3,0-2.3l0.4-1.1c0.9,0.4,1-0.8,1-0.8c0.5,0.2,0.1-1,0.1-1l1.7,0.5c-0.5,0.9,2,0.6,2,0.6c-0.2,0.7,1.1,2,1.2,2.1
		c0.1,0,1.9,0.5,1.9,0.5c-0.2-1.1,1.1,0,1.1,0l0.3-1c0.5-0.1,1.5-2.8,1.5-2.8l1.4-0.5c1.3,2.2,0.2,1.1,2.9,1
		c2.7-0.1,5.2,1.8,5.2,1.1c-0.1-0.7,0.5-1.7,0.5-1.7c2-1.8,2.4-0.5,2.4-0.5c0.8-0.2,1.4,0.8,1.4,0.8c2.2-0.1,4,3.5,4,3.5
		c1.9-1.1,3.5,0.3,3.5,0.3l-0.6-0.9c0.3-0.7-0.4-2.1-0.4-2.1c0.5-1.5,2.4-2.5,2.4-2.5s0.4-2.6,1-1.6s1.2,0,1.2,0
		c0.5-1.7,2.8-2.1,4.3-2.1c-0.2-0.6-0.3-1.2-0.2-1.9c0.5-5.5-0.3-6-3-8.8c-2.8-2.8-5.5-11.7-8.3-14.2s-6.3-9.5-6-11.5
		s-3.5-5.5-3.6-9.3s-14.6-15.5-16.1-19.3s-5.5-7.8-6.6-10.8s-2.9-3.5-2.9-3.5s-2.6-8.3-3-10.4s-7.1-15.3-9-17.1s0.4-2.8-0.3-3.3
		s-5.8-12-6.6-13.3c-0.2-0.3-0.3-0.6-0.4-1l-3.4,2.6L295.1,422.8L295.1,422.8L295.1,422.8L295.1,422.8L295.1,422.8z"/>
	<path id="Jeonbuk" fill="#62BFEA" stroke="#CAD7E0" stroke-width="0.25" d="M170.7,681c1.2-0.1,1.9,1.6,1.6,2.6
		c-0.3,1-0.9,0.3-0.8,1.1c0.1,0.8,1.4,0.4,1,1.5s0.1,1.2,0.1,1.2c0.4-0.8,0.8-1.2,1.1-0.7s1,1.1,0.4,1.9c-0.6,0.8-0.1,0.5,0.3,1.8
		c0.4,1.3,0.9,0.7,1.9,0.3s1,0.1,1.5,0.3c0.5,0.1,0.5,1,1.1,0.6s-0.9-1.2-0.6-2c0.3-0.8,0.7,0.1,1.1-0.3c0.4-0.4,0.3-0.7,1.5,0.4
		c1.1,1,1.9,0.1,1.9,0.1c0.7,0.2,0.9-1.3,1.3-1.8c0.4-0.6,1,0.5,1.4,0s1-0.3,1-0.4s-0.1-1.3,0.4-1s1.4,0.1,1.6-1.5
		c0.2-1.6-1.1-1,0.4-1.8s1-1.6,1.2-2s-0.7-1.4-0.9-1.8c-0.1-0.4,0.2-0.1,1-0.8s-0.2-0.8,2.1-0.9c2.2-0.1,1.9,0.3,2-0.6
		c0.1-1,0.1-1,1-0.5s0.7,0.6,0.5,1.2c-0.2,0.6,0.6,0.2,0.6,0.2c1.7,0,0.4-0.1,2.7,1.4s0.3,1.1,1.1,1.7s-0.4,0,0.2,0.9
		c0.6,0.8,1.2-0.1,1,1.2c-0.3,1.3,1.9-0.6,1,0.5s3.4,0.6,3-0.1c-0.4-0.7-0.6-2.5-0.1-2.1s1.3-1.3,1.6-1.6c0.3-0.2,0.3-1.5,0.4-1.3
		c0.1,0.3,0.7,0.3,1.3-0.1c0.6-0.4,0.9-0.5,0.9,1.4s0.2,0.8,0.9,1.4c0.7,0.6-0.1,0.4-0.2,1.6c-0.1,1.2,0.2,0.8-1.1,0.9
		c-1.3,0.1,0.4,1.5,0.4,1.5s0.2,1.2,0.9,0.4c0.7-0.9,0.6,0.1,1,0.9c0.4,0.8-0.3,1.1,0,1.2c0.3,0.1,0.4-0.2,0.2,0.8
		c-0.2,1.1-1,0.3-1,0.3c-0.7,0.2,0.2,0.3-0.2,0.8s-0.9,1.2,0.1,1.3s0.7,0.8,1.1,0.5c0.4-0.3,1.3,0.3,2,0.7s2,0,2-0.1
		s-0.2-0.4,0.6-0.5s0.5,0.2,1-0.8s1.9-1.3,1.9-1.3c0.2-0.7,0.9-0.6,0.5,0.1c-0.4,0.8,2.7,1.9,2.4,0.9s0.4-2,1.6-0.3
		c1.2,1.7,3.4,0.8,3.6,1.1c0.2,0.3,1.3,1,1.8,0.4c0.6-0.7,0.9-0.6,1.8-1c1-0.4,0.9,0.5,1.5,0.3s0.2,0.8,0.8,0.9
		c0.6,0,2.3-3.7,3.2-4.7s0.2,0.3,1.5-0.2c1.3-0.6,2.1-0.2,2.4,0.1c0.3,0.4,0.6-0.5,1.1,0.1c0.4,0.5,3.9,3.3,5,4
		c0.1,0.1,0.1,0.1,0.2,0.1c0.8,0.4,1.2-0.5,1.8-1.1l0,0c0.1-0.1,0.2-0.2,0.3-0.2c0.9-0.5,0.7-1.8,0.1-2.2c-0.6-0.5-0.1-1.6,0.6-2
		c0.7-0.4,0.3-2.4,1.6-2.6c1.4-0.2,0.9-2.2,1.6-2.8s-1-0.9-1.7-1c-0.7-0.2-0.9-2-0.1-2.4c0.8-0.5,0.8-0.8,0.3-1.4
		c-0.5-0.6-1-2.1-1.4-2.5s0.5-0.5-0.2-0.6s-0.3,0.4-1.5-0.8c-1.3-1.1-1.1-2.1-0.4-2.5c0.8-0.4,1.2-1.1,1-1.9
		c-0.2-0.9,0.4-1.2,1.2-1.7s0-1.5-0.4-2.2s0.5-2,0.8-2.1c0.4-0.1,0.5-1.1,0.6-2.3s1.6-0.9,1.1-1.6c-0.4-0.7,0.7-1.7,0.2-3.4
		c-0.4-1.7,1.2-1.5,1.2-1.5c0.1-0.7,0.6-1.5,1.7-1.8c1.1-0.3,1.5-1.7,1.8-3.1c0.3-1.3,1.3-1.2,2.1-0.8s1.7-1.4,2.3-1.4
		c0.6,0,1.1,0.4,1.5-0.7c0.4-1.1,1.9,0.1,1.7-0.6c-0.2-0.7,1-3,1-3.1c0.1-0.1,1.1,0.4,1.2-0.5c0-0.1,0-0.1,0-0.2
		c0-1.2,0.2-0.9,1.2-1.7s1.1-1.3,0.2-2.2c-0.6-0.7-1.3-3.9-1.6-5.4l-0.1,0.1c0,0-0.6,0.4-1.6-1.4c0,0-3.3,0.9-4.1,1.8
		c0,0-2.7,0.8-2.1-0.2c0,0-0.5-1.3-1.5-0.6c0,0-0.5-0.8-0.8-0.2c-0.3,0.7-0.2-0.7-1.3-0.5s-1-1.4-0.9-1.9c0.1-0.6-1.5-0.3-1.6,0.6
		c-0.1,0.9,0.1,1.7-0.9,0.3c-0.1-0.2-0.2-0.3-0.3-0.5l0,0c-0.5-0.8-0.7-1.2-1.1-1.3c-0.1,0-0.2,0-0.3,0c-0.7,0.1-1.2-0.1-0.8,2.4
		c0,0,0.9,0.1,1.2,0.8c0,0-0.3,0.1-0.7,0.3s-1.2-0.3-0.9,0.6c0.3,0.8,0.1,1.9,0.1,1.9s-1.5-2.5-2.2-2.3c-0.7,0.3-0.7,0.3-0.9-0.1
		s-2.6-1-2.6-1s0.8,0.7,0.2,3.1c-0.5,2.4-1.8,1.6-2.4,1.1c0,0,0.1,1.6-1.9,0.2c0,0-0.8,1.2-1.8-1.5c-1.1-2.7,0.1-1.9-1.7-1.1
		c-1.8,0.9-0.7,1.4-2.3-0.2c-1.6-1.6-1.5-3.2-1.4-4c0-0.8-1.2-2.7-0.6-3.4c0,0-0.9-2.6-2-1.7c-1.1,0.8-0.2,1.3-1.3,0.6
		s0.4,0.7-1.1,1s-2,0.2-2.1-0.2c0-0.5-1.1,1-0.5,1.6c0.6,0.7-0.3,1.6-1-0.1c0,0-0.8-0.6-1.6-0.3s-0.5,1.6-1.4,0.6s-1.3,1.5-1.8,0.5
		c-0.4-1.1-2.5,0.4-2.2,1.7c0,0-0.9,0.2-1.4-0.4c-0.5-0.6-0.9,0.2-1.3-0.2c-0.4-0.4-1.8-1.5-1.8-1.5s0.2-3.2-1.4-4.6
		c0,0,0,0.5-0.8,0.6s-0.5-1-1.6-0.9s-1.6,0.8-2.3,0.2s0-1.3-2.1-0.3c-2.2,1-2.2,0.9-2.7,0.7s-1.9,1.9-1.9,5.3c0,0-0.1,1.4-1.9,2.1
		c-1.7,0.7-2.3,1.6-2.5,1.7c-0.2,0.1-2.5-0.2-3.1,0.6c-0.6,0.7-1.1,1.5-0.6,1.9c0.3,0.3-0.5,0.7-1.6,0.8c0.4,0.9-0.2,1.7-0.8,1.5
		c-0.8-0.3-14.4,1.3-14.3,1.9s2.1,0.4,4.1,0.6s2.8,3,2.1,4.6s1.4,1.6,2.5,0.3s0.3,0.9,3.1,0.6s4.6-1.9,5.6-2.4s-0.3,0.8,0.5,1.9
		s-3.1,1.4-1.5,4c0,0-3.3-1.8-4.3-0.5s2.9,1,3.4,3.2s1.5,0.5,2.3,0s-1.4,2.5-0.6,3.7s-3,0.6-2.8-1.6s-2.1-0.3-2.3,0.5
		s-4.4-2-4.8-1.1s1.6,3,0.9,3.6s-2,1.4-2.4,3.1s-9.1,5.5-9.8,7.4s-0.3,2.7,1.4,2.3s-1.1,1.9,8.3,1.5c0,0,3.8-1,3.8-0.7
		c0,0.2,0,2.6,0.5,3.1s-2.8-1.6-4.8,0.8s-5.9-0.8-8.9,4.9c-0.9,1.7-1.7,2.7-2.2,3.4C168.6,680.3,169.8,681,170.7,681z"/>
	<g id="Gyeongbuk">
		<path fill="#62BFEA" stroke="#CAD7E0" stroke-width="0.25" d="M422.7,509.1c0,0-1.2-5-3.6-3.6s-5.4,1.6-5.2,3.6
			c0.2,2,4.2,5.4,7.2,4.2S422.7,509.1,422.7,509.1z"/>
		<path fill="#62BFEA" stroke="#CAD7E0" stroke-width="0.25" d="M427.9,513.3c0,0,0.5-1.6-0.4-1.8c-0.9-0.2-1.6-0.9-2.1-0.4
			c-0.4,0.5-0.3,2.3,0.7,2.7S427.9,513.3,427.9,513.3z"/>
		<path fill="#62BFEA" stroke="#CAD7E0" stroke-width="0.25" d="M379.2,625.4c0,1.5-8,12.8-8.7,8.5s-1.2-1.3-2.7-3.2
			s3.5-5.5,3.5-5.5c-3.7-2-3.8-12-4.2-16.5c-0.3-4.5,2.8-7.3,4.2-10.3s0.5-11.2-0.8-13.5s1.2-7.5,1.2-7.5c1.8,0.8,4.1-5.2,1.3-11.3
			c-2.8-6.1-2.9-14.3-2.9-14.3c2.4-9.6-4.6-12.4-6-16.7c-1.1-0.7-3.5-0.4-3.9,1.4c0,0-0.6,1-1.2,0s-1,1.6-1,1.6s-1.9,1-2.4,2.5
			c0,0,0.7,1.4,0.4,2.1l0.6,0.9c0,0-1.6-1.5-3.5-0.3c0,0-1.8-3.7-4-3.5c0,0-0.6-1.1-1.4-0.8c0,0-0.4-1.4-2.4,0.5
			c0,0-0.6,1.1-0.5,1.7c0.1,0.7-2.5-1.3-5.2-1.1c-2.7,0.1-1.6,1.2-2.9-1l-1.4,0.5c0,0-1,2.6-1.5,2.8l-0.3,1c0,0-1.3-1-1.1,0
			c0,0-1.8-0.4-1.9-0.5c-0.1,0-1.3-1.4-1.2-2.1c0,0-2.5,0.3-2-0.6l-1.7-0.5c0,0,0.4,1.2-0.1,1c0,0-0.1,1.2-1,0.8l-0.4,1.1
			c0,0,1.5,1.5,0,2.3c0,0-1.8-1.7-2.8-0.8c-0.2,0.2-1.2-1.3-1.6-1s0.2-0.5-1.7-0.7c0,0-0.2-0.2-0.6-0.4c-0.5,1-1.5,2.8-2.5,1.5
			c-1.3-1.8,0.4,0.8-1.2,0.6c-1.6-0.3-2.1,0.9-2.1,0.9s1.3,0.6-0.7,2.5s-2.1,0.2-2.9,2.1c-0.8,1.9-1.9,1.1-2.7,2.1s0.2,0.8-1.1,1.6
			c-1.2,0.8,0.1,1.6-0.8,2.7c-0.8,1.1-1,0.4-1,2.1c0,0,1.7-0.3,1.5,2.6c0,0-1.8,2.4-1.8,2.7s-1.7-0.5-2.9,0.2
			c-1.2,0.7-0.5,1.1-2.6-0.2s-3.5-1.7-3.7-3.4l-2.6-1.3c0,0-0.8,0.5-0.6,1c0.2,0.6,0.8,0.9-1.2,0.9l-0.1,2.9c0,0-3.5-0.5-4.7-1.4
			s-0.9,0.5-1.7,0.7s-0.8,0.8-0.7,1.4c0.1,0.6-0.6-0.7-1.1,0.4c-0.5,1.1-0.7-0.2-1-0.8c-0.2-0.6-1.3-0.4-1.3-0.4l-1.9,5.7
			c0,0,1.7,1,1.6,1.7c0,0,2.3,1.3,1.1,1.5c-0.1,0-1.7,0.7-3.9-1.6c0,0-0.6,1.4-1.9,1s-1.6-2.8-2.3-0.5c-0.7,2.3-0.6,1.5-1.1,1.5
			c-0.4,0-0.4,1.8-0.8,1.5s-2.5-0.2-3,0.6s0.3,0.2,0.7,0.1c0.4-0.2,1.6,0.2,1.7,0.8s0.7-0.2,1,0.8c0.3,0.9,0.5,0.5,0.3,1.6
			c-0.2,1,0.4,1.2-0.3,2.2c-0.7,0.9-0.7,0.9-0.7,0.9s-0.6-1.7-1.5-1.7s-0.8-3.3-1.6-2.1c-0.7,1.2-0.9,1.7-1.3,1.6
			c-0.4-0.1-0.5,0.7-0.2,1.1c0.3,0.4,0.5,0.4-0.2,0.7c-0.7,0.4-1.2-0.5-1.7,0s-2,0.6-1.6,1.3s-0.2,1.3,1.7,2c0,0,1.8-0.2,2.5,0.7
			s0.7,0.4,0.7,1.3c0,1,0.1,1.2,0.9,1.4s1,0.1,1.1,1.4c0.1,1.3,0.3,1.3-0.7,1.3c-1,0.1-1.4-0.6-1.1,0.7c0.3,1.4,0.7,2.3,0.3,3.4
			c-0.4,1.1-0.6,1.7,0.1,2.1c0.7,0.3-1.8,2.1-0.7,2.8c1.1,0.7,0.9,1.4,0.8,1.7c-0.1,0.4,0.9,0.7,0.4,1.6c-0.5,0.9-0.5,0.8-1,0.9
			c-0.5,0.1-2.4,2.3-1.9,3.1s0.4,3.1,1,3c0.5-0.1,1.8,0.1,2.1-0.6c0.2-0.7,1.2-2.4,1.2-1.5s0.1,0.9,0.1,0.9s3,1.9,3,2.4
			s0.9,0.5,1.1,0.2s2.1-1.4,2.5-1.4c0.4,0.1,2.9,0.8,2.3,1.5s-1,1.5-0.5,1.9c0.6,0.3,0.2,1,0.7,1.2s1,1.2,0.6,1.4
			c-0.4,0.1-0.7,0.7-1.6-0.2c-0.8-0.8-2.8-0.4-3.3,0.4c-0.5,0.8-0.9,0.5-0.2,1.3s0.1,1.2,1.1,2.2c0,0-1,1-0.5,2.1s-1.2,0.1-1.5,1.7
			c-0.3,1.6-0.8,1.8-0.5,2.6s0.2,1.5-0.7,1.9c-0.8,0.5-0.2,1-1.3,0.8c-0.1,0-0.3,0-0.4,0h-0.1c-0.1,0-0.2,0.1-0.3,0.1
			s-0.1,0.1-0.2,0.1c-0.1,0.1-0.2,0.1-0.3,0.2c-0.1,0-0.1,0.1-0.2,0.1c-0.1,0.1-0.2,0.1-0.3,0.2c-0.1,0.1-0.2,0.1-0.3,0.2
			c-0.1,0.1-0.1,0.1-0.2,0.2c-0.1,0.1-0.2,0.2-0.3,0.3l-0.1,0.1c-0.1,0.1-0.2,0.2-0.3,0.3c0,0,0,0-0.1,0.1s-0.2,0.3-0.3,0.4
			c0.3,1.5,1,4.7,1.6,5.4c0.8,0.9,0.7,1.4-0.2,2.2c-1,0.8-1.2,0.5-1.2,1.7c0,0.1,0,0.2,0,0.2c0.3,0.2,0.5,0.5,0.5,1.3
			c0,0-0.1,1.1,1,0.7c1.2-0.4,1.4-0.6,1.3,0.1c-0.1,0.7,1.1,0.5,0.6,2.1s0.6,0.5,1.2,0.4s0.7-0.8,0.8,0.1c0.1,0.8,1.2,0.4,1.3,0.1
			c0.2-0.3,0.5-0.3,0.7,0.3c0.2,0.5,1,2.2,1.7,1.9s1.1-0.9,1.6-0.2c0.6,0.7,1.2,0,1.6-0.4s1.6-0.2,1.8,0.5c0,0,1.1,0,1.3,0.6
			c0.2,0.6,1.2-0.9,1,0.5s0.3,3.1,1.3,2.8s1.1,0.2,1.3,0.8c0.2,0.6,0.1,1.2,0.8,1.4c0.7,0.2,1.3,0.5,1.6,1.8
			c0.3,1.3,0.8,4.7,0.4,4.5c-0.4-0.3-1.2,0.7-1.5,0.9s-1,0-1.1,0.5c-0.1,0.6-0.3,1.5,0.4,1.2c0.7-0.3,1.4-0.6,1.7,0.1
			c0.3,0.7,2.5,0.9,2.7,1.1c0.2,0.2,0.5-0.4,0.3-0.8c-0.2-0.4-0.1-1,1.2-0.1c1.3,1,1.6,0,1.7-0.2s1,0.2,1.3,0c0.3-0.3,1.1,0,1.5,0.5
			s0.9,0,1.1-0.1c0.1-0.1,0.4,0.3,1,0.3c0.5,0,1.1,1.8,0.7,2.2v0.1c0,0,0,0,0.1,0s0.2,0,0.4,0c0.1,0,0.1,0,0.2,0c0,0,0,0,0.1,0
			s0.1,0,0.2,0h0.1c0.01,0,0.02-0.008,0.03-0.01c-0.008-0.015-0.019-0.029-0.026-0.044c0.062-0.006,0.127-0.013,0.194-0.029
			c0.02-0.004,0.04-0.008,0.06-0.013c0.022-0.005,0.045-0.011,0.068-0.016c0.047-0.013,0.084-0.036,0.12-0.06
			c-0.014-0.028-0.042-0.065-0.019-0.074c0.087-0.021,0.123-0.235,0.213-0.268c0.067-0.027,0.134-0.052,0.204-0.077
			c0.038-0.011,0.075-0.031,0.115-0.047c0.067-0.035-0.064,0.006,0.004-0.032c0.089-0.07,0.168-0.144,0.241-0.223
			c0.011-0.016,0.021-0.031,0.033-0.045c0.057-0.068-0.005-0.289,0.036-0.366c0.014-0.03,0.026-0.054,0.036-0.077
			c0.035-0.071-0.133,0.085-0.115,0.002c0.004-0.021,0.01-0.043,0.014-0.062c0.017-0.097,0.018-0.213,0.002-0.328
			c-0.002-0.016-0.01-0.031-0.012-0.044c-0.018-0.1-0.051-0.203-0.096-0.309c-0.016-0.037-0.036-0.077-0.055-0.114
			c-0.047-0.094-0.109-0.19-0.178-0.292c-0.029-0.044-0.055-0.078-0.087-0.121c-0.109-0.145-0.235-0.285-0.391-0.438
			c-2.757-2.649-2.783-2.837-2.287-4.329c0.161-0.488,0.639-0.485,1.245-0.303c0.466,0.128,1.017,0.376,1.566,0.606
			c0.904,0.36,1.786,0.623,2.239,0.113c0.553-1.039-0.24-2.802-1.557-3.444c-1.317-0.641-2.306-1.507-0.896-2.539
			c1.412-1.039-0.075-1.047,0.896-2.169c0.972-1.122,0.435-1.598,1.826-1.405c1.39,0.196,2.629,0.202,2.871-0.921
			c0.243-1.118-2.552-2.45-4.923-2.295c-2.37,0.155-1.569-1.569-1.27-2.169c0.299-0.591,1.682-1.098,1.458-1.636
			c-0.223-0.543,0.703-2.73,2.164-3.289c0.901-0.479,0.301-1.275,1.047-0.897c0.746,0.374,1.566,0.148,1.418,1.27
			c-0.115,0.866-0.126,1.368-0.275,1.566c-0.048,0.135-0.109,0.228-0.211,0.228c-0.03,0-0.049,0.01-0.067,0.021
			c0.057,0.199,0.472,0.564,1.374,0.881c1.28,0.441,1.066,0.863,1.268-0.383c0.201-1.236,1.615-2.313,1.738-3.39
			c0.091-0.789-0.357-1.814-0.346-2.503c0-0.005-0.001-0.011-0.001-0.016c0.002-0.08,0.019-0.149,0.036-0.219
			c0.008-0.029,0.008-0.064,0.02-0.09c0.04-0.109,0.098-0.205,0.195-0.276c0.677-0.494,1.107,1.538,2.093,0.446
			c0.758-0.843,1.184-0.536,1.718-0.807c0.146-0.091,0.299-0.225,0.473-0.463c0.8-1,2-1.9,2.2-1.9c0.046,0,0.172,0.005,0.339,0.006
			c-0.417-0.617-1.014-1.646-0.551-2.351c0.583-0.892,0.216-3.914,0.226-3.588c0.008,0.33-3.06,0.972-3.583,1.419
			c-0.518,0.447-1.184-0.672-0.599-1.419c0.584-0.747,0-1.498-0.151-2.467c-0.147-0.974-0.296-0.902-0.672-1.351
			c-0.371-0.449-0.017-1.792-0.371-2.315c-0.354-0.528-0.078-0.898,0.296-0.971c0.377-0.074,0.733-1.267,0.225-1.197
			c-0.503,0.071-0.819-0.3-1.117-0.898c-0.299-0.598-0.899-0.749-1.571-0.897c-0.67-0.149-0.719,1.724-1.043,1.122
			c-0.321-0.602-0.897-2.394-1.261-3.397c-0.365-1.003-1.491-0.37-2.172,0.407c-0.679,0.777-0.652,0.357-1.568-0.971
			c-0.916-1.327-1.122-2.2-0.45-2.917c0.561-0.596-0.225-1.027-0.975-1.458c0.243-0.449,0.746-1.214,1.35-1.16
			c0.85,0.08,0.672-1.117,0.672-1.117s1.046-1.574,1.792-0.677c0.744,0.897,1.642,1.42,2.388,1.496
			c0.747,0.076,2.905,0.535,3.284,1.57c0.378,1.033,0.45,1.047,1.196,0.749c0.746-0.303,1.571,0.219,2.463,0.372
			c0.896,0.151,3.113,0.495,2.612,1.421c-0.501,0.929-0.583,1.247-0.402,1.708c0.179,0.459-0.079,1.338-0.048,1.805
			c0.033,0.462,0.3,0.371,0.599,0c0.299-0.376,1.453-1.356,1.644-0.939c0.195,0.412,0,1.315,0.451,1.015
			c0.449-0.3,1.568-0.376,1.642-0.075c0.074,0.3,0.375,0.897,0.746,0.897c0.37,0,1.644-0.337,2.237,0.154
			c0.594,0.486,2.16,0.371,2.574,0.297c0.413-0.073,1.234,0.451,1.459-0.297c0.223-0.749,0-0.898,0.599-1.122
			c0.593-0.227,1.316-0.751,2.112-0.526c0.71,0.199,2.133,1.983,3.959,1.096c0.351,0.715,0.669,1.293,1.184,1.676
			c-0.725,0.131-1.836,0.439-1.288,1.039c0.793,0.866-0.449,0.929-0.299,1.857c0.146,0.928-1.49,0.313-1.868,0.238
			c-0.369-0.075-1.151,0.353-0.745,1.346c0.412,0.994-0.755,0.798-0.967,1.569c-0.213,0.768-0.735,0.219-1.417,1.569
			c-0.684,1.347-2.951,0.131-3.362-0.58c-0.406-0.709-0.758,1.144-0.969,0.58c-0.213-0.568-0.513-1.784-0.599-0.974
			c-0.079,0.809-1.463,0.768-1.114,1.387c0.348,0.618,0,1.298-0.629,1.202c-0.635-0.099-0.415,0.78-0.72,1.152
			c-0.304,0.374-0.109,0.709-0.148,1.27c-0.045,0.564-0.719,0.461-0.375,1.199c0.201,0.434,0.119,1.012-0.147,1.451
			c0.103,0.06,0.2,0.127,0.277,0.209c0.5,0.524,2.943,0.211,2.342,2.164c0,0,1.263,1.479,0.853,2.166
			c-0.413,0.695-0.43,1.309,0.055,1.655c0.488,0.354-1.278,1.154,0.033,2.003c1.311,0.841,0.988,1.744,0.996,2.036
			c0.006,0.297,0.168,1.988-0.217,2.618c-0.239,0.4-0.793,0.706-1.43,0.658c-0.391,0.047-0.832-0.072-1.276-0.515
			c-0.113-0.102-0.186-0.159-0.235-0.189c0.078,0.273,1.005,1.576,0.617,1.965c-0.521,0.526-1.304,1.298-0.819,1.8
			c0.484,0.498,0.516,0.777-0.939,2.014l-0.021,0.007c-0.001,0.001-0.002,0.001-0.002,0.002l-1.052,0.383
			c0.023,0.095,0.526,2.184,0.891,2.828c0.375,0.647-0.376,3.542-1.569,3.563c-1.195,0.024-0.997,0.648-1.945,0.994
			c-0.948,0.339-2.532,0.513-1.859-1.268c0,0-0.583-0.838-0.141-1.332c0.443-0.495-1.112,0.774-1.635,0.328
			c-0.523-0.454-1.072-0.496-1.839,0.357c-0.766,0.856-2.625,0.601-2.004,1.715c0.537,0.962,0.3,1.708-0.016,2.134
			c-0.044,0.073-0.088,0.141-0.131,0.199c0,0-0.1,0.1-0.1,0.2c0,0.1,0,0.1,0,0.2c0,0.1,0,0.1,0,0.2c0,0,0,0,0,0.1s0,0.1,0,0.2
			c0,0,0,0,0,0.1s0,0.1,0.1,0.2c0,0.1,0.1,0.2,0.1,0.2s0,0,0,0.1l0.1,0.1l0.1,0.1h0.1c0.3-0.4,0,3.6,0.7,3.5s0.9-0.1,1,0.8
			c0.2,0.8,2.6,3.1,4.6,2.1c2.1-1,1.9-1.2,2.6-0.8s1.3-0.9,1.7,0.2c0.4,1,1,1.4,1.9,1.1c0.9-0.4,4.5,1.9,5.2,0.6
			c0.7-1.3,0.4-1.2,1.3-1.7s1.4-0.8,1.9-0.1c0.4,0.7,0.5-0.3,1-0.8s1.6-2.2,1.5-2.8s0.9,0.6,1.6,0.2c0.7-0.4,1.7-0.6,2.1-0.2
			c0.4,0.4,0.4-0.5,1.8,1s2.5,1,3.1,0.3c0,0,0,0,0.1-0.1c0.4-0.4,0.6-0.7,0.9-1c0.1,0,0.1-0.1,0.2-0.1c0,0,0.1,0,0.1-0.1
			c0.1,0,0.2-0.1,0.2-0.1h0.1c0.1-0.1,0.3-0.1,0.4-0.1c1.3-0.4,0.5-1.6,1.4-1c0.9,0.7,2.1,0.7,1.1-0.8c-0.9-1.5,0.7-3.9,1.2-3.7
			c0.5,0.1,0.3,0.4,1-0.4c0.7-0.8,1-0.2,1.5-0.6c0.5-0.4,1.1-1.6,1.5-0.9c0.4,0.6,2,0.7,2.2,0c0.2-0.6,0.9,0.5,1.8,0
			s0.7,1.2,2.2,1.3c1.4,0.1,1.5,0.3,1.4,1.4c-0.1,1.1-1,2.3,0.2,2.9c1.2,0.6,0.9-0.4,1.5,0.2c0.6,0.6,0.8,0.8,1.3-0.3
			s1.3,0.1,1.6-0.5c0.4-0.6,1.6-1.9,2.6-1.2c1.1,0.7,2.5,0.1,3.5,1.1c0.6,0.6,1.7,0.6,2.6,0.5c0-1.7,0.4-3.7,1.8-5.3
			c3-3.7,1-5.5,1-5.5c2.5-1.2,2.7-8,2-9.5s-1.7-2,1.8-6S379.2,623.9,379.2,625.4z"/>
	</g>
	<path id="Ulsan" fill="#62BFEA" stroke="#CAD7E0" stroke-width="0.25" d="M370.7,660.1c-1-0.9-2.4-0.3-3.5-1.1
		c-1.1-0.7-2.3,0.6-2.6,1.2s-1.2-0.6-1.6,0.5c-0.5,1.1-0.7,0.9-1.3,0.3c-0.6-0.6-0.3,0.5-1.5-0.2c-1.2-0.6-0.4-1.8-0.2-2.9
		c0.1-1.1,0.1-1.3-1.4-1.4c-1.4-0.1-1.2-1.8-2.2-1.3c-0.9,0.5-1.6-0.7-1.8,0c-0.2,0.6-1.9,0.6-2.2,0c-0.4-0.6-1,0.5-1.5,0.9
		s-0.8-0.2-1.5,0.6s-0.5,0.5-1,0.4c-0.5-0.2-2.1,2.2-1.2,3.7s-0.2,1.5-1.1,0.8s-0.1,0.6-1.4,1c-0.2,0-0.3,0.1-0.4,0.1
		c0,0-0.1,0-0.1,0.1c-0.1,0-0.2,0.1-0.2,0.1s-0.1,0-0.1,0.1c-0.1,0-0.1,0.1-0.2,0.1c0,0,0,0-0.1,0c-0.4,0.3-0.5,0.6-0.9,1l0,0
		c1.2,0.5,3.7,2-1.8,4.8c0,0,0.1,1.5,0.7,1.4c0.5-0.1,1.5,0.4,1,1.1c-0.5,0.7,2.9,1.4,4,1.4s0,0.5,1.9,1.1s1.4,1.2,1.9,2.3
		s3.1,4.2,4.7,3.3c1.6-0.8,1.6-0.1,1.4,0.3c-0.1,0.5,0.8,1,1.2,1.6c0,0,0,0.1,0,0.2l0,0c0,0.1,0,0.1-0.1,0.2l0,0
		c0,0.1-0.1,0.1-0.2,0.2c0,0,0,0.1-0.1,0.1l-0.1,0.1c-0.1,0.1-0.2,0.2-0.3,0.3l0,0c-0.1,0.2-0.2,0.3-0.3,0.5l0,0
		c0,0.1,0,0.1,0.1,0.2l0,0l0.1,0.1l0,0c0.1,0,0.1,0.1,0.2,0.1h0.1c0.1,0,0.2,0,0.3,0.1c0.1,0,0.3,0,0.5,0c2.9,0.1,2.8-0.8,3.4,0.6
		c0.5,1.3,0,2.9,2.4,3.5c1.3-0.9,3.1-1.5,2.5-1.7c-0.8-0.3-1-2.2,0-2.8c1-0.7-0.3-4.8-0.3-4.8l1.5,0.8c2.2-5.5-1.3-5.7-2.3-6.3
		c-1-0.7-0.3-2.2,1.3-2.2s3.1,7.2,4.6,5.5s2.3-10.7,2.6-11.5c0.2-0.5-0.3-2.2-0.3-4.3C372.4,660.7,371.3,660.7,370.7,660.1z"/>
	<path id="Busan" fill="#62BFEA" stroke="#CAD7E0" stroke-width="0.25" d="M361.3,684.5c-0.6-1.4-0.5-0.5-3.4-0.6
		c-0.2,0-0.3,0-0.5,0c-0.1,0-0.2,0-0.3-0.1H357c-0.1,0-0.2-0.1-0.2-0.1l0,0c-0.1,0-0.1-0.1-0.1-0.1l0,0c-0.1,0.3-0.3,0.7-0.4,1.2
		c-0.4,2.7-2.4,1.2-3.7,0.9c-1.3-0.4-0.7,1.1-0.9,1.9c-0.2,0.8-0.9,3.4-1.3,3.3c-0.4-0.1-1.5,0.2-2,0.7c-0.6,0.6-2.1-0.6-1.7,0.4
		c0.4,0.9-1.4,1.2-2.1,1.3c-0.8,0.1-2,3.6-2.7,4.2c-0.7,0.5-1.9-0.5-3.2,0.4c-1.3,0.9-1.7-0.4-2,0.3s-1.2,0.5-2,1.1
		c-0.9,0.6,0.9,2.6,0.3,2.8c-0.5,0.2-0.4,0.4,0,1s-0.9,1.7-1,0.6c-0.1-1.1-1.4-0.8-1.4-0.8c-1.1,1.6-2.7-0.6-3.4,0.6
		c-0.6,1.2,2.2,2,2.7,2.7s0.7,1.7,0,2s-1.7-0.4-0.8,0.6c0.8,1-1.6,1.7-1.6,1.7s-0.6,5.6,0.2,6.1c0.8,0.5,2.8,4.8,2.8,4.8
		s5.5-4.8,2.1-8.8c-1.2-1.4-1.9-2.4,0.7-2.4c0,0,3.3,0.4,4.4-1.1c1.1-1.4,0.5,2.1,0.5,2.1c0.1,3.1,3.2,3.1,3.2,3.1v-3.1l1.6,2.3
		l0.7-2.3c0,0,4,4.9,4,1.9s-3-3.1-3-3.1l1.2-1.9c2.5,3.3,5.3,1.5,4.5,0c-1.2-2.2,0.5-3.2,0.5-3.2c4.3,2.5,2.4-3.4,4.1-3.4
		s-0.2-3.7,1-3s1-3.5,2-3.5s-0.8-3-0.8-4.5s3.3,0.7,3.7-1c0.1-0.5,0.6-1,1.2-1.4C361.3,687.4,361.9,685.8,361.3,684.5z"/>
	<path id="Seoul" fill="#62BFEA" stroke="#CAD7E0" stroke-width="0.25" d="M191.9,500.6c0.8,0.4,2.1,1,2.2,1
		c0.1,0.1,0.1,0.7,0.5,0.2s0.8-0.5,1.3-0.2c0.5,0.2,0.1,3.7-0.3,4c-0.4,0.3,0.6,0.7,0.3,1.4c-0.3,0.7,0.4,0,1.1,0.3
		c0.7,0.3,0.8-0.6,1.7-1.4s1.4,1,1.1,1.5c-0.3,0.5,0.8,0.8,0.5,1s0,0.5,0.4,0.9s0.2,0.9,0.8,1.4s1.1-0.7,1.5-1.1s-0.1,0.7,1.3,0.8
		c1.3,0.1,1.2-0.7,1.8-0.8c0.7,0,1.6-2,2.1-1.2s0.9,0.6,1.4,0s0.8,0.7,0.6,1.5s0.6,0.6,0.5,1.1s1.2,0.3,1.5,0s0-0.9,0.3-0.7
		c0.4,0.2,0.8-0.1,1.2-0.9s0.9-1,1.4-0.6s0.5-0.6,0.8-0.5s0.7,0.2,0.6-0.2c-0.1-0.4-0.2-0.7,0.2-0.5s0.7-0.6,0.9-1s0.4-0.1,0.5-1.1
		c0.1-1.1-0.3,0-0.9-0.5c-0.7-0.5-0.3-0.7,0-1s0.7-0.8,0.6-1.2c-0.1-0.4,0.4-1.2,0.9-1.1s0.9-1.1,0.7-1.3c-0.3-0.1-0.5-1.9-0.5-1.9
		s-0.7,0.8-1.9,0.9s-1.4,1-1.4,1c-1.9,0.1-1-1-1.1-1.2s0.7-1.6,0.7-1.6c0.9-2.7-0.5-2.5-0.5-2.5c1.4-1.9-0.1-2.1-0.1-2.1
		c-0.3,0-0.6,0.1-0.6-0.6s-0.2-2.1-0.2-3s-1-0.3-1.3-0.5c-0.2-0.2-0.2,0-0.5,0c-0.4,0-0.8,1.1-0.9,0.6c0-0.5-0.3-0.6-0.7-0.5
		s-0.6-0.2-1-0.5c-0.4-0.4-0.8,0.1-1,0.7c-0.2,0.5-0.3,0.6-0.7,0.9s-0.1,1-0.4,1.3s-0.9-0.1-0.3,1.5c0.6,1.6-1.2,1.3-1.5,1.3
		s-0.4-1.8-0.8-2.1c-0.3-0.3-0.9,0.5-1.2,0.5s-0.4,0.6-1,0.4c-0.6-0.1-0.3,1.8-0.7,2c-0.5,0.3-0.4,2.5-0.7,2.7
		c-0.2,0.2-0.6,0-0.8-0.2s-0.4,1.2-0.4,1.2c-0.4-0.4-1.4,0.4-1.4,0.4c-0.8,0.1-2.8-2.2-3-2.6c-0.3-0.4-1-0.2-0.7,0.2
		s-0.9,1.7-0.9,1.7S192,500.5,191.9,500.6z"/>
	<path id="Gwangju" fill="#62BFEA" stroke="#CAD7E0" stroke-width="0.25" d="M207.4,701.9c-2-1.4-2.5,0.7-2.8,0.1
		c-0.3-0.6-0.4-1.3-0.2-1.6s-0.9-0.7-1-1.1c-0.1-0.4-0.3-1-0.7-1.7s-0.5-0.8-0.4-1.3c0.2-0.5-1.5-0.7-1.8-0.9
		c-0.3-0.3-1.2,1.1-2.1,0.9c-0.8-0.2-2,1.3-2.3,1.4c-0.4,0.1-1.1-0.2-1.7,0.5c-0.6,0.7-1.8,0.5-1.8,0.5s-1.8-1.8-2.4-1.6
		c0,0,1.4-2,0.4-1.7s-2.6,1.1-2.7,2.8c-0.2,1.7,0,0.9-0.4,1s-1.3,0.4-1.6-0.2c-0.3-0.6-0.8,1-0.9,1.4c-0.1,0.4-1.6-0.2-1.5,0.5
		s0.7,1.3,0.8,1.8s-0.7,0-0.9,0.9s-0.6,1.1-0.2,1.4s0.4,1.1,0.1,1.9c-0.2,0.8-0.1,0.6,0.6,0.7c0.7,0.1,0.3,1.2,1.3,0.5
		c1.1-0.7,1.7,0.4,1.7-0.2c-0.1-0.6,1.6,0.7,1.7,0.1s0.8,0.7,1.2,0.6c0.5-0.1,0.2,0.6,0.7,0.8s-0.1,0.8,0.7,1.3
		c0.7,0.5-0.1,0.8-0.4,0.7c-0.3-0.1-0.8,0.1-0.5,0.6s1.2-0.7,1,0.2c-0.2,0.8,0.5,0.9,1.2,0.5c0.8-0.4,0.8-0.4,1.2,0.1
		s1.1-0.1,1.2-0.3c0.1-0.2,1.5-0.5,2-1.2c0.4-0.7,0.7-0.5,1.1-0.4s0.9,0,1.3-0.3s1,0.3,1.3-0.2s0.8-0.6,1.1-0.5s0.8,1.4,1.8,1.4
		c1-0.1,1.2-0.7,1.1-1.1c-0.1-0.4,1-0.6,1.1-0.6s1.7-0.8,1.5-1.5s0.7-1.3,0.8-1.4c0-0.1,0-1.1-0.2-1.4c-0.2-0.3,0.4-0.8,0-1.1
		C206.9,703.9,209.4,703.3,207.4,701.9z"/>
	<path id="Gyeonggi" fill="#62BFEA" stroke="#CAD7E0" stroke-width="0.25" d="M209.7,553.6c0,0,2.1-1.1,2.4-0.9
		c0.3,0.2,0.6,0.3,1-0.2s1.1,0.2,1.1,0.2c0.9-0.8-0.1-1.2-0.1-1.2c0.7-1.8,2.4-0.8,2.4-0.8c1.5-1.3,4,1.2,4,1.2s-1.2,0.1,0.1,0
		c1.2-0.1,0.7,2.1,1.4,1.8c0.7-0.2,2,1.3,2,1s1-0.7,0.9-0.2c0,0.6,0.7,0.3,0.9,0.4c0.2,0.1,0.9,1.7,0.9,1.7c0.2,0.2,1.5-1.1,0.8-2.3
		s1.8-0.3,2.6-1.6s1.9-0.7,2.4-0.5s-0.2-0.6,1.3-1.3c1.5-0.6,0-0.5-0.3-1.8s2.8-1.6,2.8-1.6c3.8-2.4,1.4-0.5,1.8-3.1
		c0.5-2.6,2.4,0,3.3-0.9c0.9-0.9,1.9-0.5,2.7,0.3s1.6,0.1,1.3-0.2c-0.3-0.4,0.2-2.6,1.2-2.1s1.6,0.4,1.3,0s-0.3-1.3,0.2-1.1
		s0.8-0.6,1.4-0.7c0.6-0.1,0.5-3.4,0.5-3.4c-0.3-0.3-0.4-1.4-0.4-1.4c0.7-0.6,1.8,0.9,2,1.1s1.1,0.3,1.1,0.3
		c0.5,0.3,1.2-0.3,1.2-0.3s-0.1-1.1,0.1-1.1c0.3-0.1,0.4-0.1,0.4-0.7c0-0.6,0.8-1.8,0.9-1.8c0.1,0,0.7-0.3,0.7-0.3
		c0.2-1.7,1.1-2.6,1-2.3c0.3-0.1,0.6-0.5,0.4-0.8s-0.8-2.1,0.7-3s0.2-2.6,0.2-2.6c0.9-1.3,0.2-2.1,0-2.7c-0.2-0.6,0.2-1.6-0.1-3.1
		s1.1-1.3,1.1-1.3c-0.1-0.2-0.4-1.1-0.2-1.3s1.4-2.3,1.6-3.7s-0.5-2.5-0.2-2.9s-0.5-1.7-1.7-2.2s-0.9-0.5-0.6-0.9s0.7,0,1.5-1
		c0.7-1,1.2-1.3,1.2-1.3c0.7-0.8,0.6-0.5,1.5-0.6c1-0.1,1.2-0.7,1.4-1.2c0.2-0.6-0.6-0.9-1.5-1.1c-1-0.2-0.9-0.5-1.6-1.4
		s-1,0.1-1,0.1c-2.8-1.6-5.5-1-5.5-1c-0.2-1.2-2.1-2.1-2.3-2.6s-0.5-0.3-0.8-0.2c-0.3,0.1-1.5-1.2-2.4-1.8c-0.9-0.6-0.7-0.9-1.6,0.1
		c-0.8,0.9-1.6,0.8-2,1.1c-0.5,0.3-1.8-1.3-1.8-1.3c1.6-0.1,1.6-6.9,1.6-6.9c-0.5-0.4-1,0.7-1,0.7c-1.3-0.6-1.3-0.5-2,0.1
		s-0.8-1.2-0.1-1.5s2.1-2.1,2.1-2.1l-1.4-2.5c1.7-2.1,0.1-3.2,0.1-3.2c-0.2-1.1,2.3-2.4,2.7-2.5c0.3-0.1,0.2-0.9,0.2-0.9
		s1.1-0.5,2.3-0.8s0.5-3.6,0.6-3.9s0.3-1,0.1-1.2c-0.2-0.3-0.6-0.2-0.7-1c-0.1-0.8-2.2-1-3.2-1.2s-1.1-3.1-1.1-3.1s-1.9,0.5-2.4-0.1
		s-0.7,0-1.9-0.4s-1.1-2.2-1.2-3.2c-0.2-0.9-0.5-0.7-0.5-0.7c-0.2-5.7-0.9-5.1-0.9-5.1c-1.5,1.8-2,0-2,0c-1.9,0.2-1.1-1.3-1.6-0.3
		s-2.3,1.4-2.3,1.4c-0.3,1.7-0.5,0.2-1.1,0.3c-0.7,0.1-1.3-1.9-1.3-1.9l-1.3,0.1c-1.6-2.4,0.3-2.4,0.1-3.4c-0.1-1,0.5-1.6,0.5-1.6
		c-0.9-1.1-2.2-0.1-2.2-0.1c-0.1,2.1-2,1.7-2.4,2.6c-0.4,1-0.7,0-0.7,0c-2.6-1.7-1.4-3.7-2-3.4c-0.6,0.3-0.5-0.4-0.8-0.9
		c-0.3-0.6,0.3-1.2-0.2-1.5s-0.3-1-0.3-1.5s-0.7-0.8-0.7-0.8c-3.2,2.3-2.9-2-3.2-3.1c-0.2-0.5-0.6-1.1-0.9-1.5
		c-0.6,0.4-1.1,0.7-1.6,1l0,0c-0.5,0.3-0.9,0.7-1.4,1l0,0c-0.4,0.3-0.8,0.6-1.2,0.9l0,0c-0.4,0.3-0.7,0.6-1,0.9l0,0
		c-1.9,1.6-2.8,3-3.3,4.2l0,0c-0.1,0.2-0.1,0.4-0.2,0.6l0,0c-0.1,0.2-0.1,0.4-0.1,0.6l0,0c0,0.2-0.1,0.4-0.1,0.6l0,0
		c0,0.2-0.1,0.4-0.1,0.6l0,0c0,0.2,0,0.4-0.1,0.6c0,0.2,0,0.4-0.1,0.6c-0.4,3.5-0.3,2.2-4.9,4.7c-4.6,2.5,0.4,1.8-3.3,6.9
		s-12.1,7.3-12.1,7.3c0.5,1.2,0.2,6.5,0.1,8.5c1.2-0.6,2.9-0.9,3.3-2c0.4-1.2,2-2.9,2.2-2.4c0,0-1.5,2.4-1.3,3.5s-3.3,1-3.8,1.9
		c-0.4,0.9-0.3,7.3-0.1,9s1,3.8-0.2,3.7c-1.2-0.1-1.3,0.1-1.4-2.8c-0.1-2.8,1-5-1.3-3.7s-5,1.2-6.3,0.5s-1.7,1.3-1.3,4.8
		c0,0,1,8.7,1.7,10.5c0.5-0.6,2.6-2.6,3.5-2.5c1.1,0.1,1.7,0.3,2.3-0.8c0.5-1,1.8-2.3,2.2-1.9s0.7-1.6,1.5-0.5
		c0.8,1,3.2,2.9,3.3,3.6s1-1,1.6,0s3.2,0.8,3.2,0.8s1.1-1.3,0.9-1.7s0.5-0.6,0.7-0.2c0.3,0.4,2.3,2.6,3,2.6c0,0,1-0.8,1.4-0.4
		c0,0,0.2-1.4,0.4-1.2c0.2,0.2,0.6,0.5,0.8,0.2c0.2-0.2,0.2-2.4,0.7-2.7c0.5-0.3,0.1-2.2,0.7-2c0.6,0.1,0.7-0.4,1-0.4
		s0.9-0.9,1.2-0.5c0.3,0.3,0.4,2.1,0.8,2.1c0.3,0,2.1,0.2,1.5-1.3c-0.6-1.6,0-1.1,0.3-1.5c0.3-0.3,0-1,0.4-1.3
		c0.5-0.3,0.5-0.4,0.7-0.9s0.6-1,1-0.6s0.6,0.7,1,0.5c0.4-0.1,0.7-0.1,0.7,0.5s0.5-0.6,0.9-0.6s0.3-0.2,0.5,0s1.3-0.4,1.3,0.5
		s0.2,2.3,0.2,3s0.3,0.6,0.6,0.6c0,0,1.5,0.2,0.1,2.1c0,0,1.4-0.2,0.5,2.5c0,0-0.7,1.3-0.7,1.6s-0.8,1.3,1.1,1.2c0,0,0.2-0.8,1.4-1
		c1.2-0.1,1.9-0.9,1.9-0.9s0.3,1.7,0.5,1.9c0.3,0.2-0.1,1.4-0.7,1.3c-0.5-0.1-1,0.7-0.9,1.1s-0.3,0.9-0.6,1.2c-0.3,0.3-0.7,0.5,0,1
		s1-0.6,0.9,0.5c0,1.1-0.3,0.7-0.5,1.1s-0.5,1.2-0.9,1s-0.3,0.1-0.2,0.5s-0.3,0.3-0.6,0.2c-0.3-0.1-0.3,0.9-0.8,0.5
		s-1.1-0.1-1.4,0.6c-0.4,0.8-0.8,1.1-1.2,0.9s-0.1,0.4-0.3,0.7c-0.3,0.3-1.6,0.5-1.5,0s-0.7-0.4-0.5-1.1c0.1-0.7-0.1-2.1-0.6-1.4
		c-0.5,0.6-0.9,0.8-1.4,0s-1.5,1.2-2.1,1.2c-0.7,0-0.5,0.9-1.8,0.8s-0.9-1.2-1.3-0.8c-0.4,0.4-0.9,1.6-1.5,1.1s-0.4-1-0.8-1.4
		c-0.4-0.4-0.7-0.7-0.4-0.9c0.3-0.2-0.8-0.5-0.5-1s-0.3-2.2-1.1-1.5c-0.9,0.8-1,1.7-1.7,1.4c-0.7-0.3-1.4,0.4-1.1-0.3
		c0.3-0.7-0.7-1.1-0.3-1.4s0.8-3.7,0.3-4c-0.5-0.2-0.9-0.3-1.3,0.2c-0.4,0.5-0.4-0.1-0.5-0.2c-0.1,0-1.4-0.7-2.2-1
		c-0.1,0.1-0.6,0.9-0.6,0.9c-0.2,0.4-0.1,2.6-0.6,2.8c-0.5,0.2-0.8,1.1-0.1,2.3c0.7,1.2,2.7,0.9,2.1,2.9c-0.7,2-5.1,7.5-5.8,7.3
		c0.1,1.4-1,2.6-0.5,3.9s4.4,3.6,6.5,3s-1.8,1.4-1.3,2.8s-2-0.8-1.9-1.8s-4.4,1.6-5.5,1.8s-1-0.2-0.6,1.8s-0.5,3.8-1,4.1
		s-0.5,1.3,0.8,1.8s-0.3,2.9,2.5,1s-2.6,4.4-0.6,4.6c2,0.1,2.8-1.8,4.8-3.6s4.1-1.7,4,0s2.5,0.4,1,1.9s-9.1,7.9-4.3,8.3
		c4.9,0.4,1.4,2.3,1.1,2.8s2.3,0.6,2.9,2.6s1.8,1.6,3.5,2.3c1.8,0.6,1.1,2,1.1,2.8s2.3-2.1,4.8-2s0.4-2.1,0.5-3.9
		c0.1-1.8,1.8-2.9,3.1-0.5c0,0,0.9,1-0.4,1s-1.6-2.5-1.5,1.5c0,0.3,0,0.6,0,0.8C207,552.5,209.7,553.6,209.7,553.6z"/>
	<path id="Jeju" fill="#62BFEA" stroke="#CAD7E0" stroke-width="0.25" d="M199.5,826.7c-3,0.8-5-3.9-7-3.4s-17.8,5.3-18.3,4.5
		s-3.6-0.3-3.4,1.3s-1.4,0.8-1.4,0.4s-1.3-0.3-1.6,0.9s-1.3,0.5-1.3,0s-1.3-0.4-1.9,0.5s-3.6-0.3-3.9,0.8s-0.8,3.3-1.5,2.4
		s-3.3,1.3-2.8,3.1c0.1,0.4-8.4,6.5-4.4,10.6s3.8,3.1,4.4,4.9s4.4-0.3,5.3-1.9s4.6,0.3,5.8-1.1s3.3,0.9,3.3,0.9s1.8-3.5,1.9-2.4
		s-0.3,3,1.5,2.3s3.6-1.6,5.1-0.6s3.1-1.5,4.9-1.6s5,0,6.6-1.4s2.3-1.7,4-1.5c1.8,0.2,7.8-6.8,7.3-9.7S202.5,826,199.5,826.7z"/>
	<path id="Daegu" fill="#62BFEA" stroke="#CAD7E0" stroke-width="0.25" d="
		M300.661,664.43c-0.067,0.038,0.064-0.004-0.004,0.032c-0.039,0.016-0.077,0.035-0.115,0.047c-0.069,0.025-0.136,0.05-0.204,0.077
		c-0.09,0.033-0.126,0.247-0.213,0.268c-0.033,0.013,0.06,0.098,0.026,0.104c-0.067,0.016-0.13,0.032-0.195,0.046
		c-0.02,0.005-0.039,0.009-0.06,0.013c-0.067,0.016-0.132,0.023-0.194,0.029c0.201,0.426,0.685,0.763,1.84,0.078
		c2.026-1.203,1.513-0.159,2.111-0.835c0.597-0.677,0.95-1.579,1.847-1.497c0.896,0.072,1.551-0.028,1.898,0.345
		c0.348,0.369,1.409-0.361,1.756-0.958c0.318-0.544-0.814-1.147,0.567-2.261c0-0.081,0.053-0.098,0.07-0.164
		c0.017-0.077,0.046-0.139,0.089-0.178c0.373-0.375,0.784-1.199,0.164-2.309c-0.62-1.114,1.238-0.859,2.004-1.715
		c0.767-0.853,1.316-0.811,1.839-0.357c0.523,0.446,2.077-0.824,1.635-0.328c-0.442,0.495,0.141,1.332,0.141,1.332
		c-0.673,1.781,0.912,1.607,1.859,1.268c0.948-0.345,0.75-0.969,1.945-0.994c1.193-0.021,1.944-2.917,1.569-3.563
		c-0.373-0.658-0.895-2.845-0.895-2.845l1.08-0.375c1.454-1.237,1.423-1.516,0.939-2.014c-0.485-0.502,0.299-1.273,0.819-1.8
		c0.523-0.524-1.347-2.715-0.3-1.794c1.049,0.92,2.241,0.516,2.624-0.124c0.385-0.63,0.223-2.321,0.217-2.618
		c-0.008-0.292,0.315-1.195-0.996-2.036c-1.311-0.849,0.455-1.649-0.033-2.003c-0.486-0.346-0.469-0.96-0.055-1.655
		c0.411-0.687-0.853-2.166-0.853-2.166c0.6-1.953-1.843-1.64-2.342-2.164c-0.078-0.082-0.174-0.149-0.277-0.209
		c0.266-0.439,0.348-1.017,0.147-1.451c-0.344-0.737,0.33-0.635,0.375-1.199c0.038-0.562-0.156-0.897,0.148-1.27
		c0.305-0.372,0.085-1.251,0.72-1.152c0.629,0.097,0.976-0.584,0.629-1.202c-0.349-0.619,1.035-0.578,1.114-1.387
		c0.086-0.81,0.386,0.406,0.599,0.974c0.212,0.564,0.563-1.29,0.97-0.58c0.411,0.712,2.678,1.927,3.362,0.58
		c0.682-1.351,1.204-0.801,1.417-1.569c0.212-0.771,1.38-0.576,0.967-1.569c-0.406-0.993,0.376-1.421,0.745-1.346
		c0.378,0.075,2.014,0.689,1.868-0.238c-0.15-0.929,1.092-0.991,0.299-1.857c-0.547-0.599,0.564-0.907,1.288-1.039
		c-0.514-0.382-0.832-0.961-1.184-1.676c-1.825,0.887-3.248-0.897-3.959-1.096c-0.796-0.224-1.52,0.3-2.112,0.526
		c-0.599,0.224-0.375,0.374-0.599,1.122c-0.225,0.748-1.046,0.224-1.459,0.297c-0.415,0.073-1.98,0.189-2.574-0.297
		c-0.593-0.49-1.867-0.154-2.237-0.154s-0.672-0.596-0.746-0.897c-0.074-0.3-1.193-0.224-1.642,0.075
		c-0.451,0.3-0.256-0.603-0.451-1.015c-0.191-0.417-1.345,0.563-1.644,0.939c-0.299,0.371-0.565,0.462-0.599,0
		c-0.031-0.466,0.227-1.346,0.048-1.805c-0.182-0.461-0.1-0.779,0.402-1.708c0.501-0.926-1.717-1.27-2.612-1.421
		c-0.892-0.154-1.717-0.675-2.463-0.372c-0.746,0.299-0.817,0.284-1.196-0.749c-0.378-1.035-2.537-1.494-3.284-1.57
		c-0.746-0.075-1.643-0.599-2.388-1.496c-0.746-0.897-1.792,0.677-1.792,0.677s0.178,1.197-0.672,1.117
		c-0.605-0.055-1.107,0.711-1.35,1.16c0.749,0.431,1.536,0.861,0.975,1.458c-0.672,0.717-0.466,1.59,0.45,2.917
		c0.916,1.327,0.889,1.748,1.568,0.971c0.681-0.777,1.807-1.41,2.172-0.407c0.364,1.003,0.94,2.795,1.261,3.397
		c0.323,0.602,0.372-1.271,1.043-1.122c0.672,0.148,1.272,0.299,1.571,0.897c0.299,0.597,0.614,0.968,1.117,0.898
		c0.508-0.071,0.152,1.123-0.225,1.197c-0.375,0.073-0.651,0.444-0.296,0.971c0.354,0.523,0,1.866,0.371,2.315
		c0.375,0.449,0.525,0.377,0.672,1.351c0.151,0.969,0.735,1.72,0.151,2.467c-0.586,0.746,0.081,1.865,0.599,1.419
		c0.523-0.447,3.591-1.089,3.583-1.419c-0.01-0.326,0.357,2.697-0.226,3.588c-0.469,0.715,0.151,1.763,0.568,2.377
		c-0.124-0.002-0.225-0.004-0.268-0.004c-0.225,0-1.406,0.877-2.24,1.892c-0.832,1.015-1.254,0.154-2.24,1.251
		c-0.985,1.092-1.416-0.94-2.093-0.446c-0.675,0.493,0.221,2.023,0.096,3.105c-0.123,1.077-1.536,2.153-1.737,3.39
		c-0.202,1.246,0.012,0.824-1.268,0.383c-1.279-0.45-1.595-1.002-1.27-1.031c0.328-0.027,0.3-0.544,0.449-1.667
		c0.148-1.123-0.672-0.897-1.418-1.27c-0.746-0.378-0.146,0.418-1.047,0.897c-1.461,0.559-2.387,2.746-2.164,3.289
		c0.225,0.538-1.159,1.046-1.458,1.636c-0.299,0.6-1.1,2.325,1.27,2.169c2.372-0.155,5.166,1.177,4.923,2.295
		c-0.243,1.123-1.481,1.116-2.871,0.921c-1.391-0.193-0.855,0.283-1.826,1.405c-0.972,1.122,0.516,1.129-0.896,2.169
		c-1.41,1.033-0.421,1.899,0.896,2.539c1.317,0.642,2.11,2.405,1.557,3.444c-1.074,1.208-4.552-1.918-5.049-0.416
		c-0.496,1.493-0.47,1.68,2.287,4.329c0.156,0.153,0.283,0.292,0.391,0.438c0.032,0.043,0.057,0.077,0.087,0.121
		c0.069,0.102,0.13,0.199,0.178,0.292c0.019,0.037,0.039,0.077,0.055,0.114c0.045,0.106,0.078,0.209,0.096,0.309
		c0.002,0.013,0.01,0.029,0.012,0.044c0.016,0.116,0.014,0.231-0.002,0.328c-0.004,0.019-0.01,0.041-0.014,0.062
		c-0.017,0.083,0.15-0.073,0.115-0.002c-0.011,0.023-0.022,0.047-0.036,0.077c-0.041,0.077,0.021,0.298-0.036,0.366
		c-0.012,0.014-0.022,0.03-0.033,0.045C300.829,664.286,300.75,664.36,300.661,664.43L300.661,664.43z"/>
	<g id="Jeonnam">
		<path fill="#62BFEA" stroke="#CAD7E0" stroke-width="0.25" d="M260.3,717.2c0.7-1.5-1.1-2.4-1.1-2.8c0-0.4,0.2-2-0.5-1.8
			s-1.7,0-1.7-0.8c0-0.7-0.4-1.3-1.1-1.2c-0.7,0.1-0.8-1-1.6-1.7s-0.2-1.1-0.4-2.2c-0.2-1.1-2-2.7-2.8-2.9c-0.7-0.2-1.1-1.1-1.9-2.1
			c-0.8-1-0.4-2.4-0.3-2.7c0.1-0.3-0.5-2.5-0.5-2.7s0.9-0.4-1-1.6c-1.2-0.8-1.3-2.5-1.3-3.6c-0.1,0-0.1,0-0.2-0.1
			c-1-0.7-4.5-3.5-5-4c-0.4-0.5-0.8,0.3-1.1-0.1c-0.3-0.4-1.1-0.7-2.4-0.1c-1.3,0.6-0.6-0.8-1.5,0.2c-0.8,1-2.6,4.7-3.2,4.7
			c-0.6,0-0.2-1.1-0.8-0.9c-0.6,0.2-0.5-0.8-1.5-0.3c-1,0.4-1.3,0.3-1.8,1c-0.6,0.7-1.6,0-1.8-0.4c-0.2-0.3-2.4,0.6-3.6-1.1
			c-1.2-1.7-1.9-0.7-1.6,0.3c0.3,1-2.8-0.1-2.4-0.9c0.4-0.8-0.2-0.8-0.5-0.1c0,0-1.4,0.3-1.9,1.3s-0.2,0.7-1,0.8s-0.6,0.3-0.6,0.5
			c0,0.1-1.3,0.5-2,0.1c-0.7-0.5-1.6-1-2-0.7s-0.1-0.4-1.1-0.5s-0.4-0.8-0.1-1.3c0.4-0.5-0.5-0.6,0.2-0.8c0,0,0.8,0.8,1-0.3
			c0.2-1,0.1-0.8-0.2-0.8c-0.3-0.1,0.4-0.4,0-1.2s-0.3-1.8-1-0.9c-0.7,0.9-0.9-0.4-0.9-0.4s-1.7-1.4-0.4-1.5s0.9,0.3,1.1-0.9
			c0.1-1.2,0.9-1,0.2-1.6s-0.9,0.5-0.9-1.3c0-1.9-0.3-1.8-0.9-1.4c-0.6,0.4-1.1,0.4-1.3,0.1c-0.1-0.3-0.1,1-0.4,1.3
			c-0.3,0.2-1.1,2-1.6,1.6s-0.3,1.4,0.1,2.1c0.4,0.7-4,1.2-3,0.1c0.9-1.1-1.2,0.8-1-0.5c0.3-1.3-0.3-0.3-1-1.2
			c-0.6-0.8,0.6-0.3-0.2-0.9c-0.8-0.6,1.1-0.3-1.1-1.7c-2.3-1.4-0.9-1.4-2.7-1.4c0,0-0.7,0.4-0.6-0.2c0.2-0.6,0.4-0.7-0.5-1.2
			s-1-0.5-1,0.5c-0.1,1,0.3,0.5-2,0.6c-2.2,0.1-1.3,0.2-2.1,0.9s-1.1,0.4-1,0.8c0.1,0.4,1.1,1.4,0.9,1.8s0.3,1.2-1.2,2
			s-0.2,0.2-0.4,1.8s-1.1,1.7-1.6,1.5c-0.5-0.3-0.4,0.9-0.4,1s-0.6,0-1,0.4s-1-0.6-1.4,0s-0.6,2-1.3,1.8c0,0-0.8,1-1.9-0.1
			c-1.1-1-1.1-0.7-1.5-0.3s-0.9-0.5-1.1,0.3c-0.3,0.8,1.2,1.6,0.6,2s-0.6-0.4-1.1-0.6c-0.5-0.1-0.5-0.6-1.5-0.3s-1.5,0.9-1.9-0.3
			c-0.4-1.3-0.9-1-0.3-1.8c0.6-0.8-0.2-1.5-0.4-1.9s-0.7,0-1.1,0.7c0,0-0.5-0.1-0.1-1.2c0.4-1.1-0.8-0.7-1-1.5
			c-0.1-0.8,0.4-0.1,0.8-1.1c0.3-1-0.4-2.7-1.6-2.6c-0.9,0-2.1-0.6-2.8-1.6c-1.3,1.5-1.8,1.3-1.4,3.7c0.6,3.5,0.9,2.4,2.9,3.3
			c2,0.9-4.8-0.9-4.6,0c0.1,0.9,0.3,2.7-0.4,4c-0.6,1.3-1.3,2.1-0.1,2.3s0.1,1.9-0.6,1.9l-2.2-1.7c0,0-2,3.9-2,5.1s3.2,2.3,3.2,2.3
			l2-1c0,0-1.7,3.8-0.7,4.7c1,0.8,2.5,4.6,3.5,4.6s5.3,0,5.3,0s-4,0.1-3.8,2.3c0.2,2.1-2.8,2-2.8,2l-1.2-2.7c0,0-3.3,1.3-2.7-0.2
			s-1-4.7-1-4.7s-3.5,1.8-3.8,0s-2.4,1.1-1.8,2.1S153,708,153,708l-0.4-2.2c0,0-2,2.2-3.3,2s-0.4,3.9,1,3.8s3.8-0.1,3.9,0.8
			s-0.5,2.1-0.5,2.1s4,1.8,3.6,0s-0.1-4.4,0.9-2.9s2-0.4,1.8-1.4s1.8,0.8,1.8,2.1s1.8,0.9,2.1,0.6s1.9,1.7,1.4,2.3s-3.9,0.7-3.6,1.8
			s-0.1,3.4-0.8,2.1s-2.4-0.9-2.3,0.4c0.1,1.3,1.6,3.9,1.6,3.9l3-0.8c0,0,1.4-4.1,0.5-5.4c-0.9-1.3,1.5-1,1,3.8s1.4,3.4,1.4,3.4
			s1.8,2.5-0.8,3.3s0.9,2.4,0.9,2.4l-2.8,2.4c0,0,3.3,2.2,3.7,1s4,0,4.3,1.3s2.8-1.8,2.8-1.8s1.2-1.3,0.2-2.7s1-3.5,1-3.5l-1-2.5
			l-0.3-3.8c0,0,1.3,7.2,2.3,4.7s1.5-1.8,1.5-1.8l-1.8,5.2c0,0,0.7,4.3,3.5,3.8s1.7,1.7,1.7,1.7s-2.2-1.3-1.8,0.2
			c0.3,1.5-0.8,4-1,1.7s-1.2-3.5-2-3s-3.8,2-2.8,3s-1.8,2.9-2,1c-0.2-2-5.7-3.1-6.7-1s-3,0.8-3,0.8s1.5,2,6,2s3.5,3.5,3.5,3.5
			s3.2,1.2,3.8,1.3c0.7,0.2-0.8,0.7-0.8,0.7s4.7,7.8,0.2,2.5c0,0-2-2.8-4-2s0.2-0.7-2.2-3.5c-2.3-2.8-4.3-0.2-3.8,0.7s-1,2.5-1,2.5
			c2.6,5.8,5.5,4.2,5.5,4.2s1,1.8-1.3,1.7c-2.3-0.2-4.5-3.8-4.8-4.8s-1.5-1.7,0.2-2s-0.7-1-0.7-2.2s-2.3-3.8-3.2-5
			c-0.8-1.2-2.7,6.3-2.7,6.3c-1.8,3.3,0.8,4.5,2,4.2s0.8,1.2-0.5,1.3s2.3,4.3,3,4.5s0-1.5,0-1.5s3,0.3,3.2,1.8s2,3.2,2,3.2v-2.8
			c0,0,2.3-0.3,3.4,0.2s0,4.8,0,4.8s1.8,1.8,0.4,2.3s0.7,3.2,1.3,3.2s3.3,0,1.7,1.2c-1.7,1.2-2,6-1.3,4.8s2.8,0.7,2.8,0.7
			c-2.3,3.7-0.3,3.8,2.3,3c2.7-0.8,3.7-1.5,3.5-2.2s3.3-7.3,3.3-7.3c4.2,0.8,3.3-3.7,5.2-2.5c1.8,1.2,0-2,0-2s1.7-0.2,1-1.7
			s0.2-1.5,0.8-2.5s0-4.2,0-4.2l0.8-4.2c0,0,2.5,4.8,1.2,6.5s-0.2,4.8-0.2,4.8l-1,2c0,0,3.3,0.5,4.2,2s2.5,0.5,2.2-0.5
			s3.5,1.2,3.5,1.2c0.8,1.2,0.8-2.2,1.2-3.4c0.3-1.2,1.5,3.2,1.8,2s2.5-1.8,0.9-2.5c-1.7-0.7,0.5-1,0.7-3.3s2.2-3.5,0.3-3.5
			s-0.3-1,0-2.3s-2.2-1.5-1.8-2.3c0.3-0.8,6-0.5,6-0.5v-3c0,0,2.7,1.5,4.2-1.5s3,0.2,3,0.2s3.7-2.5,3.7-4s1.7-5.2,1.7-2.3
			c0,2.8,1.8,2.3,3,1.3s2.7-0.3,1.7,0.7c-0.9,1-1.7,1.3,0,2.7c1.7,1.3,0.4,2.7-1.1,3s1-2.4-1.2-3.5c-2.2-1.2-4,4.3-3.5,5.8
			s-1.8,2.3-2.1,0c-0.2-2.3-1.6-5.7-1.9,0.5c-0.3,6.2-1.7,4.3-1.7,4.3c-6,3.3,0.3,4.3,0.8,4.3s5.8,2.8,3.8-0.2s-1.1-3.3-1.1-3.3
			c1.9,4.2,6.9,3.8,5.7,5.5s0,2.2,1,4s2.3,1.5,2.3,0.8s-2-3.5,0-2.7s3.8-0.5,3.8-2s2.3-0.5,4-1.8s-1.5-3.2-3-3s-1.8-1.3-1.8-1.3
			s0-0.5,0-1.8s1.5-2.3,1.5,0.2s6.8,1.7,7.5,0.8c0.6-0.8-1.3-6.5-3.8-6.7s-2.2-5.8-3.7-5.7c-1.5,0.2-0.3-2.2-0.7-3.3
			c-0.3-1.2,2.2-2.5,2.7-2.5s-2.7-0.5-1.8-1.3c0.8-0.8,6,0,6.2-1.8s1.8-4.2,1.8-4.2s-0.7,3.3,0.5,3.8s0.3,1.3,0.3,2.5
			s2.5,1.8,3.2,3.5s1.2,4.5-0.7,4.2c-1.8-0.3-1.5,2.2-0.8,3s0.3,3.8,1.3,3.8s2.2-0.2,3.2,2s2.3,3.2,1.3-0.8s-1.2-6.8-0.3-6.8
			s1.3-4.5,2.7-2.3c1.3,2.2,4.3,1.2,5,1.2s-0.8-2-0.2-3.5s1.8-2.5,1.2-7c0,0-3.3,0.3-4.3-0.3c-1-0.7-3.8,4-5.7,1.8
			c-1.8-2.2-2.8-3.3-1.3-3.2c1.5,0.2-0.5-4.7,0.2-5.8c0.7-1.2,1.3,4.7,2.8,4.3c1.5-0.3,3.5-2.2,3.7-2.7s-0.2,2,1,2s5.2-0.8,4.3-2.5
			c-0.2-0.4-0.1-0.6,0.2-0.7C257.7,719.7,259.6,718.7,260.3,717.2z M207.3,704.2c0.4,0.3-0.2,0.9,0,1.1c0.2,0.3,0.2,1.2,0.2,1.4
			c0,0.1-1,0.7-0.8,1.4s-1.3,1.5-1.5,1.5c-0.1,0-1.2,0.2-1.1,0.6c0.1,0.4-0.1,1.1-1.1,1.1c-1,0.1-1.5-1.3-1.8-1.4
			c-0.3-0.1-0.8,0-1.1,0.5s-0.8-0.1-1.3,0.2s-0.9,0.4-1.3,0.3c-0.4-0.1-0.6-0.3-1.1,0.4c-0.4,0.7-1.9,1-2,1.2s-0.7,0.8-1.2,0.3
			c-0.4-0.5-0.4-0.5-1.2-0.1s-1.4,0.3-1.2-0.5s-0.7,0.4-1-0.2c-0.3-0.5,0.2-0.7,0.5-0.6c0.3,0.1,1.1-0.2,0.4-0.7
			c-0.7-0.5-0.1-1.1-0.7-1.3s-0.2-0.9-0.7-0.8c-0.5,0.1-1.2-1.2-1.2-0.6s-1.7-0.7-1.7-0.1c0.1,0.6-0.6-0.5-1.7,0.2
			c-1.1,0.7-0.7-0.4-1.3-0.5c-0.7-0.1-0.8,0.1-0.6-0.7s0.2-1.6-0.1-1.9s0-0.5,0.2-1.4s1-0.4,0.9-0.9s-0.8-1.2-0.8-1.8
			s1.5-0.1,1.5-0.5c0.1-0.4,0.6-2,0.9-1.4c0.3,0.6,1.2,0.3,1.6,0.2c0.4-0.1,0.3,0.7,0.4-1c0.2-1.7,1.7-2.5,2.7-2.8s-0.4,1.7-0.4,1.7
			c0.6-0.2,2.4,1.6,2.4,1.6s1.3,0.2,1.8-0.5s1.3-0.3,1.7-0.5c0.4-0.1,1.5-1.7,2.3-1.4c0.9,0.2,1.8-1.1,2.1-0.9
			c0.3,0.3,2,0.4,1.8,0.9s0,0.7,0.4,1.3s0.6,1.3,0.7,1.7c0.1,0.4,1.2,0.8,1,1.1s-0.1,1,0.2,1.6s0.9-1.5,2.8-0.1
			C209.4,703.3,206.9,703.9,207.3,704.2z"/>
		<path fill="#62BFEA" stroke="#CAD7E0" stroke-width="0.25" d="M142.8,710.7c0.1,0.5,1.2-0.1,2.3,1.3c1.1,1.4,2.4,0.2,2.9-0.6
			s-0.5-1.8-0.5-1.8s0.4,0.2,0.6-2c0.2-2.3,1.3-2.1,2.4-2.4c1.1-0.3,0.9-0.7-0.8-0.7s-2.6,1.2-2.6,1.2s-1.4,2.8-2.4,2.1
			c-1-0.8-2.5,0-2.5,0C141.7,707.9,142.6,710.2,142.8,710.7z"/>
		<path fill="#62BFEA" stroke="#CAD7E0" stroke-width="0.25" d="M150.2,715.1c-1.1-2.4-2.4-1.5-2.4-1.5c-0.7,0.9-1.6,1.9-0.2,1.7
			c1.4-0.2,1.7,3.8,1.1,4.2c-0.6,0.4-1.2,1.7-0.3,1.8s1.1-0.6,1.8-1.4s0.5,1,1.3-0.9C152.3,716.9,151.3,717.5,150.2,715.1z"/>
		<path fill="#62BFEA" stroke="#CAD7E0" stroke-width="0.25" d="M154.2,728.4c-0.8-0.1,0.1,2,1.6,1.8c1.6-0.2,1.3-1.3,2.1-1.1
			s3-0.2,3.2,0.8s-1.2,1.8-0.5,2.1s1.4,0.6,1.9,0.6s0.9-1.3,1-1.8c0-0.6,0.6-2.7-0.4-2.5s-3.5,0.4-2.9-0.7c0.6-1.1,0.9-1.4,1.6-1.1
			c0.7,0.3,1.6-1.6-3-2.6c0,0-1.8-0.1-1.4,0.9c0.4,1,1.9,0.2,1.4,1.1c-0.5,0.9-0.9,1.1-0.7,1.6C158.3,728,155.1,728.5,154.2,728.4z"
			/>
		<path fill="#62BFEA" stroke="#CAD7E0" stroke-width="0.25" d="M153.6,768.6c0.5-1.4,2.3-1.8,2.7-1.7s3.4-1.7,3.4-1.9
			s3.3-0.6,3.4-2.6c0,0,1.5-1.5,0.6-3.4c0,0,1.1-1.1,1.1-2.2c0-1.1-2.1-3.8-2.7-3.8c-0.5-0.1-2.4,0.6-2.5,0c0-0.2-0.3-3.5-3-3.5
			s-1,0.9-1.3,1.8c-0.2,0.9,2,0.8,1.8,2.1s-0.9,1.4-1.2,1s-3.8,0.4-4.7,2.4s-1.2,1.5-1.6,1.8c-0.4,0.3-5.4,3.6-4.6,5.2
			c0.8,1.6,2.2,3.4,2.2,4.4C147.4,769,153.1,770,153.6,768.6z"/>
		<path fill="#62BFEA" stroke="#CAD7E0" stroke-width="0.25" d="M141.1,763.1c0,0,0.2-0.7,1-1.6c0.8-0.8-0.3-2-1.2-2.2
			c-0.9-0.1-0.7,1.8-0.7,1.8C140.1,762.6,141.1,763.1,141.1,763.1z"/>
		<path fill="#62BFEA" stroke="#CAD7E0" stroke-width="0.25" d="M128,747.8c-1,0.5-1.5,0.6-1.5,0.6s-1.4-0.7-1.6,0s0,0.1,0.2,0.9
			c0.2,0.8,1,1.8,1.4,0.9c0.3-0.9,0.5,0.3,1.7-0.4c1.2-0.6,0.9-0.4,0.8-1.1C128.8,748,129,747.3,128,747.8z"/>
		<path fill="#62BFEA" stroke="#CAD7E0" stroke-width="0.25" d="M147,749.3c1.1,0.3,1-0.1,1.8-0.8c0.7-0.6,1.7,0.1,1.7,0.1
			s0.3-0.4,0.7-0.6c0.4-0.2,0.7-0.8-0.3-1.1s-0.6-0.4-0.9-0.8s-0.1-1.5-2.4-1.5c0,0-0.1,1.4-1.9,1.1c-1.7-0.4,0.9,1.9,1.2,1.7
			C147.3,747.2,145.9,749,147,749.3z"/>
		<path fill="#62BFEA" stroke="#CAD7E0" stroke-width="0.25" d="M139.3,742.1c0.1-0.1,0.4-0.3-0.3-0.5c-0.6-0.2-0.7-1.2-1.5-1.6
			c-0.9-0.3-1.1-1.1-1.1-1.1s-1.2,0.4-1.5,1.1c-0.3,0.7-0.7,0.5-0.8,0.4s-1.4,0.4-1.4,0.6c0,0.2-0.2,1.8,0.4,2.2
			c0.5,0.4,0.9-0.1,1,0.4c0.1,0.4,0.3,1,0.9,0.7c0.6-0.3-0.1,0.5,0.5,0.9c0.6,0.3,1.1,0.7,1.6-0.6s1.9-1.5,1.9-1.5
			S139.2,742.2,139.3,742.1z"/>
		<path fill="#62BFEA" stroke="#CAD7E0" stroke-width="0.25" d="M140.1,753c0.5-0.2,0.3-0.3,0.8,0.1c0.4,0.5,1.2-0.1,1.2-0.1
			c0-1.3-0.5-2.7-1.4-3.2s0.3-1.9,0-2.3c-0.3-0.4-2,0.5-2,0.5c0.3,0.6,0,2.2,0.3,2.5s0.4,0.6,0.1,1.3
			C138.7,752.6,139.6,753.2,140.1,753z"/>
		<path fill="#62BFEA" stroke="#CAD7E0" stroke-width="0.25" d="M148.8,733c-0.1,0-0.5,0.3-0.3,0.6s-3.6,0.4-4.3,1
			c-0.7,0.7-0.5,1.1,0.4,1.5c0.8,0.4-0.7,0.4-0.5,0.9s0.1,1.7,1.1,1.7s0.4,1.2,0.5,1.5c0.2,0.3,1,0.5,1.5,0s1.3-0.6,1.3-0.1
			c0.1,0.5,0.4,1.5,0.3,1.7c-0.1,0.3,2,0.8,2.2,0.6c0.2-0.3,0.2-2.6-0.2-3.5s-0.9-2.5-0.4-3.1C150.9,735.3,150.3,733,148.8,733z"/>
		<path fill="#62BFEA" stroke="#CAD7E0" stroke-width="0.25" d="M133.2,740.3c0.8-0.1,1.1-0.5,1.5-1s0.1-0.9-0.2-1.5
			s-0.7-0.5,0.4-1.2c1.1-0.7,1,0,0.8,0.4c-0.2,0.3,0.7,0.4,0.6,0.1c-0.1-0.3,0.4-0.7,0.6-0.4c0.1,0.2-0.1,0.2,0.2,0.5
			s0.6-0.6,1.1-0.5s0.4,0.3,0.6-0.4c0.1-0.7-0.4-0.4-0.7-0.6c-0.3-0.2,0.7-1.4,0.7-2.2s-0.5-0.3-1.3-0.3s-0.5,0.4-0.7,0.4
			s-0.5,0.1-0.4,0.4c0.1,0.3,0.1,0.7-0.7,0.5s-0.5,0.1-1.3,0.7c-0.8,0.5-2.8-0.3-2.8-0.3c0.2,0.3,0.1,0.6-0.3,0.8
			c-0.3,0.2,0.7,0.8,0.1,1c-0.5,0.1,0.5-0.1-0.3,1.2C130.4,739.2,132.4,740.4,133.2,740.3z"/>
		<path fill="#62BFEA" stroke="#CAD7E0" stroke-width="0.25" d="M141.7,722.5c-0.1,0.6-0.8,0.8-1.3,0.8s-0.4,0.9-0.6,0.6
			c-0.2-0.2-0.5,0.5-1,1s-1.8,0.8-1.6,1.2s0.8,0.6,0.5,0.8s0.5-0.5,0.9,0.1s1.3,0.3,1.6,0s0.8,0.8,1.1,0.9c0.3,0.1,0.3,0.5,0.6,0.7
			c0.2,0.2,0.3-0.5,0.6-0.3c0.4,0.2,1.5-1.4,2.1-1.4s0.1-1,0.6-0.8s0.2-0.9-0.1-1.6c-0.3-0.7,0.3-3.8-1.2-3.7c0,0-0.4,0.4-0.7,0
			c0,0-0.2,0.4,0,0.9c0.2,0.4,0.4,0.9-0.2,1.1C142.3,723.1,141.9,721.9,141.7,722.5z"/>
		<path fill="#62BFEA" stroke="#CAD7E0" stroke-width="0.25" d="M144.3,728.8c-0.6-0.3-1,0.9-1.3,0.6c-0.3-0.3-0.7,0-0.7,0
			c-0.2,0.6,0.8,2.9,1.1,3c0.3,0.2,0.6-0.7,0.8,0.5s1,0.8,1.5,0.9c0.5,0,0.7-1.5,0.7-2.4s1.1-0.4,1.5-0.4s0.5-0.9,0.1-1.3
			c-0.5-0.3-0.2-0.5-0.1-0.9c0-0.4,1.1-0.2,0.7-0.5c-0.3-0.4-1.5-1.7-1.5-2.1c0-0.4-0.8-1-0.7-0.5s-1.1,1.4-0.6,1.8
			c0.4,0.4,0.2,1.3,0,1.9C145.7,729.9,144.9,729.1,144.3,728.8z"/>
		<path fill="#62BFEA" stroke="#CAD7E0" stroke-width="0.25" d="M144.2,754.5c0.1-0.8,1.4-2.6,1.4-2.6s-2.3-4.2-3.5-3.9
			c0,0-1.1,0.2-0.7,1c0.4,0.8,0.5,0.5,1,1c0.5,0.4,1.3,2.1,1.2,2.3s-0.4,0.9-0.4,1.1c0,0.1-0.5,0.3-0.7,0.8
			c-0.2,0.6-0.6-0.7-1.2-0.2c-0.6,0.5-2.1,1.4-1.4,2c0.7,0.6,1.9,0.7,2.4,0.3C142.8,755.9,144.1,755.4,144.2,754.5z"/>
		<path fill="#62BFEA" stroke="#CAD7E0" stroke-width="0.25" d="M187.3,766.2c-0.4-0.1-2.4,0.7-3,0.4s-1,4.5,0,5.3
			c1,0.7,1.6,2.7,2.6,2.8s4.5,0.2,4.7,1s0.8,1,0.7-0.2s0.3-1.3-0.6-2.3c-0.9-1-1-1.4-1.5-2.4C189.7,769.6,190,767.2,187.3,766.2z"/>
		<path fill="#62BFEA" stroke="#CAD7E0" stroke-width="0.25" d="M200.5,780.7c-0.1,0.1-0.4-0.1-1.2-0.5c-0.9-0.4-1.9,2.4-1.9,2.4
			c-1,1.8,0.9,2.7,0.8,2.2c0-0.5,0.4-0.5,0.9-0.1s1-0.2,1.5-0.1c0.5,0.1,0.8-2.1,0.2-2.4C200.1,781.9,200.6,780.7,200.5,780.7z"/>
		<path fill="#62BFEA" stroke="#CAD7E0" stroke-width="0.25" d="M221,758.4c-0.1,0.1-2.3,0.2-3,0.8c-0.7,0.5-2.5,0.4-2.8-0.1
			c-0.3-0.4-0.8-0.2-0.8-0.2c0.1,0.5-0.1,1.1-1,1.2s-0.1,0.8,0.1,1.7c0.2,0.9,1.4,1.2,1.6,1.6c0.2,0.3,0.8,1.2,1.5,0.7
			s3.6-0.2,4.3-0.2c0.7-0.1,1.4-2.9,1.9-3.3s0.5-0.4-0.4-1.5C221.6,757.9,221.1,758.3,221,758.4z"/>
		<path fill="#62BFEA" stroke="#CAD7E0" stroke-width="0.25" d="M256.6,748.6c2.1,0.6,4.5,1.8,4.5,1.8v-2.8c0,0,1.4-4.7,0-5.1
			c-1.4-0.4-0.4-4.4-2.1-3.9c0,0-1.6,5.7-2.4,6C255.9,744.9,254.5,748,256.6,748.6z"/>
		<path fill="#62BFEA" stroke="#CAD7E0" stroke-width="0.25" d="M258.6,753c0,0-4,1-3.1,1.9s4.8,4,5,4s2.1-0.6,2.1-0.6
			S258.1,754.4,258.6,753z"/>
		<path fill="#62BFEA" stroke="#CAD7E0" stroke-width="0.25" d="M142.7,770.7c0.1-0.7-2.2,0.1-2.4-0.4c-0.3-0.5-1.5,1-1.5,1
			c-0.3,1.3,1,1.4,1.5,0.5S142.6,771.4,142.7,770.7z"/>
		<path fill="#62BFEA" stroke="#CAD7E0" stroke-width="0.25" d="M142.1,772.3c-0.8-1.1-1.1,1.4-1.1,1.4c-0.4,1.5,0.8,2.2,2.3,1.1
			c1.5-1.1,2.8,0.7,2.3-0.8C145.2,772.7,142.9,773.3,142.1,772.3z"/>
		<path fill="#62BFEA" stroke="#CAD7E0" stroke-width="0.25" d="M141.7,778.2c0,0,0.7,0.8-0.3,0.7c-1.1-0.2,0,1.3,0.8,1.1
			C142.9,779.8,143.8,775.7,141.7,778.2z"/>
		<path fill="#62BFEA" stroke="#CAD7E0" stroke-width="0.25" d="M175.7,783.7c-1.1,0.3-1.5,1.1-2,2.7c-0.5,1.6,3.3,1.3,3.3,1.3
			s1-0.7,1.3-1.8s2.6-0.8,2.4-1.1c-0.2-0.4-2.1-0.7-2.6-0.8c-0.6-0.1,0.8-0.4,0.9-1c0.1-0.6,1.7-0.8,1.9-1s0-2.1-0.9-2
			s-1.2-0.6-2.1-1.3c-0.9-0.7-0.8,1.8-0.8,1.8c-0.5,0.6-0.5,1.4,0,2.6S176.8,783.4,175.7,783.7z"/>
		<path fill="#62BFEA" stroke="#CAD7E0" stroke-width="0.25" d="M182.3,787.7c1.1,0,0.9,0.3,1.4,0.9c0.5,0.6,0.8-0.3,1-1.4
			s1.4-0.6,0.9-1.4c-0.6-0.8-2.2-1.8-1.2-2.1c1-0.4,1.7-0.9-0.7-1.6l-1.6,1c0,0,0.7,0.5,0.8,0.9
			C182.9,784.5,181.2,787.7,182.3,787.7z"/>
		<path fill="#62BFEA" stroke="#CAD7E0" stroke-width="0.25" d="M199.4,770.1c-0.6-0.1-3-1.8-3.6-1.3s-0.3,1.5-0.6,1.5
			c0,0-2,0.1-2.3,0.8s0.9,0.1,2,0.3s0.8,1.1,0.9,2.1c0.1,1.1,2.2-0.6,1.9-1.4s1.4,1,1.3-0.3c-0.1-1.3,1.2-0.8,2-0.8
			C201.9,771.2,200,770.2,199.4,770.1z"/>
		<path fill="#62BFEA" stroke="#CAD7E0" stroke-width="0.25" d="M194.3,764.2c-0.6-0.5-2,0.6-2.5,0.8s-1.3,1.8-1.3,1.8
			c-0.6,1.1,2.9-0.2,1.9,1.2s-0.1,2.4,0.5,1.4c0.5-1.1,2.5-1.1,2.5-1.7c0.1-0.7,1.1-1.7,1-0.8s1.9,0.5,1.9,0.5s2.6-0.9,2-1.1
			c-0.6-0.2-0.8-1.3-1.6-0.7s-1.9,0.2-1.7-0.4C197.3,764.3,194.9,764.6,194.3,764.2z"/>
		<path fill="#62BFEA" stroke="#CAD7E0" stroke-width="0.25" d="M206,770.4c-1-0.2-1.9,1.6-1.9,1.6c-0.5,2,1.8,0.6,3.1,0
			C208.4,771.4,207,770.6,206,770.4z"/>
		<path fill="#62BFEA" stroke="#CAD7E0" stroke-width="0.25" d="M210.4,768.9c-0.9,0.3-0.1-0.6-0.8-1.5c-0.8-0.9-1.5,0.2-1.6,0.7
			c-0.6,2,1.4,1.4,1.3,1.5c-0.1,0.1,1.5,1.7,1.4,0.9s2.9-0.7,2.7-1.5C213.1,768.1,211.3,768.6,210.4,768.9z"/>
		<path fill="#62BFEA" stroke="#CAD7E0" stroke-width="0.25" d="M236.7,761.5c0,0-0.4,2.8,0,3.4s2.9,0.1,3.1-0.4s0.3,0.1,0-0.9
			s1.2-1.8,0.2-2.6S239.6,764.9,236.7,761.5z"/>
	</g>
	<path id="Sejong" fill="#62BFEA" stroke="#CAD7E0" stroke-width="0.25" d="M227,596.6c0.3,0.2,0.6,0.3,0.9,0.1c0,0-0.1,0.5,1.3,0.1
		c0.6-0.2,0.9-0.9,0.8-1.2c0-0.3,0.7-0.8,0.8-1c0.2-0.2,0.7-1.6,0.6-1.7c0-0.1,0.2-0.7-0.1-1.1c-0.2-0.2-0.2-0.6-0.1-0.7
		c-0.4-0.4-0.3-1.1-0.2-1.1c0.1,0.1,1.4-0.9,0.8-1.5c-0.6-0.5-0.3-2-0.4-2.4c-0.1-0.3-1.8-2.8-3-2.6c-1.1,0.2-0.5-2.1-1-2.5
		s-0.1-2-0.4-1.9c-0.3,0-1.7-0.5-1.7-0.5c-1.4,0.3,0.4-1.6,0.4-1.6c2.6-1.5,0.4-3.2,0.4-3.2s-0.8-0.3-2-0.2s-2.3-2.3-3.1-2.1
		c-0.8,0.1,0.1-0.9-2-0.7c0,0-1.3-0.7-1.9-0.1c-0.6,0.6,0.1,0.9-0.8,1.2c-1,0.3-0.8,0.6,0,1.2c0.7,0.6,0.1,1.1,0.7,0.9
		c0.6-0.2,0.5-0.6,0.7,0s0.5,1-0.1,1.7c-0.6,0.6,0.2,0.8,0,1.3s-0.5,0.9-0.1,1.4s0.3,1.7-0.4,1.5c0,0,0.2,1.4,0.9,1.5
		s0.3,0.8,0.8,0.7s0.7,0.5,1.1,0.2c0.4-0.3-0.7,1.3,0.5,1c0,0,0.9,0,1.1,1.4c0.1,1.4,0.3,1.4,0,1.7c0,0-0.3,1.5,0.4,1.3
		c0.7-0.1,0.9,0.5,0.6,0.9c-0.3,0.4-0.3,1.2,0.6,0.7c0.9-0.5,1.7,2.4,0.8,2.2c0,0-0.4,1.2-0.8,1.2s0.4,0.7,0.3,1
		c0,0.3,0.4-0.3,0.7,0.4s0.1,1.1,1.7,0.7c0,0-0.6,0.7,0.1,1.2C226.1,595.9,226.5,596.3,227,596.6"/>
	<path id="Chungbuk" fill="#62BFEA" stroke="#CAD7E0" stroke-width="0.25" d="M317.3,541.8c-0.2-0.1-0.3-0.2-0.5-0.3l0,0
		c-0.2-0.1-0.4-0.2-0.6-0.3l-0.7-1l-1.3,0.5c0,0-1.4-0.5-1.9-0.3c0,0-0.9-1-1.4-0.4c0,0-2.1-1.8-2.6-1.2l-1.5-2l-1.4,1.2l-2.5-0.1
		c0,0-0.3,1-0.7,0.6c-0.4-0.4,0.9-1.4-1.8-2.2l0.4-1c0,0-0.8-2-1.7-1c0,0-1-0.6-0.9,0.1c0,0-1.7-1.6-4.1,1.4c0,0-2.3-1-2.3-1.9
		s0.7-1.6,2-1.2c0,0-0.4-1.3,0.8-1.4c0,0-0.3-0.8,1.3-1.1c0,0-0.3-1,0.2-1.4l-1.1-0.5l-3.2,1.2c0,0-0.8-0.6-1.1-1.6
		c0,0-0.9,0.8-2.9-1.7l-2.2,1.4c0,0,0.4,2-1.5,1.3c0,0-0.9-1.3-1.9-1.4c0,0,0.8,2.3-2.2,2.8c0,0-1.4,1.3-3.6,0.9c0,0-0.9-0.9,0-2.1
		c0,0-0.9-2.7-2.4-3.1c0,0-0.6,0.3-0.9-0.3s-0.1,0-0.1,0s-4.7,1.3-4,3.2c0,0,1.4,2.5,0,4.6l-1-0.2l-0.7,1.4c0,0-0.7-1.3-2.4-0.8
		l-0.5,0.5c0,0-0.1-0.4-0.3-0.3c-0.2,0.1-0.4,0.9-1.8,0.6l-0.5,0.3l-1.8,0.3l-0.6-0.5c0,0-2.3-0.6-2.2-3.4c0,0-0.5-0.1-0.1-0.4
		c0,0-0.6-1.1-0.4-1.4c0.1-0.3-0.8,0.6-1,2.3c0,0-0.6,0.3-0.7,0.3c-0.1,0-0.9,1.2-0.9,1.8s-0.1,0.6-0.4,0.7
		c-0.3,0.1-0.1,1.1-0.1,1.1s-0.6,0.6-1.2,0.3c0,0-0.9,0-1.1-0.3c-0.2-0.3-1.3-1.7-2-1.1c0,0,0.1,1.1,0.4,1.4c0,0,0,3.3-0.5,3.4
		c-0.6,0.1-0.9,0.9-1.4,0.7c-0.5-0.3-0.5,0.6-0.2,1.1s-0.3,0.5-1.3,0s-1.5,1.8-1.2,2.1c0.3,0.4-0.5,1-1.3,0.2s-1.8-1.2-2.7-0.3
		s-2.8-1.6-3.3,0.9c-0.5,2.6,1.9,0.7-1.8,3.1c0,0-3.1,0.3-2.8,1.6s1.8,1.2,0.3,1.8s-0.8,1.5-1.3,1.3s-1.6-0.8-2.4,0.5
		c-0.8,1.3-3.3,0.3-2.6,1.6c0.7,1.2-0.6,2.5-0.8,2.3c0,0,1.8,1,1.6,1.5c-0.2,0.6-0.8,1.8,0.7,1.8s1.1,0.5,1,1.2s-0.3,0.9,0.4,1.2
		c0.7,0.2,0.7-0.3,1.2,0.7c0.4,1,2.8,0.8,2.7,2.2s-0.4,1.1,0.3,1.8c0.7,0.8,1,0.9,0.6,1.3c-0.4,0.5-1.2,1.5-1.3,0.9
		s-0.3-0.9-1.7-1.1c-1.4-0.1-0.6,0.4-1.7,0.6c-1.1,0.1-0.5,0.9-0.2,1.7c0.4,0.8-0.6,0.1-0.9,0c-0.3-0.1-1.3,0.9-1.4,1.3
		c0,0.4,0.2,1.3-0.4,1.5c-0.6,0.2-1,0.8-1,0.8s2.2,1.7-0.4,3.2c0,0-1.8,1.9-0.4,1.6c0,0,1.4,0.5,1.7,0.5s-0.1,1.6,0.4,1.9
		c0.5,0.4-0.1,2.6,1,2.5c1.1-0.2,2.8,2.3,3,2.6c0.1,0.3-0.2,1.8,0.4,2.4c0.6,0.5-0.7,1.5-0.8,1.5c-0.1-0.1-0.2,0.7,0.2,1.1
		c0,0,0.1-0.1,0.2,0c0.4,0,0.7,0.1,1.1-0.6c0.4-0.7,1.4,0.7,1.6,1.1c0.3,0.5-0.5,1.4,0.1,2.4c0,0,2-0.3,2.6,0.3s1.5,0.1,1.5-1.1
		c0-1.2,1.5-1.6,1.4-1.1c-0.1,0.4-0.6,1.4-0.2,1.8c0.4,0.4,1.1-0.2,1.3,0.1c0.2,0.4-1.1,1.3-0.9,1.8c0.2,0.5,1,3,1.4,2.1
		s0.1-1.5,1.5-0.9s0.3,0.6,0.8,0.9c0.4,0.2,1,0.8,0,1.2s-1.4,0.3-1.3,1.8s-0.3,2.6-1,2.3c-0.7-0.2-0.8,1.4-0.6,1.8
		c0.2,0.3-0.8,1.2-0.5,1.6c0.3,0.5-0.4,1,0,1.7s-0.4,1.4-0.5,1.7s0,2.1,0.2,2.2c0,0,0.5,0.9,2.7-0.6c0,0,1.1,1.3,1.4,1.7
		c0.3,0.3,1.2-0.8,1.8-0.3s1.6,1.3,1.2,2.7c-0.5,1.4-0.2,1.1-0.1,1.3c0.1,0.2-0.1,0.8,0.2,1c0.3,0.1,0.1,1.3-0.5,2.3
		c-0.5,1,0.8,2.9,1.1,2.5s0.8,0.9,0.8,1.5s-0.3,0.7,0.3,1c0.5,0.3,1.1,0.6,1,1.6c0.4,0.1,0.6,0.5,1.1,1.3l0,0
		c0.1,0.1,0.2,0.3,0.3,0.5c1,1.4,0.8,0.6,0.9-0.3c0.1-0.9,1.7-1.2,1.6-0.6c-0.1,0.6-0.2,2.1,0.9,1.9c1.1-0.2,1,1.2,1.3,0.5
		c0.3-0.7,0.8,0.2,0.8,0.2c1-0.7,1.5,0.6,1.5,0.6c-0.7,1,2.1,0.1,2.1,0.1c0.9-1,4.1-1.8,4.1-1.8c1,1.7,1.6,1.4,1.6,1.4
		c0.1-0.1,0.3-0.3,0.4-0.5c0,0,0,0,0.1-0.1s0.2-0.2,0.3-0.3l0.1-0.1c0.1-0.1,0.2-0.2,0.3-0.3c0.1-0.1,0.1-0.1,0.2-0.2
		c0.1-0.1,0.2-0.1,0.3-0.2c0.1-0.1,0.2-0.1,0.3-0.2c0.1-0.1,0.1-0.1,0.2-0.1c0.1-0.1,0.2-0.1,0.3-0.2c0.1,0,0.1-0.1,0.2-0.1
		s0.2-0.1,0.3-0.1h0.1c0.1,0,0.3,0,0.4,0c1.1,0.2,0.5-0.3,1.3-0.8s0.9-1.2,0.7-1.9c-0.3-0.8,0.2-0.9,0.5-2.6c0.3-1.6,2-0.6,1.5-1.7
		c-0.5-1.1,0.5-2.1,0.5-2.1c-1.1-1-0.5-1.4-1.1-2.2c-0.7-0.8-0.3-0.4,0.2-1.3c0.5-0.8,2.5-1.2,3.3-0.4s1.2,0.3,1.6,0.2
		s-0.1-1.2-0.6-1.4s-0.1-0.8-0.7-1.2c-0.6-0.3-0.2-1.2,0.5-1.9c0.6-0.7-1.9-1.4-2.3-1.5s-2.3,1-2.5,1.4c-0.2,0.3-1.1,0.4-1.1-0.2
		c0-0.5-3-2.4-3-2.4s-0.1,0-0.1-0.9s-1,0.8-1.2,1.5s-1.5,0.5-2.1,0.6c-0.5,0.1-0.5-2.1-1-3s1.4-3,1.9-3.1s0.5,0,1-0.9
		s-0.5-1.2-0.4-1.6c0.1-0.4,0.4-1-0.8-1.7c-1.1-0.7,1.4-2.5,0.7-2.8c-0.7-0.3-0.5-1-0.1-2.1s0-2.1-0.3-3.4c-0.3-1.4,0.1-0.6,1.1-0.7
		c1-0.1,0.8-0.1,0.7-1.3c-0.1-1.3-0.3-1.2-1.1-1.4c-0.8-0.2-0.9-0.5-0.9-1.4c0-1,0-0.4-0.7-1.3c-0.7-0.9-2.5-0.7-2.5-0.7
		c-1.9-0.7-1.3-1.3-1.7-2c-0.4-0.7,1.2-0.8,1.6-1.3c0.5-0.5,1,0.4,1.7,0s0.4-0.3,0.2-0.7c-0.3-0.4-0.2-1.3,0.2-1.1
		c0.4,0.1,0.6-0.4,1.3-1.6c0.7-1.2,0.6,2,1.6,2.1c0.9,0,1.5,1.7,1.5,1.7s0,0,0.7-0.9s0.1-1.2,0.3-2.2c0.2-1,0-0.6-0.3-1.5
		c-0.3-1-0.9-0.2-1-0.8s-1.3-1-1.7-0.8c-0.4,0.2-1.2,0.7-0.7-0.1s2.5-0.9,3-0.6c0.4,0.3,0.4-1.5,0.8-1.5s0.4,0.9,1.1-1.5
		c0.7-2.3,1,0.1,2.3,0.5s1.9-1,1.9-1c2.2,2.3,3.8,1.6,3.9,1.6c1.2-0.2-1.1-1.5-1.1-1.5c0.1-0.7-1.6-1.7-1.6-1.7l1.9-5.7
		c0,0,1.1-0.3,1.3,0.4c0.2,0.6,0.5,1.9,1,0.8c0.5-1.1,1.2,0.2,1.1-0.4c-0.1-0.6-0.1-1.2,0.7-1.4c0.8-0.2,0.5-1.6,1.7-0.7
		c1.2,0.9,4.7,1.4,4.7,1.4l0.1-2.9c2,0,1.3-0.3,1.2-0.9c-0.2-0.6,0.6-1,0.6-1l2.6,1.3c0.2,1.7,1.6,2.1,3.7,3.4
		c2.1,1.3,1.4,0.9,2.6,0.2s2.9,0.1,2.9-0.2s1.8-2.7,1.8-2.7c0.2-3-1.5-2.6-1.5-2.6c0-1.6,0.1-1,1-2.1c0.8-1.1-0.5-1.9,0.8-2.7
		c1.2-0.8,0.2-0.6,1.1-1.6c0.8-1,1.9-0.2,2.7-2.1c0.8-1.9,0.9-0.2,2.9-2.1c2-1.9,0.7-2.5,0.7-2.5s0.5-1.2,2.1-0.9s-0.2-2.4,1.2-0.5
		C315.9,544.6,316.9,542.8,317.3,541.8L317.3,541.8L317.3,541.8L317.3,541.8L317.3,541.8z"/>
	<path id="Daejeon" fill="#62BFEA" stroke="#CAD7E0" stroke-width="0.25" d="M226.1,600.9c0,0.8-0.5,0.8-0.5,0.8
		c-0.8,0.4,0,1.5,0,1.5c-0.8,0.7-0.8,0.6-1.1,2.9c-0.3,2.3-0.9,1.2-0.7,2.2s2.7,1.9,2.7,1.9c-0.7,0.7-0.3,0.6-0.7,1.3
		c-0.4,0.8,0.4,0.5,0.8,1.6c0.4,1.1,0.7,0.1,0.7,0.1c1.1,0.2,0.8,1.9,1.6,2.1c0.8,0.3-0.1,1.5,0.1,1.6s1-1.4,1.1-2s1.2-0.6,0.9-0.9
		c-0.3-0.3,0.1-2.1,0.3-2.3c0.1-0.2-1-2.5,0.8-2.2s0.1,2.1,1,2.8s0.6,0.8,0.8,1.1c0.3,0.3,0.5,1.1,0.5,1.1s1.4,0.2,1.6,1
		c0,0,1.1,0.7,1.4,0c0.4-0.8,0.3-1.2,0.7-1.1c0.3,0.1,0.6-0.3,0.4-0.6c-0.1-0.3,1.1-0.6,1.5-1.6c-0.1-0.1-0.2-0.2-0.2-0.2
		c-0.2-0.2-0.3-1.9-0.2-2.2s0.9-1,0.5-1.7s0.3-1.2,0-1.7s0.7-1.3,0.5-1.6s-0.1-2,0.6-1.8c0.7,0.2,1.1-0.8,1-2.3s0.3-1.3,1.3-1.8
		c1-0.4,0.4-0.9,0-1.2c-0.4-0.2,0.6-0.3-0.8-0.9c-1.4-0.6-1.1,0-1.5,0.9s-1.2-1.6-1.4-2.1s1.1-1.4,0.9-1.8c-0.2-0.4-0.9,0.3-1.3-0.1
		c-0.4-0.4,0.1-1.4,0.2-1.8c0.1-0.4-1.4-0.1-1.4,1.1s-0.9,1.7-1.5,1.1s-2.6-0.3-2.6-0.3c-0.6-1.1,0.2-1.9-0.1-2.4s-1.3-1.9-1.6-1.1
		c-0.4,0.7-0.7,0.7-1.1,0.6c-0.4,0-0.4,0.4-0.1,0.7c0.3,0.3,0,0.9,0.1,1.1c0,0.1-0.5,1.5-0.6,1.7c-0.2,0.2-0.9,0.8-0.8,1
		c0,0.3-0.2,1-0.8,1.2c-1.4,0.5-1.3-0.1-1.3-0.1c-0.3,0.2-0.6,0.1-0.9-0.1C225,598.5,226,600.1,226.1,600.9z"/>
	<g id="Chungnam">
		<path fill="#62BFEA" stroke="#CAD7E0" stroke-width="0.25" d="M163.6,585.4c0-0.3,1-2.9-1.3-2.5c0,0-2.1,1.5-2.5,2.3
			c-0.4,0.7,0,1.2,0.4,1.6s0,4.1,1,5.2c1,1.1-1.1,3.8-0.1,5.1c1,1.4,1.8,3,2.8,3c0.9,0,3.6,1,3.6,0.3s1.1-2.4,0-3.7
			s-0.8-1.5-0.8-2.3s-0.7-1.1-0.8-1.3s0.3-1-0.8-1.8s-0.3-1.9-0.8-2.3c-0.4-0.4-0.1-1,0.2-1.1s-0.8-0.6-0.8-0.6s0.8-0.4-0.2-1
			C162.6,585.9,163.6,585.7,163.6,585.4z"/>
		<path fill="#62BFEA" stroke="#CAD7E0" stroke-width="0.25" d="M248.8,629.2c-0.4-2.5,0.1-2.2,0.8-2.4c0.1,0,0.2,0,0.3,0
			c0.1-0.9-0.5-1.3-1-1.6c-0.6-0.4-0.3-0.4-0.3-1s-0.5-2-0.8-1.5c-0.3,0.4-1.6-1.5-1.1-2.5s0.8-2.2,0.5-2.3s-0.1-0.8-0.2-1
			c-0.1-0.2-0.3,0.1,0.1-1.3c0.5-1.4-0.6-2.2-1.2-2.7c-0.6-0.5-1.5,0.6-1.8,0.3s-1.4-1.7-1.4-1.7c-1.5,1-2.3,0.9-2.6,0.8
			c-0.5,1-1.7,1.3-1.5,1.6s-0.1,0.7-0.4,0.6s-0.3,0.4-0.7,1.1c-0.4,0.8-1.4,0-1.4,0c-0.2-0.8-1.6-1-1.6-1s-0.2-0.7-0.5-1.1
			c-0.3-0.3,0.1-0.5-0.8-1.1c-0.9-0.7,0.8-2.4-1-2.8c-1.8-0.3-0.6,1.9-0.8,2.2c-0.1,0.2-0.6,2-0.3,2.3s-0.9,0.3-0.9,0.9
			c0,0.6-0.9,2-1.1,2c-0.2-0.1,0.7-1.3-0.1-1.6s-0.5-1.9-1.6-2.1c0,0-0.3,1-0.7-0.1s-1.2-0.8-0.8-1.6s-0.1-0.6,0.7-1.3
			c0,0-2.5-0.9-2.7-1.9s0.4,0.1,0.7-2.2s0.3-2.2,1.1-2.9c0,0-0.9-1.1,0-1.5c0,0,0.5,0,0.5-0.8s-1.1-2.4,0.9-4.3l0,0
			c-0.5-0.3-0.8-0.7-0.8-0.7c-0.7-0.5-0.1-1.2-0.1-1.2c-1.6,0.4-1.5,0-1.7-0.7c-0.3-0.7-0.7,0-0.7-0.4c0-0.3-0.8-1-0.3-1
			s0.8-1.1,0.8-1.1c0.9,0.2,0.1-2.7-0.8-2.2c-0.9,0.5-0.9-0.3-0.6-0.7c0.3-0.4,0.1-1.1-0.6-0.9s-0.4-1.3-0.4-1.3
			c0.3-0.3,0.1-0.3,0-1.7s-1.1-1.4-1.1-1.4c-1.2,0.4,0-1.3-0.5-1c-0.4,0.3-0.6-0.3-1.1-0.2s-0.1-0.6-0.8-0.7
			c-0.7-0.1-0.9-1.5-0.9-1.5c0.7,0.2,0.8-1,0.4-1.5c-0.4-0.5-0.2-0.9,0.1-1.4c0.2-0.5-0.6-0.7,0-1.3s0.3-1.1,0.1-1.7
			c-0.2-0.6-0.1-0.2-0.7,0c-0.6,0.2,0-0.3-0.7-0.9c-0.7-0.6-0.9-0.9,0-1.2c1-0.3,0.2-0.6,0.8-1.2c0.6-0.6,1.9,0.1,1.9,0.1
			c2.1-0.1,1.2,0.8,2,0.7s1.9,2.2,3.1,2.1c1.2-0.1,2,0.2,2,0.2s0.3-0.6,1-0.8c0.6-0.2,0.4-1.1,0.4-1.5s1.1-1.4,1.4-1.3
			c0.3,0.1,1.3,0.8,0.9,0c-0.4-0.8-1-1.5,0.2-1.7s0.4-0.7,1.7-0.6c1.4,0.1,1.5,0.5,1.7,1.1s0.9-0.4,1.3-0.9c0.4-0.5,0.1-0.6-0.6-1.3
			c-0.7-0.8-0.4-0.4-0.3-1.9c0.1-1.4-2.3-1.2-2.7-2.2s-0.4-0.4-1.2-0.7c-0.7-0.2-0.5-0.5-0.4-1.2s0.5-1.2-1-1.2s-0.9-1.3-0.7-1.8
			c0.2-0.6-1.6-1.5-1.6-1.5s-0.7-1.6-0.9-1.7c-0.2-0.1-1,0.1-0.9-0.4c0-0.6-0.9-0.1-0.9,0.2s-1.3-1.3-2-1c-0.7,0.2-0.1-1.9-1.4-1.8
			c-1.2,0.1-0.1,0-0.1,0s-2.6-2.5-4-1.2c0,0-1.7-1-2.4,0.8c0,0,1,0.4,0.1,1.2c0,0-0.7-0.7-1.1-0.2c-0.4,0.5-0.7,0.4-1,0.2
			s-2.4,0.9-2.4,0.9s-2.7-1.1-3.8,0.1c0.2,3.2,0.6,3.6-1,3.5c-1.8-0.1-2.8-0.3-3,0.6s-1-0.1-3,1.4s-4.1,1.5-2.5,3s0.8,2.6-2.4,0.5
			c-3.1-2.1,0.8-0.9,0.5-2.3c-0.3-1.4-1.1-5.1-1.6-6.6s-2.6-4.4-3.9-3.3c-1.3,1.1-1.8,0.8-1.8,2.8s-1.3-0.1-0.1-2.6
			s-1.5-3.1-3.1-1.4c-1.6,1.7-0.9,2.1-3.3-0.3c0,0-3.9-4.5-5.5-3.6s-1.4-3.8-3.5-1.5s-0.5,6.6,1.4,6.5s-2.3,0.9-1.5,3.5
			c0,0-1.7-1.1-0.8-2.6c1-1.5-8.8-6.5-9.6-1c0,0,3.4,0.7,2.9,1c-0.5,0.2-3.9,0.2-2.6,1.4c1.3,1.1,2.3,2.8,4.1,2.1
			c0.4-0.1,0.6-0.2,0.7-0.3c0,0,0,0,0.1,0c0,0,0,0-0.1,0c-0.2,0.1-0.7,0.6-0.1,1.5c1,1.6,0.1,1.5-0.9,2.9s-1.9-0.5-2.3,1.5
			s-1.3,2.3-1.1,0.8s-2.3-0.4-1.6,1.3c0.6,1.6,0.5,2.4-0.8,2.4s-1.5,0.4-0.9-2.6s3.6-2.9,2-5.3c-1.6-2.4-2.2-11.7-2.4-2.1
			c0,1.3-1.8,3.1-2.3,3.9c-4.2,5.3-1-2.1-1-2.1s-4.4-0.2-4.1,3.6c0,0,1.8,1.7,0.8,2.5c0,0-0.5,0.4-0.5,1.3c0,0.9-1.1-1.2-0.7-2.5
			c0.4-1.3-2.6-0.1-2.3,1s-0.3,3.3-0.8,4.2c-0.6,0.8-1.7,1.1-1,2.4c0.7,1.3,1.4,1.3,0.4,2.3c-1,1.1,1.1,2.8,1.3-0.2s1.3-3.4,2.3-1.8
			c1,1.6,3.9,3.2,2.8,4.3c-1.1,1.1-2.8-1.6-3.8-0.5s-0.7,3.1,0.4,3.3c1.1,0.2,5.1-2.7,5.8-3.3c0.7-0.7,1.1,0.8,1.2,2.3
			s1.3,2.7,1.5,2.8c0.3,0.1,0.2,2.7-0.7,3.7c-0.8,1,0.4,3.3,1.5,1.3s2.3-2.9,2.8-2.7s-0.6-3.9,0.2-2.9s1.1,4.3,1.8,4.3
			s4.3,0.3,4.3,0c-0.1-0.3-0.1-9.3,0.9-6.9c1,2.3,2,4.4,3.2,4.7s-1.8,0.6-2.2,0.2c-0.3-0.4,0,7,0.6,8.3s-0.5,2.3,0.8,6.6
			s1.5,0.9,2.8,0s-1.5,4.1-2.8,4.1s0.3,2.1,2.1,3.6s0.1,3.9-0.6,3.3s1,4.8,2.1,4.6s-0.8,3.6-0.5,5.6s1.9-0.1,3.3,0s-6.4,3.9-5.9,5.4
			s1.1-1.9,2.8-0.4s2.6,1.4,3.8,1.4s0.4,0.9,1.3,2s2.5,1,3.4,1.8s2,2.9,0.8,3.4s-3.5,0.5-3.9,0.9s-0.3,1.9,1,1.9s6-1.1,7.1,0
			c0.2,0.2,0.4,0.5,0.5,0.7c1-0.1,1.9-0.5,1.6-0.8c-0.4-0.4,0-1.2,0.6-1.9s2.9-0.5,3.1-0.6c0.2-0.1,0.8-1.1,2.5-1.7s1.9-2.1,1.9-2.1
			c0-3.3,1.4-5.4,1.9-5.3c0.5,0.1,0.6,0.3,2.7-0.7c2.2-1,1.4-0.3,2.1,0.3c0.7,0.6,1.2,0,2.3-0.2c1.1-0.1,0.8,1,1.6,0.9
			s0.8-0.6,0.8-0.6c1.5,1.4,1.4,4.6,1.4,4.6s1.4,1.2,1.8,1.5c0.4,0.4,0.8-0.5,1.3,0.2c0.5,0.6,1.4,0.4,1.4,0.4
			c-0.4-1.2,1.7-2.7,2.2-1.6c0.4,1.1,0.9-1.5,1.8-0.5s0.6-0.3,1.4-0.6c0.8-0.3,1.6,0.3,1.6,0.3c0.7,1.8,1.6,0.8,1,0.1
			s0.5-2.1,0.5-1.6s0.6,0.6,2.1,0.2c1.5-0.3,0-1.8,1.1-1c1.1,0.7,0.1,0.3,1.3-0.6c1.1-0.8,2,1.7,2,1.7c-0.6,0.7,0.6,2.6,0.6,3.4
			s-0.2,2.4,1.4,4c1.6,1.6,0.6,1.1,2.3,0.2c1.8-0.9,0.6-1.6,1.7,1.1c1.1,2.7,1.8,1.5,1.8,1.5c2,1.5,1.9-0.1,1.9-0.1
			c0.6,0.4,1.9,1.2,2.4-1.1c0.5-2.4-0.2-3.1-0.2-3.1s2.4,0.6,2.6,1s0.3,0.4,0.9,0.1c0.7-0.3,2.2,2.3,2.2,2.3s0.2-1-0.1-1.8
			s0.5-0.4,0.9-0.6c0.4-0.2,0.7-0.3,0.7-0.3C249.7,629.3,248.8,629.2,248.8,629.2z"/>
	</g>
	<g id="Incheon">
		<path fill="#62BFEA" stroke="#CAD7E0" stroke-width="0.25" d="M155.2,489.4c-0.1-0.1-0.2-0.3-0.3-0.4c-0.4-0.7-0.7-1-0.7-1.1
			c-0.4-0.4-0.9-0.1-1.5,0.5c-0.4,0.5-0.7,0.9-0.7,1.1s0.1,0.3,0.2,0.5c0.1,0.1,0.4,0.4,0.4,0.4l2.2,0.1l0.3,0.1l0.1-0.5V489.4z"/>
		<path fill="#62BFEA" stroke="#CAD7E0" stroke-width="0.25" d="M192.7,509.5c0.7-2-1.3-1.7-2.1-2.9c-0.7-1.2-0.4-2,0.1-2.3
			c0.5-0.2,0.4-2.4,0.6-2.8l0.1-0.2l2.3-3c0,0-2.6,0.2-3.2-0.8s-1.5,0.7-1.6,0s-2.6-2.6-3.3-3.6c-0.8-1-1.1,1-1.5,0.5
			c-0.4-0.4-1.7,0.9-2.2,1.9s-1.2,0.8-2.3,0.8c-0.9,0-2.9,2-3.5,2.5c0.1,0.1,0.1,0.3,0.2,0.3c0.3,0.3,2.4,1.6,2.4,1.6s0.3,5.1,1,6.6
			s2-0.1,2.3,2.1c0.3,2.3-1.4,1.5-1.3,3.2s6.1,1.8,6.3,3.2C187.5,516.9,192,511.5,192.7,509.5z"/>
		<path fill="#62BFEA" stroke="#CAD7E0" stroke-width="0.25" d="M169.5,502.2c-2.3,1.8-0.9,2.9-0.9,2.9c3.7,0.8,3.7-2.9,2.9-3.1
			s-0.6-1.3-0.7-1.6c-0.1-0.3-1.4,0.7-1.4,0.7C170.5,501.5,169.5,502.2,169.5,502.2z"/>
		<path fill="#62BFEA" stroke="#CAD7E0" stroke-width="0.25" d="M164.2,503.2c-1.1-0.1-0.9-1.4-1.1-2.2c-0.2-0.8-0.6,0.1-1,0.5
			s-0.9-0.2-1.6-0.2s0.6,2.3,0.6,2.3c-1.2,1.3-0.4,1.2,0.7,1.2c1,0,1.9-0.5,1.9-0.5c2.5,0.3,2.6,0,2.6-0.8
			C166.2,502.7,165.2,503.4,164.2,503.2z"/>
		<path fill="#62BFEA" stroke="#CAD7E0" stroke-width="0.25" d="M166.1,500.3c-1.6,1.4,0.9,4.1,1.5,3.2c0,0,0.3-0.7,0.5-0.7
			c0.1,0-0.1-0.5-0.1-0.5c0-0.1,0.6-1.9,0.6-1.9S167.7,498.9,166.1,500.3z"/>
		<path fill="#62BFEA" stroke="#CAD7E0" stroke-width="0.25" d="M176.8,504.4c-0.7-0.7-2.2,0-3.2-0.6c-0.9-0.6-1.2,2-1.3,2.7
			s-5.1,0.8-6.4,0c-1.2-0.8-1.3,0.5-1.6,1.4s-1.7,1.5-2.5,0.9c-0.8-0.5-2.1-0.3-2.1-0.3s-0.3,1.1,0.3,2.1s0.2,3.1,0.6,2.8
			c0.4-0.3,1.6-0.5,1.7-0.1c0.1,0.4,0.8,2.2,1.3,0.9s1.7,2.1,1.8,3s1.4,2.3,1.9,0.7s1.2-1.9,2.8-2.3c1.6-0.4,2.7-5.7,4.3-6.4
			c1.6-0.7,1.3,0.9,3.1-0.6C179.2,507.2,177.4,505.1,176.8,504.4z"/>
		<path fill="#62BFEA" stroke="#CAD7E0" stroke-width="0.25" d="M171.1,527.2c1,0.3,1.1-2.3-0.5-3S168,524,168,524s-0.9-1.4-1.2-0.4
			c-0.3,0.9-1.6,4.5,0.3,5.7c1.9,1.1,3.2,1.1,3.4,0.2S170.2,526.9,171.1,527.2z"/>
		<path fill="#62BFEA" stroke="#CAD7E0" stroke-width="0.25" d="M143.7,507.4c-0.4-0.6-0.2-0.8,0.4-0.8c0.1,0,1.3,0.2,1.7-0.1
			c0.7-0.4,1.7-0.1,2.2,0.4c0.1,0.1,0.4,0.5,0.4,0.5c0,0.4-0.1,0.5-0.5,0.6c-0.3,0-0.6,0.1-0.9,0.1c-0.1,0-0.6,0.3-0.4,0.5
			c0.2,0.2,0.1,0.7-0.2,0.7c-0.4,0-0.7,0.3-1.1,0.1C145,509.1,144.1,508.1,143.7,507.4z"/>
		<path fill="#62BFEA" stroke="#CAD7E0" stroke-width="0.25" d="M158.5,494.9c0.1,0.3,0.1,0.6-0.2,0.8c-0.4,0.3-0.5,1.4-0.2,1.7
			c0.3,0.4,0.2,0.6-0.1,0.8c-0.1,0-0.3,0-0.3-0.1c-0.3-0.5-0.9-0.6-1.3-0.9c-0.6-0.4-1.1-0.9-1.6-1.5c-0.1-0.2-0.1-0.3-0.2-0.5
			c0-0.8,0.3-1.1,1.1-0.9c0.7,0.1,1.5,0.1,2.3,0.1C158.2,494.5,158.4,494.6,158.5,494.9z"/>
		<path fill="#62BFEA" stroke="#CAD7E0" stroke-width="0.25" d="M147.1,512.7c0-0.3-0.2-0.4-0.4-0.6c-0.1-0.6,0.5-0.5,0.5-0.5
			c0-0.4,0.3-0.5,0.5-0.7c0.4-0.6,0.9-0.6,1.3,0c0,0.5-0.4,0.9-0.5,1.4c0,0.2-0.3,0.2-0.4,0.2c-0.2,0-0.4,0.1-0.6,0.3
			C147.4,512.9,147.1,512.9,147.1,512.7z"/>
		<path fill="#62BFEA" stroke="#CAD7E0" stroke-width="0.25" d="M158.9,524.1c0.4,0,0.8-0.1,1.3-0.1c0.6,0,1,0.3,1,1
			c0,0.4,0,0.9-0.1,1.3c-0.1,1.4-0.6,2.1-1.7,2.4c-0.1,0-0.1,0-0.2,0c-0.4-0.4-0.8-1-1.5-0.7c-1.3-0.4-1.6-1.2-0.7-2.2
			c0.1-0.1,0.3-0.3,0.4-0.4C157.6,524.5,158.2,524.2,158.9,524.1z"/>
		<path fill="#62BFEA" stroke="#CAD7E0" stroke-width="0.25" d="M149.2,514.8c-0.2-0.1-0.4,0-0.5-0.3c0-0.2,0.1-0.5,0.3-0.6
			c0.1-0.1,0.3-0.2,0.5-0.3c0.5-0.3,0.5-0.3,0.9,0.1c0,0.2-0.1,0.4-0.1,0.6c0,0.1-0.1,0.2-0.2,0.2c-0.4-0.1-0.6-0.1-0.7,0.3
			C149.3,514.7,149.3,514.7,149.2,514.8z"/>
		<path fill="#62BFEA" stroke="#CAD7E0" stroke-width="0.25" d="M149.9,492.6c0.5-0.2,1.1,0.1,1.6-0.4c0.1-0.2,0.3-0.3,0.4-0.5
			c0.5-0.7,1-0.7,1.4,0.1c-0.1,0.2-0.5,0.4-0.4,0.7c0.1,0.2,0.6,0.3,0.6,0.3l0.1,0.2c0,0.5,0,0.9,0.1,1.4c0.1,0.6,0,0.6-0.6,0.6
			c-0.4,0-0.7,0-1.1-0.2h-0.5c-0.1-0.6-1-0.7-1.2-1c0,0-0.5-0.5-0.5-0.9C149.8,492.7,149.9,492.6,149.9,492.6L149.9,492.6
			L149.9,492.6z"/>
		<path fill="#62BFEA" stroke="#CAD7E0" stroke-width="0.25" d="M147.1,491.5c0.1,0,0.5-0.6,0.5-0.7l0,0c0.2-0.1,0.3-0.1,0.5-0.1
			l0,0c0.3,0.1,1.2,0.8,1.4,1.1c-0.7,0.9-1.3,0.3-1.8,0.9c-0.5-0.1-0.8-0.4-0.8-0.9C147,491.8,147.1,491.6,147.1,491.5z"/>
		<g>
			<path fill="#62BFEA" stroke="#CAD7E0" stroke-width="0.25" d="M161.6,489.3c0.3,0.1,0.4,0.4,0.7,0.5c0.3,0,1.2,0,1.2,0.4
				c0.8,0.8,1,1.7,0.8,2.8c-0.1,0.6,0.1,1,0.5,1.1c-0.4,0.1-0.6,0.3-0.7,0.6c-0.1,0.2-0.3,0.1-0.4,0c-0.4-0.1-0.8-0.2-1.2,0.1
				c0,0.1,0.1,2.1,0,2.4c-0.1,0.4,0.7,0.5,0.8,0.6c0.5,0.7,1.3,1,2,1.4c0.2,0,1.4,0.3,1.9,0c0.1-0.1,1.8-0.4,2-0.3
				c0.7,0.3,3.1,0.5,3.5,0.4c0.3,0,0.6,0,0.3-0.4c-0.1-0.2,0.9-0.5,1.3-0.4c0.3,0.1,0.4,0,0.4-0.3c-0.1-0.8-0.5-2.5-0.5-2.5
				c-0.6-0.3,0-2-0.3-2.6c-0.1-0.1-1.1-0.7-0.7-1.5c0.2-0.5,0.2-1,0.4-1.5l0,0c-0.4-0.3-0.8-0.7-0.9-1.3c0-0.3,1.1-1.9,0.4-2.8
				c0,0-1.3-1.8-1-2.9c0.1-0.4-0.4-0.6-0.8-0.5c-0.7,0.1-1.1-0.3-1.5-0.7c-0.2-0.3-1.4-1.7-1.4-1.7c-0.5-0.2-0.5-0.6-0.5-1
				c-0.1-0.3-0.3-0.4-0.6-0.4c-0.2,0-1.4,0.1-1.4,0.6c0,0.2-1.5,0.4-1.9,0.7c-0.5,0.5-2.3,2.1-2.4,2.1l0,0c-0.6,0.5-0.3,1.6-0.3,1.7
				c0.4,0,0.5,0.2,0.4,0.6s0,0.7-0.1,1.1l0,0c-0.5,0.3-0.4,0.7-0.4,1.2c0,0.2-0.6,0.9-0.6,1.1C160.8,487.9,161.3,489.3,161.6,489.3z
				"/>
			<path fill="#62BFEA" stroke="#CAD7E0" stroke-width="0.25" d="M160.6,488.9c0.2,0.2,0.2,0.5,0.6,0.5c0.2,0.1,0.3,0.3,0.3,0.4
				c0.1,0.3,0.3,0.4,0.6,0.4c0.6,0,1,0.3,1.3,0.8c0,0,0.1,0.5,0.1,0.6c0.1,0.9-0.2,1.6-1.1,2c-0.3,0.1-0.4,0.4-0.5,0.7
				c0,0.4-0.2,0.4-0.5,0.4c-0.5-0.1-0.9-0.1-1.4-0.1c-0.3,0-0.5-0.1-0.6-0.4c-0.1-0.4,0-0.8,0.2-1.2c0.1-0.2,0.3-0.6,0.2-0.6
				c-0.4-0.1-0.6-0.5-0.8-0.7c-0.4-0.3-0.8-0.5-1.3-0.4c-0.2,0-1.8-1-1.9-2.3c0-0.3-0.2-0.5-0.5-0.7c0-0.1-0.2-0.9-0.1-1.2
				c0.4-0.8,3.6-2.8,4-2.8c1.1,0,0.1,2.8,1.3,2.8c0.1,0-0.4,0.2-0.4,0.4c0,0.1-0.5,0.6-0.4,0.8C159.7,488.2,160.5,488.8,160.6,488.9
				z"/>
		</g>
		<path fill="#62BFEA" stroke="#CAD7E0" stroke-width="0.25" d="M154.7,478.5c0,0-1.7,0.9-1.9,2.3s-2.2,2-2.2,2s0.6,1.8,1.4,2.1
			s2.2,1.1,2.2,1.1s4-2.6,5.5-2.6s2-2.6,2-2.6S156.1,477.2,154.7,478.5z"/>
	</g>
	<g id="Gyeongnam">
		<path fill="#62BFEA" stroke="#CAD7E0" stroke-width="0.25" d="M277.9,725.4c-2.2-0.7-2.7-2.3-2.7-2.3s-3,2.5-3.3,4.3
			s0.7,3.5,0.7,3.5s-6.9-4.8-5-4.5s2.8-2,2.9-3.3c0-1.3-3.9-1.5-4.6-1.2c-0.6,0.3-1,3.3-1.5,3.4c-0.4,0.1-1.6-0.3-2,0.1
			c-0.4,0.4-0.7,4.9-0.7,4.9c0.7,1.7,3.5,1.3,3.5,1.3s-2.8,0.7-2,2.5s-1.4,3,2,4.8s2.4,0.2,2.7-1.8c0.3-2,1.2-2.3,2-1.8
			s-0.7,6.2,2,5.8c2.7-0.3,1.5-1.3,1.5-1.3l3.2,1.2c0,0,2.2-0.7,1.3-2c-0.8-1.3,0-2.3,0.3-4.7c0.3-2.3-2.5-3.2-2.3-4
			s1.7-0.8,2.5,0.2s0.3-0.8,0.3-1.3S280.1,726.1,277.9,725.4z"/>
		<path fill="#62BFEA" stroke="#CAD7E0" stroke-width="0.25" d="M357.7,681.5c-0.4-0.6-1.3-1.1-1.2-1.6c0.1-0.5,0.2-1.1-1.4-0.3
			s-4.1-2.2-4.7-3.3c-0.5-1.1,0-1.6-1.9-2.3c-1.9-0.6-0.9-1.1-1.9-1.1c-1.1,0-4.4-0.8-4-1.4c0.5-0.7-0.5-1.1-1-1.1
			c-0.5,0.1-0.7-1.4-0.7-1.4c5.5-2.8,3-4.3,1.8-4.8c0,0,0,0-0.1,0.1c-0.7,0.7-1.7,1.1-3.1-0.3c-1.4-1.5-1.4-0.6-1.8-1
			s-1.3-0.1-2.1,0.2c-0.7,0.4-1.7-0.9-1.6-0.2c0.1,0.6-1,2.4-1.5,2.8c-0.5,0.5-0.6,1.5-1,0.8s-1-0.3-1.8,0.2
			c-0.9,0.5-0.6,0.4-1.3,1.7c-0.7,1.3-4.3-1-5.2-0.6c-0.9,0.4-1.5,0-1.9-1.1c-0.4-1-1,0.3-1.7-0.2c-0.7-0.4-0.5-0.1-2.6,0.8
			c-2.1,1-4.5-1.3-4.7-2.1s-0.3-0.9-1-0.8c-0.7,0.1-0.4-3.8-0.7-3.5h-0.1l0,0c0,0-0.1,0-0.1-0.1l0,0l-0.1-0.1c0,0,0,0,0-0.1
			s-0.1-0.1-0.1-0.2c0-0.1,0-0.1-0.1-0.2c0,0,0,0,0-0.1s0-0.1,0-0.2c0,0,0,0,0-0.1s0-0.1,0-0.2c-2.2,1-0.6,2.1-1,2.6
			c-0.3,0.6-1.5,1.1-1.8,0.7c-0.3-0.4-0.8-0.2-1.7-0.2c-0.9-0.1-1.3,0.7-1.8,1.4c-0.6,0.7-0.4-0.4-2.4,0.8c-1.1,0.7-1.6,0.4-1.8-0.1
			c-0.2,0-0.3,0-0.4,0l0,0c0,0,0,0-0.1,0c0,0,0,0,0-0.1c0.4-0.5-0.2-2.3-0.7-2.2c-0.5,0-0.8-0.4-1-0.3c-0.1,0.1-0.7,0.5-1.1,0.1
			c-0.4-0.5-1.2-0.8-1.5-0.5s-1.2-0.2-1.3,0c-0.1,0.2-0.4,1.2-1.7,0.2c-1.3-1-1.3-0.3-1.2,0.1c0.2,0.4-0.1,1-0.3,0.8
			c-0.2-0.2-2.4-0.4-2.7-1.1c-0.3-0.7-1.1-0.4-1.7-0.1c-0.7,0.3-0.5-0.6-0.4-1.2c0.1-0.6,0.9-0.3,1.1-0.5c0.3-0.3,1.1-1.2,1.5-0.9
			s-0.1-3.1-0.4-4.5c-0.3-1.3-0.9-1.6-1.6-1.8s-0.6-0.8-0.8-1.4c-0.2-0.6-0.2-1-1.3-0.8c-1,0.3-1.5-1.4-1.3-2.8c0.2-1.4-0.9,0-1-0.5
			c-0.2-0.6-1.3-0.6-1.3-0.6c-0.2-0.6-1.4-0.9-1.8-0.5s-1,1.1-1.6,0.4c-0.6-0.7-0.9,0-1.6,0.2c-0.7,0.3-1.5-1.4-1.7-1.9
			s-0.5-0.5-0.7-0.3c-0.2,0.3-1.2,0.7-1.3-0.1c-0.1-0.8-0.2-0.2-0.8-0.1c-0.6,0.1-1.7,1.1-1.2-0.4s-0.7-1.4-0.6-2.1
			c0.1-0.7-0.1-0.5-1.3-0.1c-1.2,0.4-1-0.7-1-0.7c0-0.8-0.2-1.1-0.5-1.3c-0.1,0.9-1.2,0.4-1.2,0.5c-0.1,0.1-1.2,2.4-1,3.1
			c0.2,0.7-1.3-0.5-1.7,0.6c-0.4,1.1-0.9,0.7-1.5,0.7s-1.5,1.8-2.3,1.4c-0.8-0.4-1.8-0.5-2.1,0.8c-0.3,1.3-0.6,2.7-1.8,3.1
			c-1.1,0.3-1.6,1.1-1.7,1.8c0,0-1.6-0.2-1.2,1.5c0.4,1.7-0.7,2.7-0.2,3.4c0.4,0.7-1,0.4-1.1,1.6c-0.1,1.2-0.2,2.2-0.6,2.3
			c-0.4,0.1-1.3,1.4-0.8,2.1c0.4,0.7,1.2,1.7,0.4,2.2s-1.4,0.9-1.2,1.7c0.2,0.9-0.3,1.6-1,1.9c-0.8,0.4-0.9,1.4,0.4,2.5
			s0.8,0.7,1.5,0.8s-0.1,0.2,0.2,0.6c0.4,0.4,0.9,1.9,1.4,2.5s0.5,0.9-0.3,1.4s-0.6,2.3,0.1,2.4c0.7,0.2,2.3,0.4,1.7,1
			s-0.2,2.6-1.6,2.8c-1.3,0.2-1,2.2-1.6,2.6c-0.7,0.4-1.2,1.6-0.6,2c0.6,0.5,0.8,1.7-0.1,2.2c-0.1,0.1-0.2,0.1-0.3,0.2l0,0
			c-0.7,0.6-1.1,1.5-1.8,1.1c0,1.1,0.1,2.8,1.3,3.6c1.8,1.3,1,1.5,1,1.6c0,0.2,0.6,2.4,0.5,2.7s-0.5,1.7,0.3,2.7s1.1,1.9,1.9,2.1
			c0.7,0.2,2.6,1.7,2.8,2.9c0.2,1.1-0.3,1.6,0.4,2.2s0.9,1.8,1.6,1.7s1.1,0.4,1.1,1.1c0,0.7,1,0.9,1.7,0.8c0.7-0.2,0.5,1.4,0.5,1.8
			c0,0.4,1.8,1.4,1.1,2.8c-0.7,1.4-2.6,2.5-1.2,4.3c0.9-0.3,3.2,0.4,4-0.4c0,0,1-0.7,1.9-0.3s1.4,0.3,2-0.9c0.7-1.2,1.1-2.1,1.1-2.1
			c1.7-1.5,1.3-2.5,1.3-2.5s1.8,4.8,2.3,5s3-2.8,3-2.8l-0.3-2.2c0,0,2.7-5,2.7-4.5s0.2,5.3,0.7,6s-2.8,4-0.7,5.2
			c2.2,1.2,5.3,1.2,5.5,3s2-1.2,3-0.5s2.3,0.2,2.3-1.8s2.5-1.2,3.7-0.7s0.2,2.2,1.7,2.8l2.3-3.5c0,0.1,3,3.8,0.3,4.2
			c-2.7,0.3-0.2,1.7,1.8,2.8c2,1.2-3.9,2.8-0.2,5.3c1.3,0.8,3,4.3,3.1,4.3s3.7-6.1,3.7-6.1s-2.7-1.7-1.3-1.5
			c1.3,0.2,4.1-0.1,4.1-0.1s1.9-0.1,2.1-0.1c0.1,0-0.5-0.9,0.3-1.5s-1.4-3.5-1.5-4.4s-2.8-1.2-1.9-0.2c0.9,0.9-1-0.5-1.8,0.9
			s-1.6-0.8-1.6-0.8c0-5.2,1.8-4.6,1.8-4.6s-0.3-0.6-1.4-1.2l-0.4,0.1c-0.3-0.4-0.5-0.7-0.4-0.8c0.2-0.1,0.4-0.1,0.8,0.1
			c1.1-0.2,2.8-0.7,3.4-1.3c1-1,0-1.3-0.5-2.8s0.3-3.3,0.3-3.3s-1.7,2.3-2.2,2.3s-3.8,1.2-4.2,3.3c-0.3,2.2-1.2-4.7,1.5-4
			c1.1,0.3,2-0.1,2.7-0.7c1.1-0.9,1.8-2.1,1.8-2.1s1.5-0.8,2.5-0.3s2.3-2,3.8,1c0,0-1.3,2-0.7,2c0.7,0,3.3-0.3,3.8-0.5
			s-4-9.8-2-11.3c0.6-0.4,1.1-0.8,1.7-1.2c1.4-0.9,2.5-1.6,2.5-1.6s-2.8,4.5-1.8,5.8s3,2.7,2.8,3.3c-0.2,0.7,2.3-2,3.3-1.2
			s1.3,4.5,0.5,4.8s6.8,0.7,6.8,0.7s2.5-0.7,1.6-1.7c-0.8-1,0.1-0.3,0.8-0.6c0.7-0.3,0.5-1.3,0-2s-3.3-1.5-2.7-2.7
			c0.6-1.2,2.3,1,3.4-0.6c0,0,1.3-0.3,1.4,0.8s1.4,0,1-0.6s-0.6-0.8,0-1s-1.2-2.2-0.3-2.8c0.9-0.6,1.7-0.4,2-1.1
			c0.3-0.7,0.7,0.6,2-0.3c1.3-0.9,2.6,0.1,3.2-0.5c0.7-0.5,1.9-4,2.7-4.2c0.8-0.1,2.5-0.4,2.1-1.3c-0.4-0.9,1.2,0.2,1.7-0.4
			c0.6-0.6,1.6-0.8,2-0.7s1.1-2.4,1.3-3.3c0.2-0.8-0.4-2.3,0.9-1.9c1.3,0.4,3.2,1.8,3.7-0.9c0.1-0.5,0.2-0.9,0.4-1.2
			c0-0.1-0.1-0.1-0.1-0.2l0,0c0-0.1,0.1-0.3,0.3-0.5l0,0c0.1-0.1,0.2-0.2,0.3-0.3c0-0.1,0.1-0.1,0.1-0.1l0.1-0.1
			c0.1-0.1,0.1-0.1,0.2-0.2l0,0c0-0.1,0.1-0.1,0.1-0.2l0,0C357.7,681.7,357.7,681.6,357.7,681.5z"/>
		<g>
			<path fill="#62BFEA" stroke="#CAD7E0" stroke-width="0.25" d="M322.4,727.5c-1-3.1-2.2-2.6-0.1-2.8s0.3-5.2,0-7.2
				s1.6-3.5,1.6-3.5s-2.7-0.2-3.2,0l-0.3,3.3c0,0-1.8-0.8-2,0.5s-1.2,3-2.8,1.2c-1.7-1.8-0.7,3.3,0.7,5.3s-0.3,2-1.7,0.7
				c-1.3-1.3-3.1,5.8-3.1,5.8c1.2,0.8,1.4,2.5,1.4,2.5c-3.2,1,0,2,0,2h1.9c0,0-3.2,1.3-1.2,1.8s0.7,1.8,0.7,1.8
				c-2.7,2.7,3,1.8,3,1.8l1-2c3.8,1.2-0.3-1,0-3s2.2,0.3,1.5-1.6c-0.7-1.9,2.7,2.7,2.7,0.2S323.1,729.9,322.4,727.5z"/>
			<path fill="#62BFEA" stroke="#CAD7E0" stroke-width="0.25" d="M310.4,737.2c0.7-0.6,0.4-1.6,0.1-1.4c-0.3,0.2-1.1-0.4-0.5-1.1
				s-1-0.1-0.3-1.2c0.7-1.1-0.3-1.3-0.5-1s0.4-0.5-1.1-1.7c0,0-0.8,1-0.3,2.5s-0.6,1.8,0.3,3.3c0.9,1.4,0.9,1.2,0.9,1.6
				c0,0.4-2.1,2-2.1,3.4c0.1,1.4,1.4,1.2,1.5,0.5c0.1-0.8-0.8-1.8,0.1-2.1s1.3,0.3,1.7-0.2c0.4-0.4,1.1-0.7,1.2-0.4s0.3-0.3,0.3-0.3
				S309.7,737.8,310.4,737.2z"/>
		</g>
	</g>
</g>
<g id="Northkorea">
	<path id="Yanggang" fill="#769FB6" stroke="#CAD7E0" stroke-width="0.25" d="M210.2,146.3c-1.5-0.2-1.5,2.2-2.8,2.8
		c-1.3,0.7-3.1,1.8-4.9,0c-1.8-1.8-0.4,8.8,1.5,9.2c1.9,0.3,4.4,2.9,3.3,5.1c-1.2,2.2,5.7,6.4,5.6,8.9c-0.1,2.5,4.9,0.4,3.9,2.4
		s-1.5,10.1,1.4,10.6s2.4,0.7,3.4,2.8c1,2.2,2.3,0.2,3.9,0.5c1.6,0.3,5.6,1.6,6.3-1.5s4.8-4.4,5.9-1.7c1.2,2.8,2.2,4.7,2.4,7.3
		s2,4.4,3.6,3.1c1.6-1.3,7.8-7.1,8.8-8.8c0.9-1.7,7.4-0.6,7.4,1.5s-1.3,5.5-1.3,7c-0.1,1.5-1.1,2.5-2.8,3.7s-1.6,3.6-1.1,4.6
		s-2.4,3.9-5.1,6.3c-2.7,2.4,1.3,3.9,0.5,5.7s0.1,5.6,1.6,5.2s1.7,5.3,3.7,6.1s2.4,1.4,2.4,3.9s-0.5,4.6,2.1,4.4
		c2.6-0.2,1.7,1.6,1.4,3.4c-0.3,1.8,0.1,3.8-1.5,5.4c-1.6,1.7-3.4,8.8,0.3,8.3s8.8-7.9,8.8-10s2.1-1.8,2.7-2.4
		c0.6-0.7,1.3-4.3,3.4-4.6c2.2-0.3,3.8-1,4.3-1.6c0.6-0.6,3.9,0.4,3.8,2s3.9,3.8,5.2,1.3s2.6-4.3,4.2-4.3s2.4-3.8,5.3-5
		c2.8-1.2,2.4-5.8,2.3-6.8c-0.2-1,0.6-1.5,1.4-2.2s-0.2-2.9,1.4-3.5s-0.3-3.6,0.7-4.9c1-1.3,2.8-4.9,1.6-6.3c-1.3-1.4,0.8-3.6,3-3.6
		s1-1.6,3.8-1.3s6.1-2,7-4.4s6.2-3.7,4.7-4.8s-1.8-5.4,1.5-6.1c3.3-0.7,2.5,2.1,4.7,1.2c2.2-0.9,6.4-2.8,6.8-1.3
		c0.3,1.4-1,4.9,5.2,4.4c0-0.2,0.2-0.4,0.5-0.7c1.7-1.4,0.2-5.5,1.1-8.3s3.4-4,0.9-6s-0.1-4.9-2-5.8s0.1-2.4-0.7-6.8
		s3.1-1.6,2.6-4.6s0.5-3,3-6.1s-2.5-2.4-2.5-4.1c0-1.8-0.6-2.3-4.1-3.1s-1.2-2.8-1.2-5.5s-3.8-1.9-2.3-4.9s-0.4-4.9,0.4-6.1
		s0.1-1.8-0.9-3.2s3.8-5,3.2-6.8c-0.7-1.8,3.8-7.3,4.7-8.2c0.5-0.5-0.4-4-1.2-6.6c-1,0.8-2.6,0.3-3.3-0.3c-0.9-0.8-1.7,1.2-1.6,2.8
		s-0.3,3.8-0.3,3.8s-6.8,1-7.8-0.8c-1.1-1.8-3.6,0.2-3.6,0.2s-1.2-3.6-3.3-1.1c-2.1,2.5-4.4,2.9-4.9,0.8s-5,2.4-6.4,2.5
		s-7.3,0.5-7.3-1.9l-23.3-0.3c0,0-5.3,2.6-4.3,4.1c1.1,1.5,3.6,3.3,3.7,5.3s0.5,12.2,0.5,12.2s3.1-0.1,2.9,2.9s2.8,8.6,6.8,8.4
		c0,0,1.4,2,1.7,3s2,0.6,1.8,2.1s1.3,0.7,0.9,2.2s-1.4,1.9-2,3.9s-4.3,5.3-4.6,7.4c-0.3,2.1-4.9,8.3-6.6,8.4s-0.5-1.8-3.1-1.8
		s-2.3-2.6-2.3-2.6s-1.3-0.4-1.8-0.2s-1.3-0.6-1.9-0.9c-0.6-0.3-3.4-1.3-3.4-2.5s-1.1,3.4-3.1,1.6s-2.1,3.3-3.7,2.3
		s-9.3-1.8-11.8,0.1c-2.5,1.9-1.2-2-4.9-1.8s-1.2-4.4-3.6-3.9s-4.3,0.3-4.3-0.4s-1.2,0.1-1.2,1.2s-3.2,1.6-3.5-0.6
		c-0.3-2.1-3.2-0.6-3.1,0.6c0.1,1.2-5.6-1.4-5.2-2.8s-1.4,0-1.4,0s-4-3.3-6.2-2.9s0.6-1-2.9-0.8s2.6-4.1,3.3-4.1s0-1.4-2.1-1.4
		c-2.1-0.1,0-2.5-2.4-2.1c-0.4,0.1-0.6,0.1-0.8,0C211.9,145.3,210.9,146.4,210.2,146.3z"/>
	<path id="Hamnam" fill="#769FB6" stroke="#CAD7E0" stroke-width="0.25" d="M346.8,230.9c0.8-2.9-4.8-6.1-4.8-8
		c-0.1-1.9,0.7-4.9-1.8-7.9s1.3-3.8,1.1-5.9s-0.6-5.9,1.5-6.4s-0.5-3.6,0.4-6.4s2.5-4,1.1-5.6c-1.1-1.3-3.1-1.7-2.9-2.6
		c-6.1,0.5-4.8-3.1-5.2-4.4c-0.4-1.5-4.6,0.3-6.8,1.3c-2.2,0.9-1.3-1.8-4.7-1.2c-3.3,0.7-3,5-1.5,6.1s-3.8,2.4-4.7,4.8
		c-0.9,2.4-4.3,4.7-7,4.4s-1.5,1.3-3.8,1.3s-4.3,2.2-3,3.6c1.3,1.4-0.6,5-1.6,6.3s0.9,4.3-0.7,4.9c-1.6,0.6-0.6,2.8-1.4,3.5
		s-1.6,1.2-1.4,2.2s0.6,5.7-2.3,6.8c-2.8,1.2-3.7,5-5.3,5c-1.6,0-2.9,1.8-4.2,4.3s-5.3,0.3-5.2-1.3c0.2-1.6-3.2-2.6-3.8-2
		c-0.6,0.6-2.2,1.3-4.3,1.6c-2.2,0.3-2.8,3.9-3.4,4.6c-0.6,0.7-2.7,0.3-2.7,2.4s-5.1,9.5-8.8,10s-1.9-6.7-0.3-8.3
		c1.6-1.7,1.3-3.6,1.5-5.4c0.3-1.8,1.2-3.6-1.4-3.4c-2.6,0.2-2.1-1.9-2.1-4.4s-0.4-3.2-2.4-3.9s-2.2-6.5-3.7-6.1s-2.3-3.4-1.6-5.2
		s-3.2-3.3-0.5-5.7s5.6-5.3,5.1-6.3s-0.6-3.4,1.1-4.6c1.7-1.2,2.7-2.2,2.8-3.7s1.3-4.9,1.3-7s-6.5-3.2-7.4-1.5s-7.2,7.4-8.8,8.8
		c-0.7,0.6-1.5,0.6-2.1,0.1c-2.1,2.7-6.3,7.9-6.9,8.2c-0.8,0.5-3,8.7,0,9.5s1.5,8.5-2.8,8s-5.7-3.2-6.8-1.3c-1.2,1.8-1.5,2-1.2,3
		s-1.1,5-0.1,6.7s-3.4,5.8-4.5,4.5c-1.2-1.3-4.7-1.3-5.3,1.8c-0.5,3.2-1.9,3.3-3.7,1.8s-3.2,1.5-2.7,4.5s0.3,4.2-1.7,5
		s-2.3,3-2.3,4.8c0,1.2-0.9,1.5-1.7,2.1c2.1,1.4,6.3,4,8.3,3.9c2.7-0.2,6.2,3.7,4.5,7.2s2.2,5.7,3.3,6.7c1.2,1,1.7,5.2-1.7,5.2
		c-3.3,0-5.8,6.8-5.3,9.2c0.5,2.4,0.8,10.1,2.2,10.9c1.3,0.8-6.2,1.2-7,2.5s-5.7-4-9-4s-6.7,2.8-7.6,5.8c-0.9,3-3.1,7.7-1.4,8.3
		c1.7,0.7,0.4,3.8-0.6,5.2c-1.1,1.3,0.1,3.8-1.6,5.3c-1.7,1.5-2.7,3-1.8,5s4.8,4.3,4.3,6.7c-0.5,2.3-1.7,4.6-0.3,5s-5.2,5.5-3.3,6.5
		c1.8,1,5-0.2,6.7,2s7.2,0,7.5,2s1,6.2,3.8,5.3c2.8-0.8,1.8-5.3,5.3-5.8s6.3-6.3,4.8-8.7s2.5-1.5,3.7,0.3s6-0.3,6.3-1.6
		c0.3-1.4,4.2-6,5.2-4.7s3.7,3.3,6,3c1.2-0.2,4-0.9,6.7-1.1c-0.3-1.8-0.2-3.6,0.8-4.5c2.9-2.8,2.8-4.6,2.4-7c-0.4-2.4-2.9-2-2.9-2
		c-5.3-4.9,2-9,2.5-10.4s1.6-3.5,3.8-4.4c2.1-0.9,5.9-4.6,7.5-3.9c1.6,0.8,3.8-0.6,3.8-0.6s0.4-4.9,2-2s4.9-2.5,5.3-3.3
		s-0.3-5.4,1.3-4.4s4.8-3.9,5.3-5.4c0.5-1.6,3-2.9,3.4-1.4s6,0.6,7.5,1.3c1.5,0.6,6.3-0.6,6.3-0.6s1.6-3.9,2.3-2.4
		c0.7,1.5,3.3,2.7,4.8,2.3c1.5-0.3,1.8-5.5,1.8-5.5s5.7,1,6.7-1.3s5.2-7,7.8-5.3c2.7,1.7,4.8-2,5.8-3.7s-2-3.7-2.3-6.2
		s4.5-7.2,9.3-5s14.2-10.2,14.2-10.2l4.7-1.8c2.5,3.2,5-4.5,5-4.5c2.2,0,2.9-2.6,3.1-4.7C348.4,236.3,346.2,233.5,346.8,230.9z"/>
	<path id="Jagang" fill="#769FB6" stroke="#CAD7E0" stroke-width="0.25" d="M201.8,254.6c0.8-0.6,1.7-1,1.7-2.1c0-1.8,0.3-4,2.3-4.8
		s2.2-2,1.7-5s0.8-6,2.7-4.5c1.8,1.5,3.2,1.3,3.7-1.8c0.5-3.2,4.1-3.2,5.3-1.8c1.2,1.3,5.5-2.8,4.5-4.5s0.5-5.7,0.1-6.7s0-1.2,1.2-3
		s2.5,0.8,6.8,1.3s5.8-7.2,2.8-8s-0.8-9,0-9.5c0.6-0.4,4.8-5.6,6.9-8.2c-0.8-0.6-1.4-1.8-1.5-3.2c-0.3-2.6-1.3-4.5-2.4-7.3
		c-1.2-2.8-5.3-1.4-5.9,1.7c-0.7,3.1-4.7,1.8-6.3,1.5s-2.9,1.7-3.9-0.5s-0.5-2.3-3.4-2.8s-2.4-8.6-1.4-10.6s-4,0.1-3.9-2.4
		s-6.8-6.8-5.6-8.9c1.2-2.2-1.3-4.8-3.3-5.1c-1.9-0.3-3.3-11-1.5-9.2s3.6,0.7,4.9,0c1.3-0.7,1.3-3,2.8-2.8c0.7,0.1,1.7-1,2.6-2.2
		c-0.7-0.3,1.2-1.8-1.9-2.7c-3.8-1.1-1.9-3,0-3.3s-0.1-1.6-0.5-1.9s-0.2-3.1-0.2-3.1l-2.9-0.3c0,0-0.6-2.9-4.1-2.9s0-0.4,0-1.1
		s-0.2-2.1-1.6-1.6s-4.8,2.3-5.4,5.1c-0.6,2.8-1.3,3.3-2.1,1.4c-0.8-1.9-1.5-1.8-1.5,1.8s-4.1-2.4-4.1-2.4s-4.6-1.1-3.5,1
		s2.4,2.6,1.6,3.5c-0.9,0.9-3.6,2.8-3.7,3.2s-3.4-2.8-3.9,0.8c-0.6,3.6-1.8,3.4-2.3,3c-0.4-0.4,0.4,2,1.1,3.7c0.7,1.7-2,3.6-2.1,5.2
		c-0.1,1.6-0.3,3.9-1.4,4.8c-1.2,0.9-2.1,2.9-1.1,5.7c0.9,2.8,1.8,4.3,1.1,4.4c-0.8,0.1-1.6,0-1-1.3s-4.5,0.1-4.9,1.4
		s-1.1,2.2-1.4,2.1c-0.3-0.1-4.2,2.1-4.3,6.8s-13.3,14-13.3,14s-4.5,1.1-3.2,2.8c1.3,1.8,0.7,3.3,0.3,3c-0.3-0.3-2.3-0.1-1.4,1.8
		c0.8,1.9-1.9,1.5-1.9,1.5s0.5,1.8,0.3,2.2s-2.3,1.3-2.3,3c0.1,1.7-3.3-0.3-3.1,0.8s3.3,4.4-1.6,3.7c0,0-3,2.3-4.3-1.7H129
		c0,0-2.9,6.8-5.8,1.8c0,0-1.4,0-1.8,1.8h-3.1l-4.7,6.3c0,0,5.4,2.7,3,3.3c-2.4,0.7-6.2,0.7-6.5-1.1s-2.6,1.7-2.6,3.4
		c0,1.2-1.9,1.6-3.3,1.7c0.6,3.7,2.3,5.1,6.1,7.3c4.8,2.8,0.3,3,1.3,5.7s-1.5,1.8-1,3.2s-0.5,3.7-1.2,5.2s1.2,3.5,1.2,5.5
		s-1.3,2.2,1.3,3.7c2.7,1.5,3.5,3.7,5.5,5.2s4.8,0.7,6.8,3.2s0.2,3.2,6.7-1c6.5-4.2,7.8,5.8,10.3,7.3s5.2,6.7,5.7,8.5
		s12.2,4.2,14.7,5.8c2.5,1.7,4.5,2.5,7,0s6.8-0.2,6.8-2.8s1.7-4.5,3.7-4.5s2.5-2.7,3.5-4.3c1-1.7,2.2,3.5,3.7,0s6.5-2.8,6.5-2.8
		s1.2-7,4.8-7.5c3.7-0.5,2.2-5,2.8-7C200.9,255.4,201.3,255,201.8,254.6"/>
	<path id="Pyongbuk" fill="#769FB6" stroke="#CAD7E0" stroke-width="0.25" d="M116.1,317.3c2.8,0.2,9.2-5.7,9.2-7.5s1.3,0.5,3-2
		c1.7-2.5,3.2-1.8,4-2.5s5-7,9.2-4.5s8.5,3,12-0.6s6.3-1.6,8-2.9s2.7-2,2.3-4.3c-0.2-1.1,0-4,0.3-6.6c-0.7-0.3-1.5-0.7-2.3-1.3
		c-2.5-1.7-14.2-4-14.7-5.8s-3.2-7-5.7-8.5s-3.8-11.5-10.3-7.3s-4.7,3.5-6.7,1s-4.8-1.7-6.8-3.2s-2.8-3.7-5.5-5.2s-1.3-1.7-1.3-3.7
		s-1.8-4-1.2-5.5c0.7-1.5,1.7-3.8,1.2-5.2s2-0.5,1-3.2s3.5-2.8-1.3-5.7c-3.7-2.2-5.5-3.6-6.1-7.3c-0.6,0-1.2-0.1-1.4-0.2
		c-0.7-0.3-1.4,4.3-1.4,4.3s-3.3-0.1-3.1,2.5c0.2,2.6-1.5,0.1-2.2-0.6s-2.4,0.3-3,0.8c-0.6,0.4-2.8-2.5-4.2-0.5
		c-1.4,2-0.3,3.8-3.2,3.6c-2.9-0.2-15.4,8.2-15.1,9s3.8,3.3,1.5,3.3s-3.8-0.7-6.2,1.3c-2.4,1.9-1.7-5-3.2-1.8s-2.9,6.4-8.3,7.8
		c-5.3,1.4,0.3,5.1-5.6,6.7c-5.8,1.6-7.2,6.7-7.2,7.5c0,0.9-5.1,2.3-5.1,2.3s0.7,8.6-2.4,7.6s-5.9,2.3-5.6,4.9s-2,11.4-2.6,11.5
		s2.1,5.1,2.6,5.9s-0.1,3.3,2.1,3.1c2.3-0.1,8.8,0.9,8.9,1.8s3.4-2.8,2.6-0.9c-0.8,1.9-2,3.8-0.5,4.1c1.5,0.4,1.5,1.5,1,2.5
		s-0.1,1.9,2.4,4s-0.9,7.9-0.3,7.8c0.6-0.1,3.4,0.4,5.3-2.8c0,0,1.3-0.6,1.8,0s0.9-2.4,0.9-2.4s0.1-0.3,0.6-0.3s-0.9-2.5,0.5-3
		s-0.5-3.8-1-4.4s-0.1-2.3,0.8-1s2,4,3,4.3s4.9-0.5,5.8,1.3s1.5,5.4,3.1,5.1s1.3-2.8,1.9-1.3s0.8,2.3,1.9,1.5s3.8,1.1,4.3,2.9
		s2.4,4.8,3.5,4.1c1.1-0.6,5-1.3,5.6-1.8s2.8-1.9,3-2.3c0.3-0.4-0.8,2.8,1.6,3.9s0.9,4.3,0.9,4.3s2.3,1.4,12.3-6.9
		c0,0,8.1-2.4,9.6-4C111.8,319.6,113.3,317.1,116.1,317.3z"/>
	<path id="Bukgangwon" fill="#769FB6" stroke="#CAD7E0" stroke-width="0.25" d="M298.1,404.2c0-3.4-6.1-4.5-8.1-3s-2.3-0.6-6-6.6
		s-8.8-2-12.1-7.6c-3.4-5.6-8.4-8.6-8.4-8.6c-4-13.6-6.8-11.5-6.8-11.5c-4,4.1-9.4-2.6-9.4-2.6s-5.4,1.5-6.3,0s-2.8-5.1-2.8-1.8
		c0,3.4-2.8-1.6-2.8-1.6c-11.1-7.6,2.8-13.1,2.4-14.8c-0.4-1.6-2.4-1-2.6-0.1c-0.3,0.9-3,0.5-2.9-1.4s3.1,0.5,3.8-0.9
		c0.6-1.4,3.1-0.8,3.1-0.8s0.1-1.6,2.4,0c1.8,1.3,0.7,5.8,0.2,7c0.5-0.7,2.5,0.2,2.5,0.2c0.5-1.6-1.3-8.4-1.3-8.4s-1.8-3.7-2.3-7.1
		c-2.7,0.2-5.5,0.9-6.7,1.1c-2.3,0.3-5-1.7-6-3s-4.8,3.3-5.2,4.7c-0.3,1.4-5.2,3.5-6.3,1.6c-1.2-1.8-5.2-2.7-3.7-0.3
		c1.5,2.3-1.3,8.2-4.8,8.7c-3.2,0.5-2.7,4.2-4.7,5.5c0.7,2,1.8,2.3,3.5,2.6c2.7,0.5,5.3,3.8,5.9,5.7c0.5,1.8-7.4-0.3-6.4,2
		s-1.2,4.7,0.9,6.7s3.1,7,1.4,10.5s-2,2-4.5,3.2s-3.7,5.7-3,8.8c0.7,3.2-0.7,2.5-3.3,3.3c-2.7,0.8-4,1.7-4.3,6s-5.2,1.7-7.1,3.2
		s2.1,5.2,1.1,9.3c-1,4.2,3,8.7,2.5,15.3s4.5,4.2,5.7,3.5s5.2,2.7,3.5,4.6s-1.3,5.9-1.3,5.9s3.3,0.8,2.8,2.4c-0.3,1-1.1,4.9,0.4,7.6
		c3.2-1.5,3.1-0.9,3.5-3.9c0-0.2,0-0.4,0.1-0.6c0-0.2,0-0.4,0.1-0.6l0,0c0-0.2,0-0.4,0.1-0.6l0,0c0-0.2,0.1-0.4,0.1-0.6l0,0
		c0-0.2,0.1-0.4,0.1-0.6l0,0c0.1-0.2,0.1-0.4,0.2-0.6l0,0c0.5-1.2,1.4-2.6,3.3-4.2l0,0c0.3-0.3,0.6-0.6,1-0.9l0,0
		c0.4-0.3,0.8-0.6,1.2-0.9l0,0c0.4-0.3,0.9-0.6,1.4-1l0,0c0.7-0.5,1.5-1,2.4-1.6c0.3-0.2,0.6-0.4,0.9-0.5c0,0,2,1.2,3,0.6
		s3.7-2.8,6-1.6c2.3,1.2,7.7-0.4,8.8-0.8s7.3,4.1,10.1,1.8s2.9-1.8,2.9-1.8s13.9-1.9,14.6-0.1s2.4,2.7,5.3,0.5s12.1,2.8,13.9,1.3
		s14-7.7,14.9-13.8v-9.9l3.4-2.6C298,409.2,298.1,406.9,298.1,404.2z"/>
	<path id="Hwangnam" fill="#769FB6" stroke="#CAD7E0" stroke-width="0.25" d="M166.1,447.4c1.5-1.2,1.1-2.5-0.9-3.1
		s-4.8-1.9-5.9-3.8s-0.9-0.5-5.2-1.6s-6,2-7.6,3.3s-1.8,0.6-5.6-0.3s-7.4,3.8-9.3,3.6c-1.8-0.1-3.1-1.2-1.7-3.6
		c1.4-2.4-0.1-3-1.6-2.9s-0.5-1.3-1.5-1c-1.1,0.3-3.5,0.1-1.5-2.5s-1.3-1.7-2.6-1.7s-4.3-4.2-4.4-5.6s1.8-1.9,1.6-2.6
		c-0.2-0.7-3.3-3.8-3.1-5.3s1.2-0.1,1.7-0.8s-0.3-3.6-1.3-4.9c-1.1-1.3,0.8-6.8,0.4-7.8s-7.6-3.5-7.6-3.5s-2.9,0.6-4,2.8
		c0,0-4.4-4-5.6-3.3s3.1,2.5-3.1,1.8c0,0-2.4,0.4-2.4,1.3s-2.6-1-2.6,0.1s-0.4,5.5-0.4,5.5s-1.8-3.8-2.2-4c-0.4-0.3-0.5-2.5-1.8-1.5
		s-1.9,3.6-4.4,0.6s-0.6,2-0.4,2.9c0.3,0.9-0.3,2.9-3.5-3c0,0-2,0.1-0.5,4.1l0.1,3c0,0,1.4,0.8,1.3,1.4s-4.3-1.4-4.8,1.5l-2.4-0.3
		l0.3-1.9c0,0-3.1-0.3-4-1s-0.1,1.3,0.5,2.5s0.5,3.4,0.5,3.4l1.4,1.1c0,0-1.1,3.8-1.9,3.9s-0.9,0.6-0.6,1.6s-0.3,1-0.9-0.9
		s-4.1,7.8-5.9,8.1c-1.8,0.4-2,2.8-0.1,4.1l-0.5,5.3c0,0,1.6,1.5,1.6,2.3s1.9,1.8,3.5-0.4c0,0,2.6-0.4,2.5,0.5s-2.6,1.5-2.6,1.5
		l-1.4,1.3c0,0-1-1.1-1.6-1.4s-2.3-0.5-2.1-2.1c0.1-1.6-3.1,2.4-3.4,3.3c-0.3,0.9-0.3,2.6-2.3,1.9s-1.1,0.4-3.1,1.8s0,1.4-4.3,0.9
		s-0.9,2.3,0.4,2.8s5.9,1.6,6.8,1.8c0.9,0.1,2.9-1.1,4.1-1.3c1.3-0.1,2.9-1.9,2.9-1.9s7.1,4.4,7.8,4.9s1.9-0.8,2.5-0.3
		s2.8,0.6,4.1-0.3c1.4-0.9,1.3-1.3,2.6-1s2-0.9,3.3-0.1s3.1,0.5,3.9,0.8s3.3,0.8,0.6,1.8s-0.8,3-0.8,3s-1.3,2.4-1.8-0.4
		s-1.4-2-4.1-1.5s-4,1.1-3.6,2.4s1.5,2.5,2.3,2.3s-0.5,1.4,0.3,1.6s2.6-0.4,1.8,1c-0.9,1.4-1.6,0.1-2.8,0.1s-2.8-0.4-2.8-1
		s-2.9-0.5-3.4,0.6s-2.5-0.1-2.9,0.8s-1.5,3.4,0.9,2.1c0,0-1.5,3.5,2.8,2.5s1.8,1.1,1.8,1.1s2.8,3,4.9,2.1s0.8,0.5,3.3,0.3
		s2.8-2.6,2.8-4.5s1-2.3,1.3-1.5s0,2.6-0.1,3s-1.6,4.4-2.6,4.1s-1.4,1.9-1.4,1.9l-3.6,2.4l1.4,1.1c0,0,2.5-1.3,2.6-2
		s3.1,0.6,3.1,0.6l3.2-1.5c0,0-0.8-1.8-0.6-2.1c0.3-0.4,1,1.3,2,0.9c2.5-1,0,2.5,1.6,2.5s1.4-4.1,1.4-4.1v-3c0,0,0.7,0.3,2.5,0.1
		c1.8-0.1-0.5,2.5,1.3,2s2-2.9,2-4c0.1-1.1-0.1-2.1,1.2-1.1s-1,3.1,0.3,2.8c1.3-0.4,1.4,1,0.8,1.4c-0.5,0.4-1.5,0.5,0,1s0,1.6,0,1.6
		s2.4-1.3,2.1,0.8s-3.2,1.6-3.6,1s-2.4,0.8-2.8,1.8c-0.5,1-0.8,0-1.3,1s0.2,1-1.1,0.5s-0.1,0.5,0.4,1.7c0.4,1.2,3.1-2.5,3.9-0.9
		s-1.9,1.4-1.9,1.4s-1.2,1.1-2.4,0.3c-1.2-0.9-1.3,1-2.1,1.1c-0.8,0.1-2,2.6-1.3,3.5s1.8,2.4,2,2s0.4-4.3,1.4-3.6
		c0.9,0.6,3.1-1.5,4.1-0.5s3.3,0.3,3.3-0.6c0-1,1.4-2.6,1.4-2.6s0.6-5.7,0.9-2.2s1.9,2.2,1.9,2.2c0.3-3,2.1-0.8,2.1-0.8
		c-1.9,1.9,2.4,1.4,2.4,1.4s1.8-3.5,1-3.5s-2.4-1.5-0.9-1.4s1.8-1.3,1.4-1.1s-1.9-3.5-0.5-2.3s0.3-1.5,0.8-2.6s-0.8-1.8-0.8-1.8
		c-0.4-0.8,1.4-1.8,1.4-1.8c0.5,3.6,2.4,2.8,4.3,2.3s3.5-4.6,1.7-3s-3,0-2.8-0.8s1-0.9,2-0.9s1.3-1.9,0-1.3s-4.1,0.5-2.9,0
		s1.1-1.8,1.1-1.8l-3.9,1.8c0,0-5.8-5.1-6.2-6.1c-0.5-1,1.9,0,1.9,0s7.6,0.9,7.8,2.5c0.2,1.6,2.3,3.2,2.2,0.2s2.1-0.2,3.9,1.1
		c1.8,1.3,1.4,0.8,0.8,3.1s2.1-0.3,4.8,4.9c2.6,5.1,1.8,6.1,4.2,5.6s3.4,0.4,3.4,0.4s-1.4-5.7,0.7-4.6s1.8,2.3,2.4,2.8
		c0.6,0.4,1.4,1.4,1.7,0.1s1.4-3.6,1.4-0.2s0.4,4.8,2,5.4c1.6,0.7-0.2,3.9,2.4,4.1s3.7,0.3,2.8-2.6s-1.4-5.6,0.4-5.9
		c1.8-0.3,3.4,0.1,2.1-2s2.1,0.9,2.1,0.9s2.9,2.4,5.3-0.3s5.6-1.6,5.8-2.9s0.6-0.8,0.6-1.2c0-0.2,0.3-0.4,0.5-0.4
		c0-1.8-2.1-3.6-1.6-4.1c0.6-0.6,0.5-1.9-0.8-3.5s1.2-2.6,0.6-3.8s2.1-2.1,0.1-3.1s0.9-3.8,0.9-3.8
		C162.7,451.9,164.6,448.6,166.1,447.4z"/>
	<path id="Pyeongyang" fill="#769FB6" stroke="#CAD7E0" stroke-width="0.25" d="M111.1,381.7c0.8-0.8,3.2-0.6,3.8-0.9
		s2.7-3.5,7.5-2.8c0,0,2.4,4.8,3.9,3.3c1.6-1.5,4.8-1.3,6.4,0.7c1.6,2,3.3-1.2,3.3-1.5s2.2,0.8,2.5,0.4s2.6-2.3,1.7-4.1
		s-2.4-4.6-2.4-6c-0.1-1.4-2.4-2.2-2.4-2.2s4.9-6,9.8-2.8c4.1,2.8,3.2,3.8,3,5.4c0.9-0.6,4.1-2.6,4.8-1.6c0.8,1.1,2.6,3,2.8,3.5
		c0.1,0.5,1.9-0.8,3.2,1s3.9-0.3,5,0.8c0.9,0.9,3.1,3.3,4.6,2.9l0,0c-0.3-0.2-0.5-0.5-0.6-0.7l0,0c0-0.1-0.1-0.1-0.1-0.2l0,0
		c0-0.1,0-0.1,0-0.2c0,0,0,0,0-0.1v-0.1c0-0.1,0.1-0.1,0.1-0.2l0,0c0.1-0.1,0.2-0.1,0.3-0.1c0.2-0.1,0.3-0.2,0.3-0.4
		c0-1.4-4.7-5.4-5.2-6.9c-0.5-1.7-1.3-3.7-4.8-4.2c-1.5-0.2-1.7-1.6-1.7-3.2c0-0.7,0.1-1.3,0.1-2c0-1.2-0.2-2.2-1.3-2.2
		c-3,0-4-5.5-7.3-4.1c-2.5,1.1-3.1,0.4-3.1-0.7c0-0.4,0.1-0.8,0.1-1.2c0.3-1.7-8.5-1.8-10.5,0s-7.7-3-8.3-4.8c-0.7-1.8-9,1-10.8,3.4
		c-0.3,0.4-0.5,1-0.4,1.7c0.1,2.8,3.1,7.2,3.3,9l0,0l0,0c0.2,2.2-1.3,2.7-4.5,3.8c-1,0.4-1.3,1.4-1.2,2.6c0.1,2.2,1.3,5.3,1.4,7
		c0,0.4,0,0.7-0.2,0.9c-1,1.8-4.6,4-4.6,4s-0.2,1.4-1,3C109.5,382.1,110.7,382.1,111.1,381.7z"/>
	<path id="Nampo" fill="#769FB6" stroke="#CAD7E0" stroke-width="0.25" d="M107.3,374.5c-0.1-1.4-1.2-0.8-1.7-2.6s-1.8-3.4-3.1-1.7
		c-1.3,1.7-5.8,1-6.7,1.7c-0.9,0.7,0.5,2.5,0,3.8c-0.3,0.8-4.9-0.5-8.3-1.6c-0.8,3-3.8,4-3.8,4s-0.9,1.4,0.4,1.9s-3,2.4-2.6,5.8
		s-3.5,2.8-2.1,3.5s1.8,1.4,1,3.1s0.3,3.9,1.8,4.6s3.1,3.4,3.1,3.4s1.4-4.1,2.4-3.1c0.9,0.9-0.8,3.2-1.3,3.9
		c-0.1,0.1-0.2,0.2-0.2,0.2s3.1,1.1,3.4,1.6s3.8-0.4,5.2-0.9s6.6,0,4.5-3s2.9,0.6,2.9,1.4s7.4,1.5,7.8,2.9c0,0,3.4-1.4,2.8-4
		s-1-6.2-1-6.2s-1.4-1.9-1.5-3c-0.1-1.2-1.6-2.1-1.9-2.3c-0.3-0.3,0-2.2,0-2.2s-2.2,0.2-0.7-1.9c0.4-0.6,0.7-1.1,1-1.7
		c0,0,0,0-0.1,0c0,0,0,0,0.1,0c0.8-1.6,1-3,1-3s1-0.6,2.1-1.5C110,376.7,107.4,375.4,107.3,374.5z"/>
	<path id="Pyongnam" fill="#769FB6" stroke="#CAD7E0" stroke-width="0.25" d="M218,272.3c-1.2-1-5-3.2-3.3-6.7s-1.8-7.3-4.5-7.2
		c-2,0.1-6.3-2.5-8.3-3.9c-0.5,0.4-0.9,0.8-1.2,1.5c-0.7,2,0.8,6.5-2.8,7c-3.7,0.5-4.8,7.5-4.8,7.5s-5-0.7-6.5,2.8s-2.7-1.7-3.7,0
		s-1.5,4.3-3.5,4.3s-3.7,1.8-3.7,4.5s-4.3,0.3-6.8,2.8c-1.7,1.7-3.2,1.9-4.7,1.3c-0.2,2.6-0.4,5.4-0.3,6.6c0.3,2.3-0.7,3-2.3,4.3
		c-1.7,1.3-4.5-0.7-8,2.9s-7.8,3.1-12,0.6s-8.3,3.8-9.2,4.5c-0.8,0.7-2.3,0-4,2.5s-3,0.2-3,2s-6.3,7.7-9.2,7.5
		c-2.8-0.2-4.3,2.3-5.8,4s-9.6,4-9.6,4l0.9,1.8l1.9,0.1c0,0-2.9,0.4-4.6,1.4s-1.4,2.1-1.4,3.8c0,1.6-4.9,5.9-3.8,6.5s2.1,0,0.9,1.8
		s1.1,4.4,1.8,4.3c0.6-0.1,1.8,0.1,1.8,1.3c0,1.1,0.4,3.6,2.3,4s-3.1,1.3-1.6,2.8s-1.8,1.9-1.8,1.9s0.5,3.6-1,2.9s-6.8,5.6-5.8,10.4
		c0,0-2,2.4-2.6,5.8c0,0.1-0.1,0.3-0.1,0.4c3.4,1.1,8,2.4,8.3,1.6c0.5-1.3-0.9-3.1,0-3.8c0.9-0.7,5.4,0,6.7-1.7
		c1.3-1.7,2.6-0.1,3.1,1.7s1.6,1.1,1.7,2.6c0.1,0.9,2.6,2.3,4.3,3c1-0.8,2-1.7,2.5-2.5c1-1.7-3.2-9.3,0-10.5s4.7-1.7,4.5-3.8
		c-0.2-2.2-4.7-8.3-2.8-10.6s10.2-5.2,10.8-3.4c0.7,1.8,6.3,6.7,8.3,4.8s10.8-1.7,10.5,0s-0.3,3.4,3,1.9c3.3-1.4,4.3,4.1,7.3,4.1
		s-0.5,6.8,3,7.3s4.3,2.5,4.8,4.2s6.6,6.7,4.9,7.3c-0.8,0.3-0.6,1,0.2,1.6c0.1,0,0.1,0,0.2-0.1c-0.1,0-0.1,0-0.2,0.1
		c0,0,0,0,0.1,0.1c0,0,4,1.7,4.5,0.3s-1.6-5.3,0.3-5.7s13.9,4.8,13.7,2.8s-1.8-4.4-2.1-4.9s-0.9-8.1-4.9-7.4s1.9-5.6,3.7-4
		s6.5,1.6,7.5,1.4s10.8,10.2,12.9,9.8c0.7-0.1,1.8-0.3,2.9-0.4c-1.8-2,0.3-4.2-0.7-6.5s6.9-0.2,6.4-2s-3.1-5.2-5.9-5.7
		c-1.7-0.3-2.8-0.7-3.5-2.6c-0.2,0.1-0.4,0.2-0.7,0.3c-2.8,0.8-3.5-3.3-3.8-5.3s-5.8,0.2-7.5-2s-4.8-1-6.7-2c-1.8-1,4.7-6,3.3-6.5
		c-1.3-0.5-0.2-2.7,0.3-5s-3.5-4.7-4.3-6.7s0.2-3.5,1.8-5c1.7-1.5,0.5-4,1.6-5.3s2.3-4.5,0.6-5.2s0.5-5.3,1.4-8.3s4.3-5.8,7.6-5.8
		s8.2,5.3,9,4s8.3-1.7,7-2.5s-1.7-8.5-2.2-10.9s2-9.2,5.3-9.2C219.6,277.5,219.1,273.3,218,272.3z"/>
	<path id="Hambuk" fill="#769FB6" stroke="#CAD7E0" stroke-width="0.25" d="M420.7,91.3c-1.7-1.9-0.1-1.5,0-4.4s1.2-2.8,2.8-2.1
		s1.2,0.2,4-3.2c2.8-3.3,3.5-4.8,1.3-6.7c-2.3-1.8,4.2-2.4,6.6-3.2s2.1-4.8,3.5-6.4c0.9-1,0.4-4.5-0.1-6.9c-0.3-0.3-0.7-0.6-1-1
		c-1.6-2.2-5.1-6.8-6.2-7.2s-1.6-4-1.6-4s-2.9-1.9-3.6-2.4s-0.8-4.2,0.1-4.9c0.9-0.8,0.2-3-0.7-4s1.3-4.9,2-5.2l-0.3-3.1
		c0,0-6.1-2.1-8.2,0s-3.8-2.2-1.8-2.4s1.2-1.3,0.7-2s0.3-1.8,1.2-2c0.9-0.2-1.3-3.2-4.8,0c0,0-9.9,1.4-7.3-3.3c0,0-5.4-0.4-5.4,1.8
		s1.9,0.8,1.8,1.3s-4.1-0.1-3.8,1.3c0.3,1.4,1.5,3.4,0.8,3.4s-2.4,0.8-2.1,2.7c0.3,1.8-0.8,5.7-2.1,6.3s0.5,4-0.2,4.8
		s-4.3,4.9-1.7,7.5s0.7,2,0.1,1.7s-1,1.3-0.5,1.9s-0.7,0.9-0.8,1.9s2.2,2.3,0.4,3s-2.1,3.1-1.9,5.1s0.3,15.1-6.9,9.8
		c0,0-2.7-2.3-3.5-0.7c0,0,2-0.2,0.6,2.3c-1.4,2.4-3.2,1.6-2.8,3.7c0.3,2.1-1.3,0.4-2.3-1.7s-4.4-3.8-4.4-3.8s-2.3,0.8-2.7-0.5
		s-1.8-0.8-1.7,0.6c0.1,1.3-0.8,1.9-1.1,0.2s-2.3-1.3-2.1,0.4c0.2,1.8,0.1,3.2-0.7,1.5s-2.4,1.1-2.1,2.5s-2.1,0.3-2.1,0.3
		s-0.3,0.5-0.4,1s-3.6-0.4-1.9,2.6s-0.3,3.3-1.2,2.8c-0.8-0.5-1.3,0.2-0.4,1.7c0.8,1.4,0,1.4-0.6,1.3s1.7,1.4,1.1,1.8
		c-0.7,0.4-3.4,0.3-2.7,1.8s2.8,3.8,2,3.9s-1.9-0.3-1.6,1.2s-2.3-0.8-2.2,1.3c0.1,2.2-1.9,1.5-2.3,1.3s-0.4,1.8-0.4,1.8
		s-2.5,0.6-3.1-0.8s-0.9,1.7-0.9,1.7s-1.8-0.6-2,2.3c0,0.8-0.3,1.3-0.7,1.7c0.8,2.6,1.7,6.1,1.2,6.6c-0.8,0.8-5.3,6.3-4.7,8.2
		c0.7,1.8-4.2,5.5-3.2,6.8s1.6,1.9,0.9,3.2s1.1,3.1-0.4,6.1s2.3,2.1,2.3,4.9s-2.3,4.6,1.2,5.5s4,1.4,4.1,3.1s5,1,2.5,4.1
		s-3.5,3.1-3,6.1s-3.4,0.3-2.6,4.6s-1.2,5.9,0.7,6.8c1.8,0.9-0.5,3.8,2,5.8s0,3.3-0.9,6s0.6,6.9-1.1,8.3c-1.7,1.4,1,1.6,2.3,3.3
		s-0.3,2.9-1.1,5.6s1.8,5.9-0.4,6.4s-1.6,4.3-1.5,6.4s-3.6,2.9-1.1,5.9s1.7,6,1.8,7.9c0.1,1.9,5.6,5.1,4.8,8c-0.7,2.6,1.5,5.3,6,6.9
		c0.2-1.7,0.2-3.1,0.7-2.8c1,0.7,2.5-5,2.5-5c4-8.5,5.7,2.4,6.9-1.8c1.3-4.1,6.9-7,9.8-8.8s4.9-0.8,5.6-1.4c0.8-0.6,0.9-4.4,4.1-3.5
		c3.3,0.9,4.1-0.5,4.1-0.5s3.4,2.4,5.3-3s2.9-5.6,0.1-6.9s0.3-15.1-0.9-18.8c-1.1-3.6,1-5.1,0.6-7s1.5-5.6,1.5-5.6
		c4.1-1.9,2.5-7.1,2.5-7.1s-1,1.6-1.8-0.6s-3.5-3-3.5-3c-5.8-2.9-5.4-12.6-3.9-12.6s1.5-9.6,4.3-10s1.9-7.6,2.6-7.4s2.9-2.3,2.9-2.3
		l3.1,2.3v-3.8c2.3-0.9,2.6-6,2.6-9.5s4.3,0,4.3,0s1.1-6.4,2-7.1s1.1-0.1,1.4-2.1s2.3,0.1,2.4-1.9s1.3-3.3,1.3-3.3
		c1.1,2,1.5,0.9,1.5-1.3c0-2.2,1.9-2.9,2.9-1.2s3.5,1.4,2.8,0c-0.8-1.4,0-2.3,0-2.3c1.9-0.1,2.8-1.5,3.3-3.5
		C419.9,93.6,422.2,93.1,420.7,91.3z"/>
	<path id="Rason" fill="#769FB6" stroke="#CAD7E0" stroke-width="0.25" d="M455.1,82.4c-1.9-1.2-0.9-3.3-0.1-6.7
		c0.8-3.3-6.5-5.5-6.5-5.5s-1.8-3.1,0.3-3.8c0,0-3-6.1-3.5-6.3s-0.3-6.7-0.3-6.7s-6.3-0.6-4.4,3.3c1.6,3.2-0.3,3.1-1.9,1.8
		c0.5,2.4,1,5.9,0.1,6.9c-1.4,1.6-1.1,5.7-3.5,6.4s-8.8,1.3-6.6,3.2c2.3,1.8,1.6,3.3-1.3,6.7c-2.8,3.3-2.3,3.8-4,3.2
		s-2.7-0.8-2.8,2.1c-0.1,2.9-1.7,2.5,0,4.4c1.5,1.8-0.8,2.3,3.1,5c0.1-0.4,0.2-0.9,0.3-1.4c0.5-2.6,5-5.4,5.9-6.9s1.4,4,1.4,4
		l1.8-2.5c1.5,0,0.5-4,1.9-3s1.4-1.8,1.4-1.8c-1.3-3.2,1.7-4.3,1.7-4.3s3.7,3.8,3.3,0c-0.3-3.8,3.7,0.3,3.3-0.5s0.5-3.8,2.3-4.2
		c1.8-0.3-2.3,4.2,0,4.8c2.3,0.7,3.5,4.2,3.5,4.2S457,83.6,455.1,82.4z"/>
	<path id="Hwangbuk" fill="#769FB6" stroke="#CAD7E0" stroke-width="0.25" d="M207.6,370.2c-0.1-0.1-0.1-0.1-0.2-0.2
		c-0.1-0.1-0.1-0.1-0.2-0.2c-1.1,0.1-2.2,0.3-2.9,0.4c-2.1,0.4-11.9-10-12.9-9.8s-5.7,0.3-7.5-1.4c-1.8-1.6-7.6,4.6-3.7,4
		s4.6,7,4.9,7.4s1.9,2.9,2.1,4.9s-11.8-3.2-13.7-2.8s0.2,4.3-0.3,5.7c-0.4,1.4-4.5-0.3-4.5-0.3s0,0-0.1-0.1c-1.5,0.4-3.7-2-4.6-2.9
		c-1.1-1.2-3.7,0.9-5-0.8s-3.1-0.5-3.2-1c-0.1-0.5-2-2.4-2.8-3.5c-0.6-1-3.9,1-4.8,1.6c0.3-1.5,1.1-2.6-3-5.4
		c-4.9-3.3-9.8,2.8-9.8,2.8s2.3,0.8,2.4,2.2c0.1,1.4,1.6,4.3,2.4,6s-1.4,3.8-1.7,4.1c-0.3,0.3-2.5-0.8-2.5-0.4s-1.7,3.6-3.3,1.5
		c-1.6-2-4.8-2.2-6.4-0.7s-3.9-3.3-3.9-3.3c-4.8-0.8-6.8,2.5-7.5,2.8s-3.1,0.1-3.8,0.9c-0.5,0.4-1.7,0.4-2.6,0.2
		c-0.3,0.6-0.6,1.1-1,1.7c-1.6,2.1,0.7,1.9,0.7,1.9s-0.3,1.9,0,2.2c0.3,0.3,1.8,1.2,1.9,2.3c0.1,1.2,1.5,3,1.5,3s0.3,3.6,1,6.2
		s-2.8,4-2.8,4s7.3,2.5,7.6,3.5s-1.4,6.4-0.4,7.8c1.1,1.3,1.8,4.3,1.3,4.9s-1.4-0.8-1.7,0.8s2.9,4.6,3.1,5.3
		c0.2,0.7-1.8,1.2-1.6,2.6c0.1,1.4,3.2,5.6,4.4,5.6s4.6-0.9,2.6,1.7s0.4,2.8,1.5,2.5s0,1.1,1.5,1s3.1,0.4,1.6,2.9
		c-1.4,2.4-0.1,3.5,1.7,3.6s5.4-4.4,9.3-3.6s4,1.5,5.6,0.3s3.3-4.3,7.6-3.3c4.3,1.1,4-0.3,5.2,1.6s3.9,3.1,5.9,3.8s2.4,1.9,0.9,3.1
		s-3.4,4.5-0.5,6.2c0,0-2.9,2.8-0.9,3.8s-0.8,2-0.1,3.1c0.1,0.2,0.1,0.4,0.1,0.5l0,0c-0.2,0.9-1.8,1.8-0.7,3.2
		c1.3,1.6,1.5,2.9,0.8,3.5c-0.5,0.5,1.6,2.3,1.6,4.1c0.3,0,0.6,0.3,0.2,1.2c0,0,0.2,3.3,1.6,4.7c1.4,1.4,9.1,5.9,9.1,5.9
		s3.7-1.3,4.4-2.1c0.7-0.8,1.1-3.8,2.3-4.5c0.1-0.1,0.2-0.1,0.3-0.2c0.1-1.9,0.5-7.3-0.1-8.5c0,0,8.3-2.1,12.1-7.3
		c3.8-5.1-1.3-4.4,3.3-6.9c0.5-0.3,1-0.5,1.4-0.7c-1.5-2.6-0.7-6.6-0.4-7.5c0.3-1-0.8-1.6-1.7-2l0,0c-0.6-0.3-1.1-0.4-1.1-0.4
		s0-0.4,0-1c0-1.3,0.2-3.6,1.4-4.9c1.7-1.9-2.3-5.2-3.5-4.6c-1.2,0.7-6.2,3.2-5.7-3.5s-3.5-11.2-2.5-15.3c1-4.2-3.1-7.8-1.1-9.3
		s6.8,1.2,7.1-3.2c0.3-4.3,1.7-5.2,4.3-6c2.7-0.8,4-0.2,3.3-3.3c-0.7-3.2,0.5-7.7,3-8.8c2.5-1.2,2.8,0.3,4.5-3.2
		C210.4,377.1,209.5,372.3,207.6,370.2z"/>
</g>
</svg>
